<svg width="47" height="45" viewBox="0 0 47 45" fill="none" xmlns="http://www.w3.org/2000/svg">
<path d="M35.7085 13.948V14.698H36.4585H44.271C44.8003 14.698 45.2874 14.8763 45.6291 15.1643C45.967 15.449 46.1252 15.8048 46.1252 16.1425V40.2815C46.1252 42.1726 44.2504 43.9204 41.6668 43.9204H5.20835C2.62472 43.9204 0.75 42.1726 0.75 40.2815V16.1425C0.75 15.8048 0.908151 15.449 1.24604 15.1643C1.58776 14.8763 2.07486 14.698 2.60418 14.698H10.4167H11.1667V13.948V11.7535C11.1667 6.23282 16.5466 1.53125 23.4376 1.53125C30.3285 1.53125 35.7085 6.23282 35.7085 11.7535V13.948ZM31.2501 14.698H32.0001V13.948V11.7535C32.0001 7.59451 28.0337 4.42017 23.4376 4.42017C18.8415 4.42017 14.8751 7.59451 14.8751 11.7535V13.948V14.698H15.6251H31.2501ZM5.20835 17.5869H4.45835V18.3369V40.2815V41.0315H5.20835H41.672H42.4222L42.422 40.2813L42.4168 18.3367L42.4166 17.5869H41.6668H36.4585H35.7085V18.3369V21.9758H32.0001V18.3369V17.5869H31.2501H15.6251H14.8751V18.3369V21.9758H11.1667V18.3369V17.5869H10.4167H5.20835Z" fill="#6ECAEF" stroke="black" stroke-width="1.5"/>
</svg>
