<svg width="72" height="47" viewBox="0 0 72 47" fill="none" xmlns="http://www.w3.org/2000/svg">
<g clip-path="url(#clip0)">
<path d="M64.5206 38.6384H62.4861V8.77379H64.5206V38.6384ZM60.2458 31.2731H55.1585V8.77379H60.2458V31.2731ZM57.9665 37.8335V37.8374C57.9667 38.0214 57.9235 38.2031 57.8402 38.3692C57.7569 38.5353 57.6356 38.6814 57.4851 38.797L57.4831 38.799C57.1678 39.0554 56.7664 39.1957 56.3517 39.1945L56.2879 39.1926H56.2899L56.22 39.1945C55.7994 39.1956 55.3928 39.0508 55.0762 38.7872L55.0783 38.7892C54.9334 38.674 54.8169 38.5299 54.7369 38.3671C54.657 38.2044 54.6155 38.0269 54.6154 37.8472V37.714H55.7633V37.8668C55.7636 37.9932 55.8152 38.1146 55.9073 38.2056C56.0086 38.2963 56.1426 38.3468 56.2817 38.3466L56.3167 38.3446H56.3146L56.3475 38.3466C56.4865 38.3458 56.6201 38.2955 56.7219 38.2056C56.8159 38.1148 56.8684 37.9923 56.868 37.8648V36.7114C56.6267 36.8846 56.3329 36.9787 56.0307 36.9797C55.8298 36.9939 55.6281 36.966 55.4397 36.898C55.2514 36.83 55.0809 36.7235 54.9405 36.586C54.7301 36.3367 54.6154 36.0265 54.6154 35.7067L54.6175 35.6186V35.6225V34.6453C54.6318 34.3834 54.7342 34.1328 54.9096 33.9305L54.9075 33.9325C55.0972 33.7198 55.345 33.5612 55.6234 33.4742L55.6337 33.4703C55.8376 33.4037 56.0518 33.37 56.2673 33.3705H56.2879L56.3537 33.3685C56.7939 33.3685 57.1951 33.5232 57.5016 33.7797L57.4995 33.7778C57.6446 33.8933 57.7612 34.0377 57.8411 34.2008C57.9211 34.3639 57.9625 34.5417 57.9624 34.7217V34.7335L57.9665 37.8335ZM53.4305 31.2731H50.3757V8.77379H53.4305V31.2731ZM53.1055 37.8335C53.1055 38.2291 52.9039 38.5777 52.5933 38.795L52.5891 38.797C52.2511 39.0542 51.8308 39.1938 51.3981 39.1926H51.3425H51.3446H51.2047C50.771 39.1929 50.3504 39.0512 50.0136 38.7911L50.0177 38.7931C49.8608 38.6815 49.7332 38.5367 49.645 38.3702C49.5568 38.2037 49.5105 38.02 49.5096 37.8335V37.3145V37.3106C49.5096 36.9425 49.6845 36.6135 49.9581 36.3922L49.9601 36.3902C50.0903 36.2767 50.239 36.1841 50.4003 36.116L50.4106 36.1121C50.119 35.997 49.8768 35.7913 49.7235 35.5285L49.7194 35.5227C49.6374 35.3678 49.5951 35.1967 49.596 35.0233V34.9841V34.9861V34.6767V34.6434C49.596 34.2909 49.7585 33.9736 50.0177 33.7562L50.0198 33.7543C50.3633 33.4698 50.8097 33.3237 51.2643 33.347H51.2602H51.3466L51.4371 33.345C51.8815 33.345 52.2867 33.4997 52.5974 33.7562L52.5953 33.7543C52.7282 33.8665 52.8346 34.0043 52.9073 34.1586C52.98 34.3129 53.0174 34.4801 53.017 34.6492V34.6786V34.6767V35.0115C53.017 35.3523 52.8586 35.6578 52.6097 35.8673L52.6077 35.8693C52.4902 35.9689 52.3569 36.0502 52.2127 36.1102L52.2024 36.1141C52.5178 36.2494 52.7821 36.4736 52.9594 36.7564L52.9635 36.7642C53.0568 36.9185 53.1057 37.0935 53.1055 37.2715V37.3067V37.3047V37.8335ZM47.9832 34.2909L46.4301 39.1338H45.3439L46.897 34.2909H44.6568V33.4292H47.9832V34.2909ZM43.2353 8.77379H47.3085V31.2731H43.2394L43.2353 8.77379ZM43.1366 34.847H41.9805V34.706V34.6943C41.9807 34.627 41.9663 34.5603 41.9379 34.4987C41.9096 34.437 41.8681 34.3816 41.816 34.3361C41.7639 34.2905 41.7024 34.2559 41.6355 34.2343C41.5685 34.2126 41.4975 34.2046 41.4271 34.2106H41.4291L41.3942 34.2086C41.2548 34.2081 41.1209 34.2602 41.0218 34.3535C40.9297 34.4445 40.8781 34.5659 40.8778 34.6923V35.8438C41.1173 35.6723 41.4092 35.5801 41.7089 35.5814H41.7171C41.9188 35.5659 42.1215 35.5932 42.3108 35.6612C42.5 35.7293 42.6711 35.8365 42.8115 35.975C43.0237 36.222 43.1393 36.5314 43.1386 36.8504L43.1366 36.9385V36.9346V37.9118C43.1274 38.0908 43.0776 38.2658 42.9906 38.4247C42.9036 38.5836 42.7815 38.7226 42.6326 38.8322L42.6305 38.8342C42.3178 39.0745 41.9277 39.2052 41.5258 39.2043H41.4703H41.4723L41.4024 39.2063C40.9824 39.2076 40.5763 39.0628 40.2607 38.799L40.2627 38.8009C40.1179 38.6857 40.0014 38.5416 39.9214 38.3789C39.8414 38.2161 39.7999 38.0386 39.7999 37.859V34.7393V34.7256C39.7991 34.4564 39.8909 34.1944 40.0611 33.9795L40.0591 33.9834C40.2454 33.7529 40.4997 33.5804 40.7894 33.488L40.7997 33.486C41.0059 33.4139 41.2239 33.3775 41.4435 33.3783H41.4662H41.4641L41.5299 33.3763C41.9702 33.3763 42.3713 33.531 42.6778 33.7876L42.6758 33.7856C42.8211 33.9013 42.9378 34.0461 43.0178 34.2095C43.0978 34.373 43.139 34.5512 43.1386 34.7315V34.7413L43.1366 34.847ZM38.2735 37.7708V37.7963C38.2734 37.9907 38.2271 38.1827 38.138 38.3577C38.049 38.5327 37.9195 38.6862 37.7592 38.8068L37.7571 38.8087C37.4253 39.0626 37.0123 39.2008 36.5866 39.2004L36.5105 39.1985H36.5146L36.4509 39.2004C36.0277 39.2013 35.6188 39.0551 35.3009 38.7892L35.303 38.7911C35.1577 38.6754 35.0409 38.5307 34.9609 38.3672C34.881 38.2038 34.8397 38.0256 34.8401 37.8452V37.7003L35.8995 37.6377L35.9242 37.8315C35.9281 37.9329 35.9636 38.0308 36.0263 38.1128C36.0889 38.1948 36.1759 38.2571 36.276 38.2917L36.2801 38.2937C36.3442 38.3184 36.4126 38.331 36.4817 38.3309C36.9343 38.3309 37.1606 38.1475 37.1606 37.7806V36.3863C37.1601 36.3037 37.1379 36.2226 37.0958 36.1504C37.0537 36.0781 36.9932 36.0172 36.9199 35.9731L36.9178 35.9711C36.8341 35.9208 36.7371 35.8943 36.6381 35.8947L36.6031 35.8967H36.6051L36.5681 35.8947C36.4925 35.8945 36.4177 35.9103 36.3494 35.9412C36.281 35.972 36.2208 36.017 36.1731 36.073C36.0977 36.167 36.0559 36.2817 36.0538 36.4V36.5547H34.9471V33.441H38.185V34.3026H36.0538V35.5266C36.1778 35.397 36.3353 35.3004 36.5105 35.2465L36.5187 35.2446C36.6327 35.2109 36.7512 35.1937 36.8705 35.1937H36.887C37.0857 35.1781 37.2856 35.2057 37.4716 35.2742C37.6575 35.3427 37.8248 35.4504 37.9608 35.5892C38.1587 35.8407 38.2656 36.1465 38.2653 36.4607L38.2611 36.5567V36.5528L38.2735 37.7708ZM33.5482 8.77379H35.5827V31.2731H33.5482V8.77379ZM33.3055 37.902H32.5978V39.1299H31.4911V37.902H29.5327V37.0365L31.4911 33.4272H32.5978V37.0365H33.3055V37.902ZM28.0104 37.7669V37.7806C28.0106 37.9804 27.9604 38.1773 27.8641 38.3549C27.7678 38.5324 27.6282 38.6854 27.457 38.8009L27.4529 38.8029C27.0998 39.0566 26.6693 39.1934 26.2269 39.1926H26.1693H26.1713H26.1178C25.6842 39.1929 25.2636 39.0512 24.9267 38.7911L24.9309 38.7931C24.7736 38.6816 24.6457 38.5369 24.5572 38.3704C24.4687 38.2039 24.422 38.0201 24.4207 37.8335V37.6925L25.4739 37.6298L25.4966 37.8296C25.5033 37.8976 25.5243 37.9636 25.5582 38.0238C25.5921 38.084 25.6383 38.1371 25.6941 38.1801H25.6961C25.8093 38.2663 25.9553 38.3172 26.1117 38.3172H26.1425H26.1405C26.6479 38.3172 26.9016 38.1338 26.9016 37.7669V37.432C26.9016 36.8485 26.5073 36.5567 25.7187 36.5567V35.8203C26.0601 35.8474 26.3991 35.7477 26.665 35.5422L26.663 35.5442C26.7525 35.4588 26.8235 35.3574 26.8719 35.2458C26.9202 35.1343 26.945 35.0147 26.9448 34.894L26.9427 34.851V34.8529V34.7217C26.9427 34.3477 26.7329 34.1636 26.3112 34.1636L26.2618 34.1616C26.173 34.1614 26.0853 34.1798 26.0049 34.2157C25.9245 34.2516 25.8535 34.304 25.7969 34.3692C25.7156 34.4807 25.6725 34.6134 25.6735 34.7491V34.7844V34.7824V34.9175H24.5914V34.7863L24.5894 34.7315C24.5894 34.3672 24.7416 34.0382 24.9885 33.7954C25.1574 33.6427 25.3578 33.525 25.577 33.4498C25.7962 33.3746 26.0294 33.3436 26.2618 33.3587H26.2577L26.3482 33.3568C26.7926 33.3568 27.1978 33.5115 27.5085 33.768L27.5064 33.766C27.6393 33.8782 27.7457 34.016 27.8184 34.1703C27.8911 34.3246 27.9285 34.4919 27.9281 34.661V34.6904V34.6884V34.9352C27.9286 35.1046 27.8925 35.2724 27.8221 35.428C27.7516 35.5836 27.6484 35.7238 27.5187 35.8399C27.4006 35.9489 27.2661 36.0407 27.1197 36.1121L27.1094 36.116C27.4248 36.2514 27.689 36.4756 27.8664 36.7584L27.8705 36.7662C27.9635 36.9213 28.0124 37.0968 28.0125 37.2754V37.3087V37.3067L28.0104 37.7669ZM23.6493 31.275H20.5944V8.77575H23.6493V31.275ZM22.8058 38.2898V39.1319H19.2861V38.3427C19.3557 38.2301 19.437 38.1245 19.5288 38.0274L19.5267 38.0293C19.6029 37.9412 19.6872 37.8452 19.7695 37.7395L20.0554 37.4183C20.2173 37.2395 20.4813 36.9529 20.8474 36.5586C21.1293 36.2649 21.3823 35.9359 21.5962 35.5834L21.6106 35.556C21.7372 35.3457 21.8072 35.1089 21.8143 34.8666V34.8647V34.8568C21.8144 34.7768 21.798 34.6976 21.7659 34.6236C21.7337 34.5497 21.6866 34.4825 21.6271 34.426C21.4923 34.3039 21.3133 34.2359 21.1272 34.236H21.0984H21.1005H21.0717C20.9362 34.2362 20.8039 34.2753 20.6923 34.3484C20.5807 34.4214 20.4949 34.525 20.4463 34.6453L20.4442 34.6492C20.4024 34.7455 20.3807 34.8486 20.3805 34.9528V34.9782V34.9763V35.1956H19.2902V35.0448L19.2881 34.9528C19.2881 34.4926 19.5062 34.0813 19.8497 33.8091L19.8518 33.8072C20.219 33.5419 20.673 33.4087 21.1334 33.4312H21.1293H21.1725C21.6291 33.4312 22.0488 33.5917 22.3697 33.8561L22.3677 33.8542C22.5256 33.9715 22.6538 34.1211 22.7428 34.292C22.8318 34.4628 22.8794 34.6505 22.8819 34.8412C22.8799 35.2563 22.7565 35.6441 22.5425 35.9731L22.5487 35.9633C22.2771 36.351 21.9974 36.6879 21.6929 37.0012L21.6991 36.9953C21.5798 37.1272 21.4008 37.3348 21.1622 37.6181L20.9626 37.8492C20.8351 38.0019 20.7343 38.1214 20.6685 38.2095C20.649 38.2331 20.6337 38.2596 20.6232 38.2878V38.2898H22.8058ZM18.3583 31.275H14.2851V8.77575H18.3583V31.275ZM17.7658 39.1358H16.6591V34.755H15.7149V34.1557C15.9857 34.1323 16.2477 34.052 16.4822 33.9207L16.4739 33.9247C16.6885 33.8155 16.8667 33.6514 16.9882 33.4507L16.9923 33.4449H17.7658V39.1358ZM12.3267 38.6403H9.27188V8.77575H12.3267V38.6403ZM26.2104 8.77575H31.2977V31.275H26.2104V8.77575ZM38.1994 8.77575H41.2543V31.275H38.1994V8.77575ZM71.6301 0.012207H0.987768C0.717702 0.012207 0.458697 0.114337 0.267731 0.29613C0.0767658 0.477923 -0.0305176 0.724488 -0.0305176 0.981582V46.0428C-0.0305176 46.5775 0.424111 47.0122 0.987768 47.0122H71.6301C71.9001 47.0122 72.1591 46.9101 72.3501 46.7283C72.5411 46.5465 72.6483 46.2999 72.6483 46.0428V0.981582C72.6483 0.724488 72.5411 0.477923 72.3501 0.29613C72.1591 0.114337 71.9001 0.012207 71.6301 0.012207V0.012207Z" fill="#80CBC4"/>
</g>
<defs>
<clipPath id="clip0">
<rect width="72" height="47" fill="white"/>
</clipPath>
</defs>
</svg>
