<svg width="102" height="34" viewBox="0 0 102 34" fill="none" xmlns="http://www.w3.org/2000/svg">
<path d="M9.2335 29.92C9.0175 29.92 8.8255 29.896 8.6095 29.848C7.9135 29.68 7.7455 29.536 7.7215 28.84C7.6975 28 7.6975 27.184 7.6975 26.344H7.6735L7.7935 22.384C7.7935 21.976 7.8895 21.76 8.3695 21.712C9.5215 21.568 10.6735 21.304 11.8015 20.968C12.0655 20.896 12.3055 20.848 12.5215 20.848C13.2895 20.848 13.6975 21.376 13.7455 22.432C13.7695 22.648 13.7695 22.864 13.7695 23.08C13.7695 23.32 13.7695 23.536 13.7935 23.752L13.8175 24.16C13.6975 27.52 12.6655 28.624 11.0815 29.368C10.4815 29.656 9.8815 29.92 9.2335 29.92ZM7.9375 19.24C7.8895 19.072 7.8415 18.976 7.8415 18.904V17.992C7.8415 15.52 7.7455 13.072 7.7455 10.624C7.7455 9.544 7.7455 8.488 7.8175 7.408L7.9855 5.104C7.9855 4.864 8.0575 4.72 8.3215 4.6C8.6815 4.432 9.0655 4.36 9.4495 4.36C10.2655 4.36 11.0335 4.744 11.5615 5.464C11.9215 6.016 12.1375 6.616 12.2575 7.24C12.4255 8.248 12.5215 9.256 12.5215 10.24C12.5215 12.016 12.2575 13.768 11.8495 15.52C11.5135 16.936 10.6015 17.992 9.2575 18.64C8.8255 18.856 8.3935 19.024 7.9375 19.24ZM6.8335 32.272C7.5535 32.272 8.2495 32.248 8.9695 32.224C11.0335 32.152 12.7615 31.216 14.2735 29.848C15.1375 29.032 15.6175 28.024 15.7855 26.824C15.8815 26.272 16.0255 24.136 16.0255 23.584C16.0255 22.888 15.9775 22.216 15.8815 21.544C15.7375 20.272 14.9695 19.384 13.8175 18.856C13.5295 18.736 13.2175 18.688 12.8335 18.568C13.1695 17.992 13.5295 17.464 13.7695 16.888C14.1295 15.856 14.2975 14.776 14.4415 13.696C14.6095 12.448 14.7295 11.2 14.7295 9.976C14.7295 8.8 14.6335 7.624 14.3695 6.448C13.8175 4.024 12.2575 2.464 9.8335 2.104C8.8975 1.96 7.9375 1.888 7.0015 1.888L6.0175 1.912C4.8895 1.984 3.8095 2.224 2.7295 2.512C1.8175 2.752 1.4815 3.16 1.4575 3.976C1.3615 6.208 1.1935 8.464 1.1935 10.696L1.2175 12.112C1.2895 13.936 1.3135 15.784 1.3135 17.608L1.1215 25.384C1.1215 26.824 1.1695 28.264 1.1935 29.68C1.1935 30.304 1.3135 30.928 1.9375 31.24C2.5615 31.528 3.1855 31.84 3.9055 32.008C4.8655 32.224 5.8495 32.272 6.8335 32.272ZM28.0786 29.92C27.7666 29.92 27.4306 29.704 27.1426 29.32C26.8066 28.864 26.6386 28.36 26.4706 27.832C25.5106 24.496 24.9826 21.112 24.9826 17.464C24.9826 16.816 24.9826 16.192 25.0306 15.544C25.1746 12.76 25.3666 10 26.0386 7.288C26.2546 6.448 26.5186 5.632 27.0466 4.912C27.3106 4.552 27.6946 4.384 28.0546 4.384C28.4626 4.384 28.8706 4.6 29.1346 5.032C29.2066 5.176 29.2786 5.32 29.3266 5.464C30.5266 9.112 31.3186 12.808 31.3186 16.768V16.936C31.1986 20.728 30.6706 24.4 29.5186 27.952C29.3746 28.384 29.2306 28.792 29.0146 29.2C28.7506 29.68 28.4146 29.92 28.0786 29.92ZM25.9426 32.272C26.7346 32.272 27.5266 32.248 28.3186 32.128C29.5426 31.96 30.4786 31.312 31.0066 30.184C31.2466 29.704 31.4386 29.2 31.6066 28.672C32.8546 24.856 33.4066 20.896 33.5506 16.72V16.192C33.5506 15.256 33.4546 14.32 33.3586 13.36C33.0706 10.408 32.3266 7.576 31.4386 4.768C31.0546 3.544 30.3106 2.704 29.0626 2.344C28.0786 2.056 27.0706 1.96 26.0626 1.96C25.1746 1.96 24.3106 2.032 23.4466 2.104C22.8226 2.152 22.3906 2.464 22.0066 2.944C21.0706 4.024 20.4466 5.248 20.0866 6.664C19.4146 9.4 19.1506 12.184 18.9826 15.016C18.9346 15.808 18.9106 16.576 18.9106 17.368C18.9106 21.28 19.4386 24.928 20.4946 28.552C20.8066 29.608 21.2386 30.592 22.0546 31.384C22.5586 31.864 23.1106 32.248 23.8306 32.248L25.9426 32.272ZM45.6098 29.92C45.2978 29.92 44.9618 29.704 44.6738 29.32C44.3378 28.864 44.1698 28.36 44.0018 27.832C43.0418 24.496 42.5138 21.112 42.5138 17.464C42.5138 16.816 42.5138 16.192 42.5618 15.544C42.7058 12.76 42.8978 10 43.5698 7.288C43.7858 6.448 44.0498 5.632 44.5778 4.912C44.8418 4.552 45.2258 4.384 45.5858 4.384C45.9938 4.384 46.4018 4.6 46.6658 5.032C46.7378 5.176 46.8098 5.32 46.8578 5.464C48.0578 9.112 48.8498 12.808 48.8498 16.768V16.936C48.7298 20.728 48.2018 24.4 47.0498 27.952C46.9058 28.384 46.7618 28.792 46.5458 29.2C46.2818 29.68 45.9458 29.92 45.6098 29.92ZM43.4738 32.272C44.2658 32.272 45.0578 32.248 45.8498 32.128C47.0738 31.96 48.0098 31.312 48.5378 30.184C48.7778 29.704 48.9698 29.2 49.1378 28.672C50.3858 24.856 50.9378 20.896 51.0818 16.72V16.192C51.0818 15.256 50.9858 14.32 50.8898 13.36C50.6018 10.408 49.8578 7.576 48.9698 4.768C48.5858 3.544 47.8418 2.704 46.5938 2.344C45.6098 2.056 44.6018 1.96 43.5938 1.96C42.7058 1.96 41.8418 2.032 40.9778 2.104C40.3538 2.152 39.9218 2.464 39.5378 2.944C38.6018 4.024 37.9778 5.248 37.6178 6.664C36.9458 9.4 36.6818 12.184 36.5138 15.016C36.4658 15.808 36.4418 16.576 36.4418 17.368C36.4418 21.28 36.9698 24.928 38.0258 28.552C38.3378 29.608 38.7698 30.592 39.5858 31.384C40.0898 31.864 40.6418 32.248 41.3618 32.248L43.4738 32.272ZM58.1731 32.272C58.7731 32.272 59.3971 32.272 59.9971 32.248C60.8371 32.224 61.1731 31.84 61.2211 30.976V30.592C61.2211 29.512 61.1491 28.408 61.0531 27.328C60.9811 26.584 60.9331 25.84 60.9331 25.024C60.9331 24.64 60.9331 24.256 60.9571 23.824C61.2691 24.28 61.4851 24.544 61.6531 24.856C62.8771 27.256 64.0531 28.888 65.2531 30.52C65.7811 31.192 66.3811 31.744 67.1491 32.104C67.3171 32.176 67.4851 32.224 67.6291 32.224C67.9891 32.224 68.3251 32.032 68.5171 31.744C68.6371 31.576 68.7091 31.36 68.7091 31.144C68.7091 30.832 68.5651 30.52 68.3011 30.28C68.1571 30.16 68.0131 30.04 67.8451 29.944C67.5571 29.752 67.2931 29.512 67.0771 29.224C65.2531 26.872 63.7411 24.304 61.9411 21.112C61.8211 20.896 61.7491 20.728 61.7491 20.536C61.7491 20.392 61.7971 20.224 61.8691 20.032C62.2771 19.072 62.6611 18.088 62.9971 17.08C64.3651 12.976 65.9731 8.464 67.7491 4.024C67.8691 3.712 67.9891 3.424 67.9891 3.088C67.9891 2.584 67.7251 2.2 67.2931 2.032C67.1731 1.984 67.0531 1.984 66.9571 1.984C66.5971 1.984 66.2611 2.128 66.0211 2.464C65.8771 2.704 65.7811 2.992 65.6611 3.256C63.9811 7.456 62.4451 11.728 61.1491 15.592C61.0771 15.808 61.0531 16.024 60.7651 16.288V15.688C60.7411 11.8 60.7411 7.888 60.7411 4.168C60.7411 3.904 60.7411 3.592 60.7171 3.328C60.6211 2.512 60.2611 2.08 59.4451 2.008C58.7011 1.936 57.9331 1.912 57.1891 1.912C56.4931 1.912 55.8211 1.936 55.1251 2.008C54.2851 2.104 53.9971 2.512 53.9971 3.376C53.9971 6.472 53.9971 9.784 54.0451 13.072V13.696C54.0451 15.424 53.9731 20.464 53.9731 20.464L54.4771 30.808C54.4771 30.952 54.5011 31.12 54.5491 31.288C54.6931 31.912 55.0291 32.248 55.6771 32.248L58.1731 32.272ZM73.6141 32.248C75.6781 32.248 77.7181 32.2 79.7581 32.2H80.1181C80.7661 32.224 81.4381 32.224 82.0861 32.224C83.3821 32.224 84.6781 32.2 85.9741 32.128C86.6461 32.08 87.0541 31.72 87.1021 31.168V31.072C87.1021 30.544 86.7661 30.112 86.2141 29.944C85.9261 29.872 85.6621 29.848 85.3741 29.848C85.1341 29.848 84.9181 29.872 84.7021 29.92C83.8381 30.088 82.9741 30.112 82.0861 30.112H80.6701C80.3341 30.112 79.9261 30.112 79.5901 30.04C79.3741 29.992 79.1821 29.992 79.0381 29.824C78.8701 29.632 78.8461 29.368 78.8461 29.08L78.8701 28.12C78.7741 25.888 78.6061 23.656 78.5341 21.424C78.4621 19.408 78.4381 17.584 78.4381 15.568V11.728C78.5341 9.04 78.4621 6.352 78.6061 3.664V3.184C78.5101 2.44 78.1741 2.032 77.4301 2.032H77.3581C76.3261 2.032 75.2941 1.936 74.2861 1.936L73.5181 1.96C72.1261 2.032 71.8381 2.296 71.7901 3.664C71.5981 8.224 71.6221 12.808 71.5981 17.368C71.5981 18.448 71.6701 19.648 71.6701 20.872V21.76C71.6701 24.544 72.0781 27.304 72.0781 30.088V30.616C72.0781 31.72 72.5821 32.248 73.6141 32.248ZM92.9815 32.272C93.6055 32.272 94.2295 32.248 94.8535 32.2C95.9095 32.104 96.3175 31.696 96.3175 30.688V30.52C96.2935 28.744 96.3175 26.944 96.2215 25.168L96.1975 24.16C96.1975 22.648 96.5095 20.56 97.0375 18.496C98.0695 14.248 98.9575 9.952 99.9175 5.68C100.086 4.888 100.374 4.144 100.566 3.376L100.614 3.04C100.614 2.56 100.35 2.2 99.9175 2.032C99.7975 1.984 99.6775 1.984 99.5575 1.984C99.1495 1.984 98.7655 2.2 98.5495 2.632C98.3815 2.944 98.2615 3.328 98.1655 3.688C97.1095 7.216 96.5335 10.864 95.6695 14.44C95.5255 14.968 95.5255 15.568 95.1655 16.168L94.9255 15.016L93.8695 8.992C93.5095 7.096 93.1495 5.224 92.8375 3.328C92.6935 2.488 92.4295 2.056 91.5655 2.032C91.1575 2.008 90.7495 2.008 90.3655 2.008H89.1415L87.8215 2.032C86.7655 2.08 86.1415 2.68 86.1415 3.568C86.1415 3.76 86.1895 3.976 86.2375 4.192C86.5495 5.344 86.7415 6.496 86.9575 7.672C87.3655 10.096 87.7975 12.52 88.2295 14.944C88.5895 17.152 88.9015 19.36 89.5015 21.52C89.5735 21.712 89.5975 21.952 89.5975 22.168L89.5495 23.776C89.5495 25.984 89.6695 28.168 89.6935 30.352V30.736C89.6935 30.88 89.6935 31 89.7175 31.12C89.7895 31.792 90.1495 32.176 90.8215 32.224C91.5415 32.248 92.2615 32.272 92.9815 32.272Z" fill="#9FD4EF"/>
<path d="M8.6095 29.848L8.37486 30.8201L8.3837 30.8222L8.39257 30.8242L8.6095 29.848ZM7.7215 28.84L6.72189 28.8686L6.7221 28.8745L7.7215 28.84ZM7.6975 26.344H8.6975V25.344H7.6975V26.344ZM7.6735 26.344L6.67396 26.3137L6.64274 27.344H7.6735V26.344ZM7.7935 22.384L8.79305 22.4143L8.7935 22.3991V22.384H7.7935ZM8.3695 21.712L8.46901 22.707L8.48129 22.7058L8.49354 22.7043L8.3695 21.712ZM11.8015 20.968L11.5384 20.0032L11.5272 20.0063L11.516 20.0096L11.8015 20.968ZM13.7455 22.432L12.7465 22.4774L12.748 22.51L12.7516 22.5424L13.7455 22.432ZM13.7935 23.752L14.7918 23.6933L14.7903 23.6674L14.7874 23.6416L13.7935 23.752ZM13.8175 24.16L14.8169 24.1957L14.8186 24.1485L14.8158 24.1013L13.8175 24.16ZM11.0815 29.368L10.6564 28.4628L10.6488 28.4665L11.0815 29.368ZM7.9375 19.24L6.97598 19.5147L7.29992 20.6485L8.36559 20.1437L7.9375 19.24ZM7.8175 7.408L6.82013 7.33527L6.81972 7.34148L7.8175 7.408ZM7.9855 5.104L8.98286 5.17672L8.9855 5.14041V5.104H7.9855ZM8.3215 4.6L8.73533 5.51041L8.74439 5.50618L8.3215 4.6ZM11.5615 5.464L12.3991 4.91773L12.3841 4.89476L12.3679 4.87264L11.5615 5.464ZM12.2575 7.24L13.2439 7.0756L13.2419 7.06335L13.2395 7.05115L12.2575 7.24ZM11.8495 15.52L12.8225 15.7509L12.8234 15.7468L11.8495 15.52ZM9.2575 18.64L8.8232 17.7392L8.81672 17.7424L8.81029 17.7456L9.2575 18.64ZM8.9695 32.224L9.00282 33.2234L9.00437 33.2234L8.9695 32.224ZM14.2735 29.848L14.9444 30.5895L14.9524 30.5824L14.9601 30.575L14.2735 29.848ZM15.7855 26.824L14.8003 26.6527L14.7975 26.669L14.7952 26.6854L15.7855 26.824ZM15.8815 21.544L14.8879 21.6565L14.8895 21.671L14.8916 21.6854L15.8815 21.544ZM13.8175 18.856L14.2342 17.9469L14.2183 17.9396L14.2021 17.9329L13.8175 18.856ZM12.8335 18.568L11.9697 18.0641L11.3374 19.1482L12.5352 19.5225L12.8335 18.568ZM13.7695 16.888L14.6926 17.2726L14.704 17.2453L14.7137 17.2174L13.7695 16.888ZM14.4415 13.696L13.4504 13.5626L13.4503 13.5638L14.4415 13.696ZM14.3695 6.448L15.3452 6.22896L15.3445 6.22596L14.3695 6.448ZM9.8335 2.104L9.68144 3.09238L9.6866 3.09315L9.8335 2.104ZM7.0015 1.888V0.887999H6.98931L6.97712 0.888296L7.0015 1.888ZM6.0175 1.912L5.99312 0.912296L5.97344 0.912775L5.9538 0.914029L6.0175 1.912ZM2.7295 2.512L2.984 3.47908L2.98717 3.47823L2.7295 2.512ZM1.4575 3.976L2.45667 4.01897L2.45707 4.0054L1.4575 3.976ZM1.1935 10.696H0.193503V10.7045L0.193647 10.7129L1.1935 10.696ZM1.2175 12.112L0.217647 12.1289L0.217838 12.1402L0.218282 12.1514L1.2175 12.112ZM1.3135 17.608L2.3132 17.6327L2.3135 17.6203V17.608H1.3135ZM1.1215 25.384L0.121808 25.3593L0.121503 25.3717V25.384H1.1215ZM1.1935 29.68H2.1935V29.6715L2.19336 29.6631L1.1935 29.68ZM1.9375 31.24L1.49029 32.1344L1.50426 32.1414L1.51845 32.148L1.9375 31.24ZM3.9055 32.008L3.67827 32.9819L3.68599 32.9836L3.9055 32.008ZM9.2335 28.92C9.10052 28.92 8.98175 28.9063 8.82643 28.8718L8.39257 30.8242C8.66926 30.8857 8.93448 30.92 9.2335 30.92V28.92ZM8.84414 28.8759C8.76738 28.8574 8.7076 28.8415 8.65985 28.8272C8.61191 28.8128 8.58363 28.8022 8.56856 28.7959C8.53897 28.7834 8.58926 28.7993 8.65066 28.8663C8.68072 28.8991 8.70359 28.9335 8.71947 28.9645C8.73455 28.9939 8.73952 29.0128 8.73958 29.013C8.7396 29.0131 8.73856 29.0091 8.73696 29.0002C8.73536 28.9913 8.73336 28.9784 8.7313 28.9606C8.72706 28.9243 8.72328 28.8742 8.72091 28.8055L6.7221 28.8745C6.73478 29.2423 6.78021 29.7856 7.17635 30.2177C7.541 30.6155 8.05512 30.7429 8.37486 30.8201L8.84414 28.8759ZM8.7211 28.8114C8.69757 27.988 8.6975 27.1862 8.6975 26.344H6.6975C6.6975 27.1818 6.69744 28.012 6.72191 28.8686L8.7211 28.8114ZM7.6975 25.344H7.6735V27.344H7.6975V25.344ZM8.67304 26.3743L8.79305 22.4143L6.79396 22.3537L6.67396 26.3137L8.67304 26.3743ZM8.7935 22.384C8.7935 22.314 8.79835 22.3016 8.79455 22.3196C8.78951 22.3436 8.76847 22.4245 8.69891 22.5164C8.62495 22.6142 8.53742 22.67 8.47688 22.6964C8.42746 22.718 8.41329 22.7126 8.46901 22.707L8.27 20.717C7.91399 20.7526 7.43365 20.8741 7.1041 21.3096C6.80717 21.7019 6.7935 22.1539 6.7935 22.384H8.7935ZM8.49354 22.7043C9.71211 22.552 10.9191 22.2743 12.087 21.9264L11.516 20.0096C10.4279 20.3337 9.3309 20.584 8.24547 20.7197L8.49354 22.7043ZM12.0646 21.9328C12.3027 21.8678 12.4403 21.848 12.5215 21.848V19.848C12.1707 19.848 11.8283 19.9242 11.5384 20.0032L12.0646 21.9328ZM12.5215 21.848C12.5989 21.848 12.6245 21.8611 12.6204 21.8593C12.612 21.8555 12.6071 21.8488 12.6122 21.8554C12.6363 21.8866 12.7268 22.0441 12.7465 22.4774L14.7445 22.3866C14.7162 21.7639 14.5787 21.1294 14.1948 20.6326C13.7712 20.0844 13.1622 19.848 12.5215 19.848V21.848ZM12.7516 22.5424C12.7685 22.6943 12.7695 22.8549 12.7695 23.08H14.7695C14.7695 22.8731 14.7705 22.6017 14.7394 22.3216L12.7516 22.5424ZM12.7695 23.08C12.7695 23.3094 12.7684 23.5818 12.7996 23.8624L14.7874 23.6416C14.7706 23.4902 14.7695 23.3306 14.7695 23.08H12.7695ZM12.7952 23.8107L12.8192 24.2187L14.8158 24.1013L14.7918 23.6933L12.7952 23.8107ZM12.8181 24.1243C12.7611 25.7209 12.4896 26.6466 12.1399 27.2324C11.8065 27.7909 11.3428 28.1405 10.6564 28.4629L11.5066 30.2731C12.4042 29.8515 13.2485 29.2771 13.8571 28.2576C14.4495 27.2654 14.7539 25.9591 14.8169 24.1957L12.8181 24.1243ZM10.6488 28.4665C10.0372 28.76 9.62675 28.92 9.2335 28.92V30.92C10.1363 30.92 10.9258 30.552 11.5142 30.2695L10.6488 28.4665ZM8.89903 18.9653C8.88181 18.905 8.86507 18.8529 8.85094 18.8105C8.84401 18.7897 8.83748 18.7706 8.83234 18.7556C8.82677 18.7393 8.82325 18.729 8.82019 18.7198C8.81724 18.7109 8.81633 18.7079 8.81643 18.7083C8.81653 18.7086 8.81882 18.7161 8.82184 18.7286C8.82485 18.7411 8.82958 18.7626 8.83361 18.7908C8.83767 18.8192 8.8415 18.8577 8.8415 18.904H6.8415C6.8415 19.0294 6.862 19.133 6.87767 19.1979C6.89328 19.2626 6.91191 19.3195 6.92282 19.3522C6.94998 19.4337 6.95994 19.4586 6.97598 19.5147L8.89903 18.9653ZM8.8415 18.904V17.992H6.8415V18.904H8.8415ZM8.8415 17.992C8.8415 16.7446 8.81728 15.5049 8.79331 14.2794C8.76928 13.0508 8.7455 11.8366 8.7455 10.624H6.7455C6.7455 11.8594 6.76973 13.0932 6.79369 14.3186C6.81772 15.5471 6.8415 16.7674 6.8415 17.992H8.8415ZM8.7455 10.624C8.7455 9.53886 8.74586 8.5159 8.81529 7.47452L6.81972 7.34148C6.74514 8.4601 6.7455 9.54914 6.7455 10.624H8.7455ZM8.81486 7.48072L8.98286 5.17672L6.98815 5.03128L6.82015 7.33528L8.81486 7.48072ZM8.9855 5.104C8.9855 5.07547 8.99173 5.1953 8.90074 5.33981C8.80953 5.48466 8.70263 5.52522 8.73531 5.51037L7.9077 3.68963C7.67637 3.79478 7.40147 3.96734 7.20827 4.27419C7.01528 4.5807 6.9855 4.89253 6.9855 5.104H8.9855ZM8.74439 5.50618C8.95425 5.40825 9.19071 5.36 9.4495 5.36V3.36C8.9403 3.36 8.40876 3.45575 7.89862 3.69382L8.74439 5.50618ZM9.4495 5.36C9.93529 5.36 10.4085 5.58268 10.7551 6.05536L12.3679 4.87264C11.6585 3.90532 10.5957 3.36 9.4495 3.36V5.36ZM10.7239 6.01027C11.0007 6.43464 11.1753 6.90791 11.2755 7.42885L13.2395 7.05115C13.0997 6.32409 12.8423 5.59736 12.3991 4.91773L10.7239 6.01027ZM11.2711 7.4044C11.4317 8.3677 11.5215 9.32006 11.5215 10.24H13.5215C13.5215 9.19194 13.4193 8.1283 13.2439 7.0756L11.2711 7.4044ZM11.5215 10.24C11.5215 11.9175 11.2721 13.5903 10.8756 15.2932L12.8234 15.7468C13.2429 13.9457 13.5215 12.1145 13.5215 10.24H11.5215ZM10.8765 15.2891C10.617 16.3828 9.92429 17.2084 8.8232 17.7392L9.6918 19.5408C11.2787 18.7756 12.41 17.4892 12.8225 15.7509L10.8765 15.2891ZM8.81029 17.7456C8.61888 17.8413 8.42313 17.9285 8.20503 18.0241C7.99252 18.1173 7.75397 18.2204 7.50942 18.3363L8.36559 20.1437C8.57704 20.0436 8.78248 19.9547 9.00798 19.8559C9.22788 19.7595 9.46413 19.6547 9.70472 19.5344L8.81029 17.7456ZM6.8335 33.272C7.57322 33.272 8.28646 33.2473 9.00282 33.2234L8.93619 31.2246C8.21255 31.2487 7.53379 31.272 6.8335 31.272V33.272ZM9.00437 33.2234C11.3763 33.1407 13.3197 32.0595 14.9444 30.5895L13.6026 29.1065C12.2033 30.3725 10.6907 31.1634 8.93464 31.2246L9.00437 33.2234ZM14.9601 30.575C16.0069 29.5864 16.5799 28.3622 16.7758 26.9626L14.7952 26.6854C14.6551 27.6858 14.2681 28.4776 13.5869 29.121L14.9601 30.575ZM16.7707 26.9953C16.8291 26.6597 16.8919 25.9336 16.939 25.2752C16.9867 24.6069 17.0255 23.9008 17.0255 23.584H15.0255C15.0255 23.8192 14.9923 24.4571 14.944 25.1328C14.8951 25.8184 14.8379 26.4363 14.8003 26.6527L16.7707 26.9953ZM17.0255 23.584C17.0255 22.841 16.9742 22.1218 16.8715 21.4026L14.8916 21.6854C14.9808 22.3102 15.0255 22.935 15.0255 23.584H17.0255ZM16.8752 21.4315C16.6846 19.7484 15.6428 18.5926 14.2342 17.9469L13.4008 19.7651C14.2962 20.1754 14.7904 20.7956 14.8879 21.6565L16.8752 21.4315ZM14.2021 17.9329C13.9882 17.8438 13.7794 17.7873 13.6125 17.744C13.4317 17.6971 13.2932 17.664 13.1318 17.6135L12.5352 19.5225C12.7578 19.592 12.9673 19.6429 13.1105 19.68C13.2676 19.7207 13.3588 19.7482 13.4329 19.7791L14.2021 17.9329ZM13.6973 19.0719C13.9848 18.579 14.4184 17.9307 14.6926 17.2726L12.8464 16.5034C12.6406 16.9973 12.3542 17.405 11.9697 18.0641L13.6973 19.0719ZM14.7137 17.2174C15.1102 16.0808 15.2882 14.9119 15.4327 13.8282L13.4503 13.5638C13.3068 14.6401 13.1488 15.6312 12.8253 16.5586L14.7137 17.2174ZM15.4326 13.8294C15.6035 12.5593 15.7295 11.2625 15.7295 9.976H13.7295C13.7295 11.1375 13.6155 12.3367 13.4504 13.5626L15.4326 13.8294ZM15.7295 9.976C15.7295 8.74595 15.6292 7.49377 15.3452 6.22896L13.3938 6.66704C13.6379 7.75423 13.7295 8.85405 13.7295 9.976H15.7295ZM15.3445 6.22596C15.0333 4.85933 14.4238 3.67913 13.4992 2.78367C12.5712 1.8849 11.3762 1.32214 9.98041 1.11485L9.6866 3.09315C10.7148 3.24586 11.5118 3.6431 12.1078 4.22033C12.7072 4.80087 13.1537 5.61267 13.3945 6.67004L15.3445 6.22596ZM9.98556 1.11563C8.99856 0.963781 7.98771 0.887999 7.0015 0.887999V2.888C7.88729 2.888 8.79645 2.95622 9.68145 3.09237L9.98556 1.11563ZM6.97712 0.888296L5.99312 0.912296L6.04189 2.9117L7.02589 2.8877L6.97712 0.888296ZM5.9538 0.914029C4.72831 0.992252 3.57422 1.2518 2.47184 1.54576L2.98717 3.47823C4.04479 3.1962 5.05069 2.97575 6.0812 2.90997L5.9538 0.914029ZM2.47501 1.54492C1.93198 1.68783 1.39327 1.92082 1.00193 2.37641C0.596747 2.84812 0.473677 3.4114 0.457936 3.9466L2.45707 4.0054C2.46122 3.86445 2.47801 3.78161 2.49236 3.7358C2.5048 3.69611 2.51522 3.68407 2.51907 3.67959C2.52974 3.66717 2.61503 3.57617 2.984 3.47907L2.47501 1.54492ZM0.458427 3.93303C0.364279 6.12198 0.193503 8.43615 0.193503 10.696H2.1935C2.1935 8.49185 2.35873 6.29402 2.45658 4.01897L0.458427 3.93303ZM0.193647 10.7129L0.217647 12.1289L2.21736 12.0951L2.19336 10.6791L0.193647 10.7129ZM0.218282 12.1514C0.2896 13.9582 0.313503 15.7922 0.313503 17.608H2.3135C2.3135 15.7758 2.28941 13.9138 2.21673 12.0726L0.218282 12.1514ZM0.313808 17.5833L0.121808 25.3593L2.1212 25.4087L2.3132 17.6327L0.313808 17.5833ZM0.121503 25.384C0.121503 26.8341 0.170039 28.3041 0.193647 29.6969L2.19336 29.6631C2.16897 28.2239 2.1215 26.8139 2.1215 25.384H0.121503ZM0.193503 29.68C0.193503 30.3674 0.31623 31.5474 1.49029 32.1344L2.38472 30.3456C2.33974 30.3231 2.31893 30.3033 2.30762 30.2905C2.29521 30.2765 2.27867 30.2528 2.26138 30.2091C2.2215 30.1083 2.1935 29.9433 2.1935 29.68H0.193503ZM1.51845 32.148C2.10178 32.4172 2.83502 32.7851 3.67827 32.9818L4.13273 31.0342C3.53599 30.8949 3.02123 30.6388 2.35656 30.332L1.51845 32.148ZM3.68599 32.9836C4.75301 33.2237 5.82316 33.272 6.8335 33.272V31.272C5.87585 31.272 4.978 31.2243 4.12502 31.0324L3.68599 32.9836ZM27.1426 29.32L26.3375 29.9132L26.3426 29.92L27.1426 29.32ZM26.4706 27.832L25.5096 28.1085L25.5134 28.1219L25.5176 28.1352L26.4706 27.832ZM25.0306 15.544L26.0278 15.6179L26.0287 15.6068L26.0292 15.5957L25.0306 15.544ZM26.0386 7.288L25.07 7.03895L25.0679 7.04749L26.0386 7.288ZM27.0466 4.912L27.853 5.50336L27.853 5.50336L27.0466 4.912ZM29.1346 5.032L30.029 4.58479L30.01 4.54679L29.9878 4.51055L29.1346 5.032ZM29.3266 5.464L30.2765 5.15152L30.2752 5.14777L29.3266 5.464ZM31.3186 16.936L32.3181 16.9676L32.3186 16.9518V16.936H31.3186ZM29.5186 27.952L30.4673 28.2682L30.4698 28.2605L29.5186 27.952ZM29.0146 29.2L29.8908 29.6819L29.8946 29.6749L29.8984 29.6679L29.0146 29.2ZM25.9426 32.272L25.9312 33.272H25.9426V32.272ZM28.3186 32.128L28.1826 31.1372L28.1688 31.1393L28.3186 32.128ZM31.0066 30.184L30.1121 29.7368L30.1064 29.7484L30.1009 29.7601L31.0066 30.184ZM31.6066 28.672L30.6561 28.3611L30.6536 28.3688L31.6066 28.672ZM33.5506 16.72L34.55 16.7545L34.5506 16.7372V16.72H33.5506ZM33.3586 13.36L32.3633 13.4571L32.3635 13.4595L33.3586 13.36ZM31.4386 4.768L30.4844 5.06734L30.4851 5.06952L31.4386 4.768ZM29.0626 2.344L28.7817 3.30374L28.7854 3.30482L29.0626 2.344ZM23.4466 2.104L23.5233 3.10107L23.5296 3.10054L23.4466 2.104ZM22.0066 2.944L22.7623 3.59893L22.7751 3.58406L22.7874 3.56869L22.0066 2.944ZM20.0866 6.664L19.1174 6.41759L19.1154 6.42547L20.0866 6.664ZM18.9826 15.016L19.9807 15.0765L19.9808 15.0752L18.9826 15.016ZM20.4946 28.552L19.5345 28.8318L19.5355 28.8353L20.4946 28.552ZM22.0546 31.384L21.3581 32.1016L21.3649 32.1081L22.0546 31.384ZM23.8306 32.248L23.8419 31.248H23.8306V32.248ZM28.0786 28.92C28.1564 28.92 28.1793 28.9465 28.1415 28.9223C28.1036 28.898 28.0314 28.8385 27.9426 28.72L26.3426 29.92C26.714 30.4152 27.31 30.92 28.0786 30.92V28.92ZM27.9476 28.7268C27.7217 28.4202 27.5946 28.0665 27.4235 27.5288L25.5176 28.1352C25.6826 28.6535 25.8914 29.3078 26.3375 29.9132L27.9476 28.7268ZM27.4316 27.5555C26.4954 24.3022 25.9826 21.0112 25.9826 17.464H23.9826C23.9826 21.2128 24.5258 24.6898 25.5096 28.1085L27.4316 27.5555ZM25.9826 17.464C25.9826 16.8106 25.983 16.2231 26.0278 15.6179L24.0333 15.4701C23.9821 16.1609 23.9826 16.8214 23.9826 17.464H25.9826ZM26.0292 15.5957C26.1732 12.813 26.3625 10.1384 27.0092 7.52851L25.0679 7.04749C24.3706 9.86162 24.176 12.707 24.0319 15.4923L26.0292 15.5957ZM27.0071 7.53704C27.2161 6.72409 27.4426 6.06294 27.853 5.50336L26.2402 4.32064C25.5945 5.20106 25.293 6.17191 25.0701 7.03896L27.0071 7.53704ZM27.853 5.50336C27.9239 5.40668 28.005 5.384 28.0546 5.384V3.384C27.3841 3.384 26.6973 3.69731 26.2402 4.32064L27.853 5.50336ZM28.0546 5.384C28.0804 5.384 28.1114 5.39044 28.1464 5.41079C28.1809 5.43079 28.2312 5.47142 28.2813 5.55345L29.9878 4.51055C29.5543 3.80105 28.8335 3.384 28.0546 3.384V5.384ZM28.2401 5.47921C28.3189 5.63674 28.3564 5.71585 28.3779 5.78023L30.2752 5.14777C30.2007 4.92415 30.0942 4.71525 30.029 4.58479L28.2401 5.47921ZM28.3766 5.77648C29.5547 9.35763 30.3186 12.9448 30.3186 16.768H32.3186C32.3186 12.6712 31.4985 8.86637 30.2765 5.15152L28.3766 5.77648ZM30.3186 16.768V16.936H32.3186V16.768H30.3186ZM30.3191 16.9044C30.2014 20.6242 29.6842 24.1998 28.5673 27.6435L30.4698 28.2605C31.6569 24.6002 32.1958 20.8318 32.3181 16.9676L30.3191 16.9044ZM28.5699 27.6358C28.4275 28.0628 28.3051 28.4028 28.1308 28.7321L29.8984 29.6679C30.156 29.1812 30.3216 28.7052 30.4672 28.2682L28.5699 27.6358ZM28.1384 28.7181C28.056 28.8678 27.9908 28.927 27.9712 28.9418C27.9577 28.952 27.9966 28.92 28.0786 28.92V30.92C28.9366 30.92 29.5428 30.3145 29.8908 29.6819L28.1384 28.7181ZM25.9426 33.272C26.7506 33.272 27.6018 33.248 28.4684 33.1167L28.1688 31.1393C27.4514 31.248 26.7185 31.272 25.9426 31.272V33.272ZM28.4545 33.1187C29.9936 32.9075 31.2317 32.062 31.9123 30.6079L30.1009 29.7601C29.7255 30.562 29.0915 31.0125 28.1826 31.1373L28.4545 33.1187ZM31.901 30.6312C32.1706 30.092 32.3808 29.5369 32.5595 28.9752L30.6536 28.3688C30.4964 28.8631 30.3226 29.316 30.1121 29.7368L31.901 30.6312ZM32.557 28.9828C33.8419 25.054 34.4037 20.9961 34.55 16.7545L32.5512 16.6855C32.4094 20.7959 31.8672 24.658 30.6561 28.3612L32.557 28.9828ZM34.5506 16.72V16.192H32.5506V16.72H34.5506ZM34.5506 16.192C34.5506 15.1968 34.4485 14.2091 34.3536 13.2605L32.3635 13.4595C32.4607 14.4309 32.5506 15.3152 32.5506 16.192H34.5506ZM34.3538 13.2629C34.056 10.2098 33.2886 7.3015 32.392 4.46648L30.4851 5.06952C31.3646 7.8505 32.0852 10.6062 32.3633 13.4571L34.3538 13.2629ZM32.3927 4.46866C31.9242 2.97542 30.9581 1.85002 29.3397 1.38318L28.7854 3.30482C29.663 3.55798 30.1849 4.11258 30.4844 5.06734L32.3927 4.46866ZM29.3435 1.38426C28.2407 1.0615 27.1319 0.959999 26.0626 0.959999V2.96C27.0092 2.96 27.9164 3.0505 28.7817 3.30374L29.3435 1.38426ZM26.0626 0.959999C25.1263 0.959999 24.2213 1.03597 23.3635 1.10745L23.5296 3.10054C24.3998 3.02803 25.2228 2.96 26.0626 2.96V0.959999ZM23.3699 1.10694C22.3823 1.18291 21.7191 1.70258 21.2257 2.3193L22.7874 3.56869C23.0621 3.22542 23.2628 3.12109 23.5233 3.10105L23.3699 1.10694ZM21.2509 2.28907C20.2073 3.4932 19.5136 4.85913 19.1174 6.4176L21.0557 6.9104C21.3795 5.63687 21.9338 4.5548 22.7623 3.59893L21.2509 2.28907ZM19.1154 6.42547C18.4215 9.25094 18.1534 12.1072 17.9843 14.9568L19.9808 15.0752C20.1478 12.2608 20.4077 9.54906 21.0577 6.90252L19.1154 6.42547ZM17.9844 14.9555C17.9352 15.767 17.9106 16.5552 17.9106 17.368H19.9106C19.9106 16.5968 19.9339 15.849 19.9807 15.0765L17.9844 14.9555ZM17.9106 17.368C17.9106 21.3742 18.4519 25.1164 19.5345 28.8318L21.4546 28.2722C20.4252 24.7396 19.9106 21.1858 19.9106 17.368H17.9106ZM19.5355 28.8353C19.8689 29.9635 20.3641 31.1369 21.3581 32.1016L22.751 30.6664C22.113 30.0471 21.7443 29.2525 21.4536 28.2687L19.5355 28.8353ZM21.3649 32.1081C21.9229 32.6395 22.7162 33.248 23.8306 33.248V31.248C23.5049 31.248 23.1942 31.0885 22.7442 30.6599L21.3649 32.1081ZM23.8192 33.2479L25.9312 33.2719L25.9539 31.2721L23.8419 31.2481L23.8192 33.2479ZM44.6738 29.32L43.8687 29.9132L43.8738 29.92L44.6738 29.32ZM44.0018 27.832L43.0408 28.1085L43.0447 28.1219L43.0489 28.1352L44.0018 27.832ZM42.5618 15.544L43.5591 15.6179L43.5599 15.6068L43.5605 15.5957L42.5618 15.544ZM43.5698 7.288L42.6013 7.03895L42.5992 7.04749L43.5698 7.288ZM44.5778 4.912L45.3842 5.50336L45.3842 5.50336L44.5778 4.912ZM46.6658 5.032L47.5602 4.58479L47.5412 4.54679L47.5191 4.51055L46.6658 5.032ZM46.8578 5.464L47.8077 5.15152L47.8065 5.14777L46.8578 5.464ZM48.8498 16.936L49.8493 16.9676L49.8498 16.9518V16.936H48.8498ZM47.0498 27.952L47.9985 28.2682L48.001 28.2605L47.0498 27.952ZM46.5458 29.2L47.422 29.6819L47.4259 29.6749L47.4296 29.6679L46.5458 29.2ZM43.4738 32.272L43.4625 33.272H43.4738V32.272ZM45.8498 32.128L45.7138 31.1372L45.7 31.1393L45.8498 32.128ZM48.5378 30.184L47.6434 29.7368L47.6376 29.7484L47.6321 29.7601L48.5378 30.184ZM49.1378 28.672L48.1873 28.3611L48.1849 28.3688L49.1378 28.672ZM51.0818 16.72L52.0812 16.7545L52.0818 16.7372V16.72H51.0818ZM50.8898 13.36L49.8945 13.4571L49.8948 13.4595L50.8898 13.36ZM48.9698 4.768L48.0157 5.06734L48.0164 5.06952L48.9698 4.768ZM46.5938 2.344L46.3129 3.30374L46.3167 3.30482L46.5938 2.344ZM40.9778 2.104L41.0545 3.10107L41.0609 3.10054L40.9778 2.104ZM39.5378 2.944L40.2935 3.59893L40.3064 3.58406L40.3187 3.56869L39.5378 2.944ZM37.6178 6.664L36.6486 6.41759L36.6467 6.42547L37.6178 6.664ZM36.5138 15.016L37.512 15.0765L37.5121 15.0752L36.5138 15.016ZM38.0258 28.552L37.0657 28.8318L37.0668 28.8353L38.0258 28.552ZM39.5858 31.384L38.8893 32.1016L38.8962 32.1081L39.5858 31.384ZM41.3618 32.248L41.3732 31.248H41.3618V32.248ZM45.6098 28.92C45.6877 28.92 45.7105 28.9465 45.6728 28.9223C45.6349 28.898 45.5627 28.8385 45.4738 28.72L43.8738 29.92C44.2452 30.4152 44.8412 30.92 45.6098 30.92V28.92ZM45.4789 28.7268C45.253 28.4202 45.1258 28.0665 44.9547 27.5288L43.0489 28.1352C43.2138 28.6535 43.4227 29.3078 43.8688 29.9132L45.4789 28.7268ZM44.9628 27.5555C44.0266 24.3022 43.5138 21.0112 43.5138 17.464H41.5138C41.5138 21.2128 42.057 24.6898 43.0408 28.1085L44.9628 27.5555ZM43.5138 17.464C43.5138 16.8106 43.5143 16.2231 43.5591 15.6179L41.5645 15.4701C41.5134 16.1609 41.5138 16.8214 41.5138 17.464H43.5138ZM43.5605 15.5957C43.7044 12.813 43.8938 10.1384 44.5405 7.52851L42.5992 7.04749C41.9019 9.86162 41.7072 12.707 41.5632 15.4923L43.5605 15.5957ZM44.5383 7.53704C44.7474 6.72409 44.9739 6.06294 45.3842 5.50336L43.7714 4.32064C43.1258 5.20106 42.8243 6.17191 42.6013 7.03896L44.5383 7.53704ZM45.3842 5.50336C45.4551 5.40668 45.5363 5.384 45.5858 5.384V3.384C44.9154 3.384 44.2285 3.69731 43.7714 4.32064L45.3842 5.50336ZM45.5858 5.384C45.6116 5.384 45.6426 5.39044 45.6777 5.41079C45.7121 5.43079 45.7624 5.47142 45.8125 5.55345L47.5191 4.51055C47.0855 3.80105 46.3647 3.384 45.5858 3.384V5.384ZM45.7714 5.47921C45.8502 5.63674 45.8877 5.71585 45.9091 5.78023L47.8065 5.14777C47.732 4.92415 47.6255 4.71525 47.5602 4.58479L45.7714 5.47921ZM45.9079 5.77648C47.0859 9.35763 47.8498 12.9448 47.8498 16.768H49.8498C49.8498 12.6712 49.0297 8.86637 47.8077 5.15152L45.9079 5.77648ZM47.8498 16.768V16.936H49.8498V16.768H47.8498ZM47.8503 16.9044C47.7326 20.6242 47.2155 24.1998 46.0986 27.6435L48.001 28.2605C49.1882 24.6002 49.727 20.8318 49.8493 16.9676L47.8503 16.9044ZM46.1011 27.6358C45.9588 28.0628 45.8364 28.4028 45.662 28.7321L47.4296 29.6679C47.6873 29.1812 47.8528 28.7052 47.9985 28.2682L46.1011 27.6358ZM45.6696 28.7181C45.5872 28.8678 45.5221 28.927 45.5024 28.9418C45.489 28.952 45.5278 28.92 45.6098 28.92V30.92C46.4679 30.92 47.0741 30.3145 47.422 29.6819L45.6696 28.7181ZM43.4738 33.272C44.2819 33.272 45.133 33.248 45.9996 33.1167L45.7 31.1393C44.9826 31.248 44.2497 31.272 43.4738 31.272V33.272ZM45.9858 33.1187C47.5248 32.9075 48.7629 32.062 49.4435 30.6079L47.6321 29.7601C47.2567 30.562 46.6228 31.0125 45.7138 31.1373L45.9858 33.1187ZM49.4322 30.6312C49.7018 30.092 49.912 29.5369 50.0907 28.9752L48.1849 28.3688C48.0276 28.8631 47.8538 29.316 47.6434 29.7368L49.4322 30.6312ZM50.0883 28.9828C51.3732 25.054 51.935 20.9961 52.0812 16.7545L50.0824 16.6855C49.9407 20.7959 49.3985 24.658 48.1874 28.3612L50.0883 28.9828ZM52.0818 16.72V16.192H50.0818V16.72H52.0818ZM52.0818 16.192C52.0818 15.1968 51.9797 14.2091 51.8849 13.2605L49.8948 13.4595C49.9919 14.4309 50.0818 15.3152 50.0818 16.192H52.0818ZM51.8851 13.2629C51.5872 10.2098 50.8198 7.3015 49.9233 4.46648L48.0164 5.06952C48.8958 7.8505 49.6164 10.6062 49.8945 13.4571L51.8851 13.2629ZM49.924 4.46866C49.4555 2.97542 48.4894 1.85002 46.871 1.38318L46.3167 3.30482C47.1943 3.55798 47.7161 4.11258 48.0157 5.06734L49.924 4.46866ZM46.8747 1.38426C45.7719 1.0615 44.6632 0.959999 43.5938 0.959999V2.96C44.5405 2.96 45.4477 3.0505 46.3129 3.30374L46.8747 1.38426ZM43.5938 0.959999C42.6575 0.959999 41.7526 1.03597 40.8948 1.10745L41.0609 3.10054C41.9311 3.02803 42.7541 2.96 43.5938 2.96V0.959999ZM40.9011 1.10694C39.9136 1.18291 39.2503 1.70258 38.7569 2.3193L40.3187 3.56869C40.5933 3.22542 40.7941 3.12109 41.0545 3.10105L40.9011 1.10694ZM38.7821 2.28907C37.7385 3.4932 37.0449 4.85913 36.6486 6.4176L38.587 6.9104C38.9108 5.63687 39.4651 4.5548 40.2935 3.59893L38.7821 2.28907ZM36.6467 6.42547C35.9527 9.25094 35.6846 12.1072 35.5156 14.9568L37.5121 15.0752C37.679 12.2608 37.9389 9.54906 38.589 6.90252L36.6467 6.42547ZM35.5156 14.9555C35.4665 15.767 35.4418 16.5552 35.4418 17.368H37.4418C37.4418 16.5968 37.4652 15.849 37.512 15.0765L35.5156 14.9555ZM35.4418 17.368C35.4418 21.3742 35.9831 25.1164 37.0657 28.8318L38.9859 28.2722C37.9565 24.7396 37.4418 21.1858 37.4418 17.368H35.4418ZM37.0668 28.8353C37.4001 29.9635 37.8954 31.1369 38.8893 32.1016L40.2823 30.6664C39.6443 30.0471 39.2755 29.2525 38.9848 28.2687L37.0668 28.8353ZM38.8962 32.1081C39.4541 32.6395 40.2475 33.248 41.3618 33.248V31.248C41.0362 31.248 40.7255 31.0885 40.2755 30.6599L38.8962 32.1081ZM41.3505 33.2479L43.4625 33.2719L43.4852 31.2721L41.3732 31.2481L41.3505 33.2479ZM58.1731 32.272L58.1635 33.272H58.1731V32.272ZM59.9971 32.248L59.9685 31.2483L59.9571 31.2488L59.9971 32.248ZM61.2211 30.976L62.2195 31.0315L62.2211 31.0038V30.976H61.2211ZM61.0531 27.328L62.0492 27.2395L62.0484 27.2317L61.0531 27.328ZM60.9571 23.824L61.7824 23.2593L60.1217 20.8322L59.9586 23.7685L60.9571 23.824ZM61.6531 24.856L62.5439 24.4017L62.5388 24.3917L62.5335 24.3819L61.6531 24.856ZM65.2531 30.52L64.4474 31.1124L64.4569 31.1253L64.4667 31.1378L65.2531 30.52ZM67.1491 32.104L66.7246 33.0095L66.7398 33.0166L66.7551 33.0231L67.1491 32.104ZM68.5171 31.744L67.7033 31.1628L67.694 31.1759L67.685 31.1893L68.5171 31.744ZM68.3011 30.28L68.9737 29.5401L68.9578 29.5256L68.9413 29.5118L68.3011 30.28ZM67.8451 29.944L67.2904 30.776L67.319 30.7952L67.3489 30.8122L67.8451 29.944ZM67.0771 29.224L67.8771 28.624L67.8722 28.6175L67.8673 28.6112L67.0771 29.224ZM61.9411 21.112L61.0669 21.5977L61.07 21.6032L61.9411 21.112ZM61.8691 20.032L60.9487 19.6409L60.9403 19.6607L60.9327 19.6809L61.8691 20.032ZM67.7491 4.024L68.6776 4.39542L68.6824 4.38298L67.7491 4.024ZM67.2931 2.032L66.9217 2.96052L66.9306 2.964L67.2931 2.032ZM66.0211 2.464L65.2073 1.88276L65.1841 1.91526L65.1636 1.94951L66.0211 2.464ZM65.6611 3.256L64.7507 2.8422L64.7412 2.86319L64.7326 2.88461L65.6611 3.256ZM61.1491 15.592L60.201 15.274L60.2004 15.2758L61.1491 15.592ZM60.7651 16.288H59.7651V18.5612L61.4408 17.0252L60.7651 16.288ZM60.7651 15.688L61.7651 15.688L61.765 15.6818L60.7651 15.688ZM60.7171 3.328L61.713 3.23746L61.7118 3.22429L61.7102 3.21116L60.7171 3.328ZM59.4451 2.008L59.3487 3.00338L59.3572 3.00413L59.4451 2.008ZM55.1251 2.008L55.0222 1.01325L55.0115 1.01447L55.1251 2.008ZM54.0451 13.072H55.0451V13.0647L55.045 13.0574L54.0451 13.072ZM53.9731 20.464L52.9732 20.4497L52.9727 20.4812L52.9743 20.5127L53.9731 20.464ZM54.4771 30.808H55.4771V30.7837L55.4759 30.7593L54.4771 30.808ZM54.5491 31.288L55.5235 31.0631L55.5177 31.038L55.5106 31.0133L54.5491 31.288ZM55.6771 32.248L55.6867 31.248H55.6771V32.248ZM58.1731 33.272C58.7693 33.272 59.4136 33.2721 60.037 33.2472L59.9571 31.2488C59.3805 31.2719 58.7768 31.272 58.1731 31.272V33.272ZM60.0256 33.2476C60.5782 33.2318 61.1823 33.0921 61.634 32.6127C62.068 32.152 62.1905 31.5542 62.2195 31.0315L60.2226 30.9205C60.2137 31.0808 60.1933 31.1756 60.1768 31.2264C60.1619 31.2721 60.156 31.2648 60.1782 31.2413C60.2398 31.1759 60.2559 31.2402 59.9685 31.2484L60.0256 33.2476ZM62.2211 30.976V30.592H60.2211V30.976H62.2211ZM62.2211 30.592C62.2211 29.47 62.1464 28.3332 62.0491 27.2395L60.057 27.4165C60.1518 28.4828 60.2211 29.554 60.2211 30.592H62.2211ZM62.0484 27.2317C61.9786 26.51 61.9331 25.7994 61.9331 25.024H59.9331C59.9331 25.8806 59.9836 26.658 60.0577 27.4243L62.0484 27.2317ZM61.9331 25.024C61.9331 24.6379 61.9333 24.28 61.9555 23.8795L59.9586 23.7685C59.9329 24.232 59.9331 24.6421 59.9331 25.024H61.9331ZM60.1318 24.3887C60.5048 24.9339 60.6371 25.0785 60.7726 25.3301L62.5335 24.3819C62.333 24.0095 62.0334 23.6261 61.7824 23.2593L60.1318 24.3887ZM60.7622 25.3103C62.0244 27.7852 63.24 29.4704 64.4474 31.1124L66.0587 29.9276C64.8661 28.3056 63.7297 26.7268 62.5439 24.4017L60.7622 25.3103ZM64.4667 31.1378C65.0582 31.8906 65.7737 32.5637 66.7246 33.0095L67.5735 31.1985C66.9885 30.9243 66.5039 30.4934 66.0394 29.9022L64.4667 31.1378ZM66.7551 33.0231C66.9756 33.1176 67.2886 33.224 67.6291 33.224V31.224C67.648 31.224 67.6591 31.2255 67.6611 31.2258C67.6631 31.2261 67.6593 31.2257 67.649 31.223C67.6273 31.2174 67.5918 31.2058 67.543 31.1849L66.7551 33.0231ZM67.6291 33.224C68.3394 33.224 68.9807 32.8513 69.3491 32.2987L67.685 31.1893C67.6805 31.1961 67.6702 31.207 67.6548 31.2154C67.6403 31.2234 67.6308 31.224 67.6291 31.224V33.224ZM69.3308 32.3252C69.5697 31.9908 69.7091 31.5723 69.7091 31.144H67.7091C67.7091 31.1426 67.7092 31.1431 67.7088 31.1454C67.7084 31.1476 67.7077 31.1507 67.7066 31.1542C67.7055 31.1577 67.7043 31.1606 67.7033 31.1625C67.7023 31.1645 67.702 31.1646 67.7033 31.1628L69.3308 32.3252ZM69.7091 31.144C69.7091 30.5185 69.4215 29.9471 68.9737 29.5401L67.6284 31.0199C67.6679 31.0558 67.6886 31.0882 67.6988 31.1099C67.7089 31.1314 67.7091 31.1429 67.7091 31.144H69.7091ZM68.9413 29.5118C68.8071 29.4 68.5978 29.2224 68.3412 29.0758L67.3489 30.8122C67.4284 30.8576 67.507 30.92 67.6609 31.0482L68.9413 29.5118ZM68.3998 29.112C68.1964 28.9764 68.0184 28.8125 67.8771 28.624L66.2771 29.824C66.5677 30.2115 66.9177 30.5276 67.2904 30.776L68.3998 29.112ZM67.8673 28.6112C66.0926 26.3227 64.6117 23.812 62.8121 20.6208L61.07 21.6032C62.8704 24.796 64.4135 27.4213 66.2868 29.8368L67.8673 28.6112ZM62.8152 20.6264C62.7908 20.5825 62.7739 20.5499 62.7616 20.5245C62.7496 20.4993 62.7443 20.4857 62.7425 20.4806C62.7409 20.4761 62.7429 20.4809 62.7452 20.4928C62.7475 20.5053 62.7491 20.5204 62.7491 20.536H60.7491C60.7491 20.9979 60.9326 21.356 61.0669 21.5976L62.8152 20.6264ZM62.7491 20.536C62.7491 20.5713 62.7437 20.5785 62.7522 20.5445C62.7604 20.5116 62.7763 20.4607 62.8054 20.3831L60.9327 19.6809C60.8555 19.8869 60.7491 20.1993 60.7491 20.536H62.7491ZM62.7894 20.4231C63.2051 19.445 63.5993 18.4355 63.9457 17.3962L62.0484 16.7638C61.7228 17.7405 61.349 18.699 60.9487 19.6409L62.7894 20.4231ZM63.9457 17.3962C65.3093 13.3057 66.9106 8.81282 68.6775 4.39539L66.8206 3.65261C65.0356 8.11518 63.4209 12.6463 62.0484 16.7638L63.9457 17.3962ZM68.6824 4.38298C68.7829 4.12164 68.9891 3.64714 68.9891 3.088H66.9891C66.9891 3.20086 66.9552 3.30236 66.8157 3.66502L68.6824 4.38298ZM68.9891 3.088C68.9891 2.19106 68.4897 1.42441 67.6555 1.09999L66.9306 2.964C66.9503 2.97167 66.9604 2.9787 66.9644 2.98188C66.9683 2.98492 66.9699 2.98695 66.971 2.9887C66.9722 2.99051 66.9761 2.9967 66.98 3.01046C66.9841 3.0245 66.9891 3.04953 66.9891 3.088H68.9891ZM67.6645 1.10353C67.3427 0.97481 67.0388 0.983999 66.9571 0.983999V2.984C66.9696 2.984 66.9783 2.984 66.9868 2.98407C66.9948 2.98412 67.0006 2.98423 67.005 2.98435C67.0141 2.98461 67.0152 2.9849 67.0114 2.9845C67.0035 2.98368 66.9689 2.97936 66.9217 2.96047L67.6645 1.10353ZM66.9571 0.983999C66.3034 0.983999 65.6515 1.26097 65.2073 1.88276L66.8348 3.04524C66.85 3.02397 66.8619 3.01239 66.8687 3.00651C66.8755 3.0007 66.8805 2.99772 66.8845 2.99579C66.8908 2.99269 66.9114 2.984 66.9571 2.984V0.983999ZM65.1636 1.94951C65.0543 2.13158 64.9724 2.31608 64.9108 2.46203C64.839 2.63213 64.8041 2.72465 64.7507 2.8422L66.5714 3.6698C66.638 3.52335 66.7111 3.33986 66.7533 3.23997C66.8057 3.11592 66.8438 3.03642 66.8786 2.97849L65.1636 1.94951ZM64.7326 2.88461C63.0442 7.10554 61.5017 11.3958 60.201 15.274L62.0972 15.91C63.3884 12.0602 64.9179 7.80646 66.5895 3.62739L64.7326 2.88461ZM60.2004 15.2758C60.1864 15.3177 60.1746 15.3565 60.1657 15.3864C60.1554 15.4208 60.1504 15.4379 60.1436 15.4602C60.1317 15.4985 60.1268 15.5102 60.1252 15.5136C60.125 15.5143 60.126 15.5125 60.1258 15.5128C60.1249 15.5139 60.1157 15.5267 60.0893 15.5508L61.4408 17.0252C61.9637 16.5458 62.0592 16.024 62.0977 15.9082L60.2004 15.2758ZM61.7651 16.288V15.688H59.7651V16.288H61.7651ZM61.765 15.6818C61.7411 11.7974 61.7411 7.88849 61.7411 4.168H59.7411C59.7411 7.88751 59.7411 11.8026 59.7651 15.6942L61.765 15.6818ZM61.7411 4.168C61.7411 3.9153 61.7419 3.55533 61.713 3.23746L59.7212 3.41853C59.7403 3.62867 59.7411 3.8927 59.7411 4.168H61.7411ZM61.7102 3.21116C61.6495 2.69499 61.4894 2.14388 61.0828 1.7074C60.661 1.25459 60.1038 1.06223 59.533 1.01187L59.3572 3.00413C59.4823 3.01517 59.5518 3.03686 59.5854 3.05103C59.6015 3.05786 59.6099 3.06316 59.6132 3.06546C59.6164 3.06763 59.6179 3.0691 59.6193 3.0706C59.6208 3.07212 59.6886 3.14501 59.7239 3.44484L61.7102 3.21116ZM59.5414 1.01265C58.755 0.936547 57.9528 0.911998 57.1891 0.911998V2.912C57.9134 2.912 58.6471 2.93545 59.3487 3.00335L59.5414 1.01265ZM57.1891 0.911998C56.4698 0.911998 55.7618 0.936791 55.0222 1.01331L55.228 3.00269C55.8803 2.93521 56.5164 2.912 57.1891 2.912V0.911998ZM55.0115 1.01447C54.4597 1.07753 53.8734 1.2673 53.4642 1.78059C53.0753 2.26835 52.9971 2.86552 52.9971 3.376H54.9971C54.9971 3.21063 55.0114 3.10986 55.0256 3.05272C55.0386 3.00061 55.0466 3.00406 55.028 3.0274C54.9727 3.0967 54.9505 3.03446 55.2386 3.00153L55.0115 1.01447ZM52.9971 3.376C52.9971 6.47086 52.997 9.79011 53.0452 13.0866L55.045 13.0574C54.9971 9.77789 54.9971 6.47314 54.9971 3.376H52.9971ZM53.0451 13.072V13.696H55.0451V13.072H53.0451ZM53.0451 13.696C53.0451 14.5527 53.0272 16.2382 53.0091 17.7158C53.0001 18.4532 52.9912 19.1368 52.9844 19.636C52.981 19.8856 52.9782 20.0891 52.9763 20.2301C52.9753 20.3006 52.9745 20.3556 52.974 20.3929C52.9737 20.4115 52.9735 20.4257 52.9734 20.4353C52.9733 20.4401 52.9733 20.4437 52.9732 20.4461C52.9732 20.4473 52.9732 20.4482 52.9732 20.4488C52.9732 20.4491 52.9732 20.4493 52.9732 20.4495C52.9732 20.4496 52.9732 20.4496 52.9732 20.4497C52.9732 20.4497 52.9732 20.4497 53.9731 20.464C54.973 20.4783 54.973 20.4783 54.973 20.4782C54.973 20.4782 54.973 20.4781 54.973 20.478C54.973 20.4779 54.973 20.4777 54.973 20.4773C54.973 20.4767 54.973 20.4758 54.973 20.4746C54.9731 20.4721 54.9731 20.4685 54.9732 20.4637C54.9733 20.4541 54.9735 20.4398 54.9738 20.4211C54.9743 20.3837 54.9751 20.3287 54.9761 20.258C54.978 20.1167 54.9808 19.9129 54.9842 19.663C54.991 19.1632 55 18.4788 55.009 17.7402C55.027 16.2658 55.0451 14.5673 55.0451 13.696H53.0451ZM52.9743 20.5127L53.4783 30.8567L55.4759 30.7593L54.9719 20.4153L52.9743 20.5127ZM53.4771 30.808C53.4771 31.0553 53.517 31.3159 53.5875 31.5627L55.5106 31.0133C55.4851 30.9241 55.4771 30.8487 55.4771 30.808H53.4771ZM53.5747 31.5129C53.6736 31.9416 53.8672 32.402 54.2612 32.7508C54.6706 33.1132 55.174 33.248 55.6771 33.248V31.248C55.6005 31.248 55.5667 31.238 55.5614 31.2362C55.5596 31.2356 55.5724 31.2404 55.5869 31.2532C55.6149 31.278 55.5685 31.2584 55.5235 31.0631L53.5747 31.5129ZM55.6675 33.248L58.1635 33.272L58.1827 31.272L55.6867 31.248L55.6675 33.248ZM80.1181 32.2L80.1551 31.2007L80.1366 31.2H80.1181V32.2ZM85.9741 32.128L86.0295 33.1265L86.0374 33.126L86.0453 33.1255L85.9741 32.128ZM87.1021 31.168L88.0983 31.2546L88.1021 31.2114V31.168H87.1021ZM86.2141 29.944L86.5052 28.9873L86.4811 28.98L86.4566 28.9739L86.2141 29.944ZM84.7021 29.92L84.8929 30.9016L84.906 30.8991L84.919 30.8962L84.7021 29.92ZM79.5901 30.04L79.3731 31.0162L79.3805 31.0178L79.5901 30.04ZM79.0381 29.824L79.7974 29.1732L79.7906 29.1655L79.0381 29.824ZM78.8461 29.08L77.8464 29.055L77.8461 29.0675V29.08H78.8461ZM78.8701 28.12L79.8698 28.145L79.8706 28.111L79.8691 28.077L78.8701 28.12ZM78.5341 21.424L79.5336 21.3918L79.5334 21.3883L78.5341 21.424ZM78.4381 11.728L77.4387 11.6923L77.4381 11.7101V11.728H78.4381ZM78.6061 3.664L79.6046 3.71749L79.6061 3.69077V3.664H78.6061ZM78.6061 3.184H79.6061V3.11975L79.5978 3.05603L78.6061 3.184ZM74.2861 1.936V0.935999H74.2704L74.2548 0.936487L74.2861 1.936ZM73.5181 1.96L73.4868 0.960487L73.4766 0.960806L73.4664 0.961334L73.5181 1.96ZM71.7901 3.664L72.7892 3.70607L72.7895 3.69906L71.7901 3.664ZM71.5981 17.368L70.5981 17.3627V17.368H71.5981ZM73.6141 33.248C74.6529 33.248 75.6847 33.2359 76.7068 33.2239C77.7308 33.2119 78.7449 33.2 79.7581 33.2V31.2C78.7312 31.2 77.7053 31.2121 76.6833 31.2241C75.6594 31.2361 74.6392 31.248 73.6141 31.248V33.248ZM79.7581 33.2H80.1181V31.2H79.7581V33.2ZM80.0811 33.1993C80.7507 33.2241 81.4415 33.224 82.0861 33.224V31.224C81.4346 31.224 80.7814 31.2239 80.1551 31.2007L80.0811 33.1993ZM82.0861 33.224C83.3939 33.224 84.7094 33.1998 86.0295 33.1265L85.9186 31.1295C84.6467 31.2002 83.3702 31.224 82.0861 31.224V33.224ZM86.0453 33.1255C86.5392 33.0902 87.0309 32.9331 87.4238 32.5954C87.8292 32.247 88.0535 31.7703 88.0983 31.2546L86.1058 31.0814C86.1037 31.1059 86.0995 31.1093 86.1038 31.1005C86.1086 31.0908 86.1158 31.0824 86.1203 31.0786C86.1293 31.0709 86.081 31.1178 85.9028 31.1305L86.0453 33.1255ZM88.1021 31.168V31.072H86.1021V31.168H88.1021ZM88.1021 31.072C88.1021 30.0589 87.4336 29.2699 86.5052 28.9873L85.9229 30.9007C86.0232 30.9312 86.0644 30.9725 86.0783 30.9903C86.0903 31.0056 86.1021 31.0272 86.1021 31.072H88.1021ZM86.4566 28.9739C86.0718 28.8777 85.7236 28.848 85.3741 28.848V30.848C85.6005 30.848 85.7803 30.8663 85.9715 30.9141L86.4566 28.9739ZM85.3741 28.848C85.0633 28.848 84.7745 28.8795 84.4851 28.9438L84.919 30.8962C85.0616 30.8645 85.2048 30.848 85.3741 30.848V28.848ZM84.5112 28.9384C83.7469 29.087 82.9636 29.112 82.0861 29.112V31.112C82.9845 31.112 83.9292 31.089 84.8929 30.9016L84.5112 28.9384ZM82.0861 29.112H80.6701V31.112H82.0861V29.112ZM80.6701 29.112C80.3072 29.112 80.012 29.1077 79.7996 29.0622L79.3805 31.0178C79.8401 31.1163 80.361 31.112 80.6701 31.112V29.112ZM79.807 29.0638C79.7651 29.0545 79.7266 29.047 79.6948 29.041C79.679 29.038 79.6638 29.0353 79.6507 29.0329C79.6368 29.0303 79.6259 29.0284 79.615 29.0263C79.5933 29.0223 79.5804 29.0198 79.5712 29.0178C79.5624 29.0158 79.5616 29.0154 79.5659 29.0167C79.5748 29.0192 79.6118 29.0307 79.66 29.0589C79.6842 29.0731 79.7091 29.0903 79.7335 29.1106C79.758 29.1309 79.7793 29.1521 79.7973 29.1732L78.2788 30.4748C78.5132 30.7483 78.7894 30.8738 79.0083 30.9373C79.1059 30.9657 79.1963 30.9828 79.2509 30.9929C79.3183 31.0054 79.342 31.0093 79.3731 31.0162L79.807 29.0638ZM79.7906 29.1655C79.817 29.1956 79.8348 29.2256 79.8457 29.2493C79.856 29.2717 79.858 29.2837 79.8569 29.2785C79.8556 29.2726 79.8524 29.2548 79.8499 29.2195C79.8474 29.1841 79.8461 29.1395 79.8461 29.08H77.8461C77.8461 29.3581 77.8468 29.9811 78.2855 30.4825L79.7906 29.1655ZM79.8458 29.105L79.8698 28.145L77.8704 28.095L77.8464 29.055L79.8458 29.105ZM79.8691 28.077C79.7703 25.7799 79.606 23.6389 79.5335 21.3918L77.5346 21.4562C77.6061 23.6731 77.7778 25.9961 77.871 28.163L79.8691 28.077ZM79.5334 21.3883C79.462 19.387 79.4381 17.5753 79.4381 15.568H77.4381C77.4381 17.5927 77.4622 19.429 77.5347 21.4597L79.5334 21.3883ZM79.4381 15.568V11.728H77.4381V15.568H79.4381ZM79.4374 11.7637C79.486 10.4028 79.4921 9.04199 79.504 7.70493C79.516 6.36154 79.5339 5.03716 79.6046 3.71749L77.6075 3.6105C77.5342 4.97884 77.5161 6.34246 77.5041 7.68707C77.492 9.03801 77.4861 10.3652 77.4387 11.6923L79.4374 11.7637ZM79.6061 3.664V3.184H77.6061V3.664H79.6061ZM79.5978 3.05603C79.5365 2.58076 79.3807 2.04737 78.9791 1.63303C78.5519 1.19221 77.9915 1.032 77.4301 1.032V3.032C77.5264 3.032 77.5675 3.04538 77.5735 3.04754C77.5741 3.04776 77.5582 3.0407 77.543 3.02497C77.5194 3.00063 77.5796 3.04324 77.6143 3.31197L79.5978 3.05603ZM77.4301 1.032H77.3581V3.032H77.4301V1.032ZM77.3581 1.032C76.8692 1.032 76.3764 1.00926 75.8598 0.985092C75.3512 0.961299 74.8175 0.935999 74.2861 0.935999V2.936C74.7626 2.936 75.2489 2.9587 75.7663 2.98291C76.2757 3.00674 76.8149 3.032 77.3581 3.032V1.032ZM74.2548 0.936487L73.4868 0.960487L73.5493 2.95951L74.3173 2.93551L74.2548 0.936487ZM73.4664 0.961334C73.1012 0.980224 72.7438 1.01389 72.4235 1.09449C72.0933 1.17759 71.7443 1.32463 71.4515 1.61042C70.8801 2.16822 70.8136 2.97679 70.7907 3.62893L72.7895 3.69906C72.8007 3.378 72.825 3.19029 72.8537 3.0772C72.879 2.97767 72.8922 2.99901 72.8486 3.04157C72.8078 3.08137 72.7948 3.0634 72.9116 3.03401C73.0384 3.00211 73.2389 2.97577 73.5697 2.95866L73.4664 0.961334ZM70.791 3.62193C70.5979 8.2059 70.622 12.8174 70.5981 17.3627L72.5981 17.3733C72.6221 12.7986 72.5982 8.2421 72.7892 3.70607L70.791 3.62193ZM70.5981 17.368C70.5981 17.9264 70.6167 18.5129 70.6345 19.0966C70.6526 19.686 70.6701 20.2775 70.6701 20.872H72.6701C72.6701 20.2425 72.6516 19.622 72.6336 19.0354C72.6155 18.4431 72.5981 17.8896 72.5981 17.368H70.5981ZM70.6701 20.872V21.76H72.6701V20.872H70.6701ZM70.6701 21.76C70.6701 23.1949 70.7752 24.6175 70.8768 25.9974C70.9792 27.3895 71.0781 28.7389 71.0781 30.088H73.0781C73.0781 28.6531 72.9729 27.2305 72.8714 25.8506C72.7689 24.4585 72.6701 23.1091 72.6701 21.76H70.6701ZM71.0781 30.088V30.616H73.0781V30.088H71.0781ZM71.0781 30.616C71.0781 31.3001 71.2323 32.0035 71.7321 32.5326C72.2425 33.0731 72.9378 33.248 73.6141 33.248V31.248C73.4381 31.248 73.3287 31.2251 73.2665 31.2035C73.2103 31.184 73.1923 31.166 73.1861 31.1594C73.1758 31.1485 73.0781 31.0359 73.0781 30.616H71.0781ZM94.8535 32.2L94.9302 33.1972L94.944 33.1959L94.8535 32.2ZM96.3175 30.52H97.3176L97.3174 30.5065L96.3175 30.52ZM96.2215 25.168L95.2218 25.1918L95.2221 25.2069L95.223 25.222L96.2215 25.168ZM96.1975 24.16H95.1975V24.1719L95.1978 24.1838L96.1975 24.16ZM97.0375 18.496L98.0064 18.7439L98.0092 18.7321L97.0375 18.496ZM99.9175 5.68L100.893 5.89927L100.896 5.8875L99.9175 5.68ZM100.566 3.376L101.536 3.61854L101.548 3.56849L101.555 3.51742L100.566 3.376ZM100.614 3.04L101.603 3.18142L101.614 3.11107V3.04H100.614ZM99.9175 2.032L99.5461 2.96052L99.5551 2.964L99.9175 2.032ZM98.5495 2.632L99.43 3.1061L99.4372 3.09276L99.4439 3.07921L98.5495 2.632ZM98.1655 3.688L99.1235 3.97475L99.1278 3.96027L99.1317 3.94566L98.1655 3.688ZM95.6695 14.44L96.6343 14.7031L96.6381 14.689L96.6415 14.6749L95.6695 14.44ZM95.1655 16.168L94.1865 16.372L94.7079 18.8744L96.023 16.6825L95.1655 16.168ZM94.9255 15.016L93.9405 15.1887L93.9433 15.2044L93.9465 15.22L94.9255 15.016ZM93.8695 8.992L94.8546 8.81932L94.852 8.80546L93.8695 8.992ZM92.8375 3.328L93.8243 3.16562L93.8231 3.15904L92.8375 3.328ZM91.5655 2.032L91.5068 3.03027L91.5222 3.03118L91.5377 3.03161L91.5655 2.032ZM89.1415 2.008V1.008H89.1324L89.1233 1.00816L89.1415 2.008ZM87.8215 2.032L87.8033 1.03216L87.7897 1.03241L87.7761 1.03303L87.8215 2.032ZM86.2375 4.192L85.2613 4.40893L85.2663 4.4313L85.2723 4.45341L86.2375 4.192ZM86.9575 7.672L87.9436 7.50602L87.9424 7.49867L87.9411 7.49135L86.9575 7.672ZM88.2295 14.944L89.2165 14.7831L89.2153 14.7758L89.214 14.7685L88.2295 14.944ZM89.5015 21.52L88.538 21.7876L88.5497 21.83L88.5652 21.8711L89.5015 21.52ZM89.5975 22.168L90.5971 22.1978L90.5975 22.1829V22.168H89.5975ZM89.5495 23.776L88.5499 23.7462L88.5495 23.7611V23.776H89.5495ZM89.6935 30.352L90.6936 30.352L90.6934 30.341L89.6935 30.352ZM89.7175 31.12L90.7118 31.0135L90.707 30.9684L90.6981 30.9239L89.7175 31.12ZM90.8215 32.224L90.7503 33.2215L90.7692 33.2228L90.7882 33.2234L90.8215 32.224ZM92.9815 33.272C93.6312 33.272 94.2808 33.247 94.9302 33.1971L94.7768 31.2029C94.1783 31.249 93.5798 31.272 92.9815 31.272V33.272ZM94.944 33.1959C95.5533 33.1405 96.2133 32.9807 96.6975 32.4841C97.1965 31.9723 97.3175 31.3032 97.3175 30.688H95.3175C95.3175 31.0808 95.2345 31.1197 95.2655 31.0879C95.2817 31.0713 95.2097 31.1635 94.763 31.2041L94.944 33.1959ZM97.3175 30.688V30.52H95.3175V30.688H97.3175ZM97.3174 30.5065C97.2939 28.7671 97.3175 26.9166 97.22 25.114L95.223 25.222C95.3175 26.9714 95.2931 28.7209 95.3176 30.5335L97.3174 30.5065ZM97.2212 25.1442L97.1972 24.1362L95.1978 24.1838L95.2218 25.1918L97.2212 25.1442ZM97.1975 24.16C97.1975 22.7589 97.4909 20.7585 98.0063 18.7438L96.0687 18.2482C95.5281 20.3615 95.1975 22.5371 95.1975 24.16H97.1975ZM98.0092 18.7321C99.0436 14.4743 99.9385 10.1474 100.893 5.89925L98.9418 5.46075C97.9765 9.75659 97.0954 14.0217 96.0658 18.2599L98.0092 18.7321ZM100.896 5.8875C100.97 5.53875 101.072 5.19169 101.188 4.81256C101.301 4.44543 101.432 4.03504 101.536 3.61854L99.5954 3.13346C99.5075 3.48496 99.3978 3.83057 99.2766 4.22544C99.159 4.60831 99.0333 5.02925 98.9393 5.47249L100.896 5.8875ZM101.555 3.51742L101.603 3.18142L99.6236 2.89858L99.5756 3.23458L101.555 3.51742ZM101.614 3.04C101.614 2.12845 101.078 1.41041 100.28 1.09999L99.5551 2.964C99.5826 2.97471 99.5976 2.9846 99.604 2.98951C99.6102 2.99416 99.6106 2.99571 99.6089 2.99342C99.6072 2.99098 99.6074 2.99008 99.6085 2.99382C99.6098 2.99789 99.6135 3.01216 99.6135 3.04H101.614ZM100.289 1.10353C99.9636 0.973392 99.653 0.983999 99.5575 0.983999V2.984C99.573 2.984 99.5849 2.984 99.5963 2.98407C99.6073 2.98414 99.6157 2.98427 99.6225 2.98444C99.6365 2.98479 99.6403 2.98526 99.638 2.98504C99.6353 2.98476 99.6244 2.98355 99.608 2.97986C99.5912 2.97607 99.5699 2.97 99.5461 2.96047L100.289 1.10353ZM99.5575 0.983999C98.7677 0.983999 98.0391 1.4167 97.6551 2.18479L99.4439 3.07921C99.474 3.01908 99.501 3.00051 99.5089 2.99564C99.518 2.98998 99.532 2.984 99.5575 2.984V0.983999ZM97.669 2.1579C97.4428 2.57812 97.2989 3.05686 97.1993 3.43033L99.1317 3.94566C99.2241 3.59914 99.3202 3.30988 99.43 3.1061L97.669 2.1579ZM97.2075 3.40125C96.1464 6.94642 95.532 10.7511 94.6975 14.2051L96.6415 14.6749C97.535 10.9769 98.0726 7.48558 99.1235 3.97475L97.2075 3.40125ZM94.7047 14.1769C94.6571 14.3516 94.6239 14.5226 94.5973 14.6665C94.5686 14.8215 94.5484 14.9395 94.5211 15.0654C94.47 15.3016 94.4097 15.484 94.308 15.6535L96.023 16.6825C96.2813 16.252 96.401 15.8344 96.4759 15.4886C96.5116 15.3235 96.5409 15.155 96.5639 15.0303C96.5891 14.8944 96.6099 14.7924 96.6343 14.7031L94.7047 14.1769ZM96.1445 15.964L95.9045 14.812L93.9465 15.22L94.1865 16.372L96.1445 15.964ZM95.9105 14.8433L94.8545 8.81933L92.8845 9.16466L93.9405 15.1887L95.9105 14.8433ZM94.852 8.80546C94.4911 6.90512 94.1338 5.04681 93.8242 3.16563L91.8508 3.49037C92.1652 5.40119 92.5279 7.28688 92.8871 9.17854L94.852 8.80546ZM93.8231 3.15904C93.7457 2.7073 93.6083 2.14769 93.2189 1.70964C92.782 1.21807 92.1922 1.04902 91.5933 1.03239L91.5377 3.03161C91.6757 3.03545 91.7358 3.05456 91.7502 3.06009C91.7551 3.06199 91.7384 3.0545 91.7241 3.03836C91.7155 3.02868 91.7329 3.04335 91.761 3.11979C91.7902 3.19917 91.8212 3.31775 91.8519 3.49696L93.8231 3.15904ZM91.6242 1.03373C91.1822 1.00772 90.7451 1.008 90.3655 1.008V3.008C90.7539 3.008 91.1328 3.00828 91.5068 3.03027L91.6242 1.03373ZM90.3655 1.008H89.1415V3.008H90.3655V1.008ZM89.1233 1.00816L87.8033 1.03216L87.8397 3.03183L89.1597 3.00783L89.1233 1.00816ZM87.7761 1.03303C87.0731 1.06498 86.4073 1.28661 85.9056 1.75166C85.3922 2.22768 85.1415 2.87615 85.1415 3.568H87.1415C87.1415 3.37185 87.2028 3.27631 87.2654 3.21834C87.3397 3.14939 87.5139 3.04701 87.8669 3.03097L87.7761 1.03303ZM85.1415 3.568C85.1415 3.89167 85.2199 4.22258 85.2613 4.40893L87.2137 3.97507C87.1591 3.72941 87.1415 3.62832 87.1415 3.568H85.1415ZM85.2723 4.45341C85.5705 5.55461 85.7536 6.65319 85.974 7.85265L87.9411 7.49135C87.7294 6.33881 87.5285 5.13339 87.2027 3.93058L85.2723 4.45341ZM85.9714 7.83798C86.3803 10.2675 86.8132 12.6962 87.245 15.1195L89.214 14.7685C88.7818 12.3438 88.3507 9.92449 87.9436 7.50602L85.9714 7.83798ZM87.2425 15.1049C87.5974 17.2817 87.9194 19.5607 88.538 21.7876L90.465 21.2524C89.8836 19.1593 89.5816 17.0223 89.2165 14.7831L87.2425 15.1049ZM88.5652 21.8711C88.5763 21.9008 88.5975 22.0033 88.5975 22.168H90.5975C90.5975 21.9007 90.5707 21.5232 90.4378 21.1689L88.5652 21.8711ZM88.5979 22.1382L88.5499 23.7462L90.5491 23.8058L90.5971 22.1978L88.5979 22.1382ZM88.5495 23.776C88.5495 25.9469 88.6707 28.2818 88.6936 30.363L90.6934 30.341C90.6683 28.0542 90.5495 26.0211 90.5495 23.776H88.5495ZM88.6935 30.352V30.736H90.6935V30.352H88.6935ZM88.6935 30.736C88.6935 30.8597 88.69 31.0817 88.7369 31.3161L90.6981 30.9239C90.6987 30.9272 90.6968 30.9196 90.6954 30.8894C90.6937 30.8546 90.6935 30.8133 90.6935 30.736H88.6935ZM88.7232 31.2265C88.7753 31.7129 88.9451 32.2145 89.3317 32.6073C89.725 33.0071 90.2344 33.1846 90.7503 33.2215L90.8928 31.2265C90.8121 31.2208 90.7708 31.207 90.7562 31.201C90.7444 31.1962 90.7491 31.1962 90.7573 31.2047C90.7779 31.2255 90.7317 31.1991 90.7118 31.0135L88.7232 31.2265ZM90.7882 33.2234C91.5054 33.2474 92.2421 33.272 92.9815 33.272V31.272C92.2809 31.272 91.5776 31.2486 90.8548 31.2246L90.7882 33.2234Z" fill="black"/>
</svg>
