<svg width="95" height="98" viewBox="0 0 95 98" fill="none" xmlns="http://www.w3.org/2000/svg">
<ellipse cx="47.5" cy="49" rx="47.5" ry="49" fill="#6ECAEF"/>
<path d="M71.5916 25.1305H39.628C38.8573 25.1305 38.1182 25.4492 37.5733 26.0164C37.0283 26.5837 36.7222 27.3531 36.7222 28.1553V61.4279C36.7222 62.2301 37.0283 62.9995 37.5733 63.5668C38.1182 64.134 38.8573 64.4527 39.628 64.4527H71.5916C72.3622 64.4527 73.1013 64.134 73.6463 63.5668C74.1912 62.9995 74.4974 62.2301 74.4974 61.4279V28.1553C74.4974 27.3531 74.1912 26.5837 73.6463 26.0164C73.1013 25.4492 72.3622 25.1305 71.5916 25.1305V25.1305Z" stroke="#F8F8F8" stroke-width="4" stroke-linejoin="round"/>
<path d="M16.3816 64.4528H36.7221V43.2793H26.5518L16.3816 53.0524V64.4528Z" stroke="#F8F8F8" stroke-width="4" stroke-linejoin="round"/>
<path d="M36.7221 67.4775C36.7221 69.082 36.1098 70.6207 35.02 71.7552C33.9301 72.8897 32.4519 73.5271 30.9106 73.5271C29.3692 73.5271 27.891 72.8897 26.8012 71.7552C25.7113 70.6207 25.099 69.082 25.099 67.4775" stroke="#F8F8F8" stroke-width="4" stroke-linecap="square" stroke-linejoin="round"/>
<path d="M68.6856 67.4775C68.6856 69.082 68.0733 70.6207 66.9835 71.7552C65.8936 72.8897 64.4154 73.5271 62.8741 73.5271C61.3327 73.5271 59.8545 72.8897 58.7647 71.7552C57.6748 70.6207 57.0625 69.082 57.0625 67.4775" stroke="#F8F8F8" stroke-width="4" stroke-linecap="square" stroke-linejoin="round"/>
</svg>
