<svg width="44" height="34" viewBox="0 0 51 43" fill="none" xmlns="http://www.w3.org/2000/svg">
<path d="M25.1105 33.8488C35.1551 33.8488 37.6663 25.3867 37.6663 25.3867H12.5547C12.5547 25.3867 15.0658 33.8488 25.1105 33.8488Z" fill="#1FB5CD"/>
<path d="M25.1116 42.3108C38.9581 42.3108 50.2231 32.8205 50.2231 21.1554C50.2231 9.4903 38.9581 0 25.1116 0C11.2651 0 0 9.4903 0 21.1554C0 32.8205 11.2651 42.3108 25.1116 42.3108ZM25.1116 4.23108C36.1883 4.23108 45.2008 11.8237 45.2008 21.1554C45.2008 30.487 36.1883 38.0797 25.1116 38.0797C14.0349 38.0797 5.02231 30.487 5.02231 21.1554C5.02231 11.8237 14.0349 4.23108 25.1116 4.23108Z" fill="#1FB5CD"/>
<path d="M16.4086 22.4968L21.5565 18.0901C21.9066 17.7952 22.1835 17.4445 22.3711 17.0585C22.5586 16.6725 22.653 16.2589 22.6488 15.8418C22.6446 15.4247 22.5419 15.0125 22.3466 14.6292C22.1512 14.2459 21.8673 13.8993 21.5113 13.6094C20.8254 13.0353 19.9024 12.7072 18.9357 12.6938C17.969 12.6804 17.0337 12.9827 16.3257 13.5375C15.6072 12.9898 14.6643 12.6987 13.6959 12.7256C12.7275 12.7524 11.8094 13.0951 11.1352 13.6813C9.66364 14.9507 9.68122 16.9181 11.1829 18.1599L16.4086 22.4968ZM33.9867 22.4968L39.1346 18.0901C39.4847 17.7952 39.7616 17.4445 39.9492 17.0585C40.1367 16.6725 40.2311 16.2589 40.2269 15.8418C40.2227 15.4247 40.12 15.0125 39.9247 14.6292C39.7293 14.2459 39.4454 13.8993 39.0894 13.6094C38.4035 13.0353 37.4805 12.7072 36.5138 12.6938C35.5471 12.6804 34.6118 12.9827 33.9038 13.5375C33.1855 12.9889 32.2423 12.6971 31.2733 12.7235C30.3043 12.75 29.3854 13.0927 28.7108 13.6792C27.2392 14.9486 27.2568 16.916 28.7585 18.1578L33.9867 22.4968Z" fill="#1FB5CD"/>
</svg>
