<svg width="70" height="50" viewBox="0 0 70 50" fill="none" xmlns="http://www.w3.org/2000/svg">
<path d="M0 11.538C0 9.49789 0.867644 7.54132 2.41206 6.09873C3.95648 4.65614 6.05115 3.8457 8.23529 3.8457H57.647C59.8311 3.8457 61.9258 4.65614 63.4702 6.09873C65.0146 7.54132 65.8823 9.49789 65.8823 11.538V42.3073C65.8823 44.3474 65.0146 46.304 63.4702 47.7465C61.9258 49.1891 59.8311 49.9996 57.647 49.9996H8.23529C6.05115 49.9996 3.95648 49.1891 2.41206 47.7465C0.867644 46.304 0 44.3474 0 42.3073V11.538ZM10.2941 15.3842C9.74807 15.3842 9.2244 15.5868 8.8383 15.9474C8.4522 16.3081 8.23529 16.7972 8.23529 17.3072V21.1534C8.23529 21.6634 8.4522 22.1526 8.8383 22.5132C9.2244 22.8739 9.74807 23.0765 10.2941 23.0765H18.5294C19.0754 23.0765 19.5991 22.8739 19.9852 22.5132C20.3713 22.1526 20.5882 21.6634 20.5882 21.1534V17.3072C20.5882 16.7972 20.3713 16.3081 19.9852 15.9474C19.5991 15.5868 19.0754 15.3842 18.5294 15.3842H10.2941ZM10.2941 26.9226C9.74807 26.9226 9.2244 27.1252 8.8383 27.4859C8.4522 27.8465 8.23529 28.3357 8.23529 28.8457C8.23529 29.3557 8.4522 29.8449 8.8383 30.2055C9.2244 30.5662 9.74807 30.7688 10.2941 30.7688H30.8823C31.4284 30.7688 31.952 30.5662 32.3381 30.2055C32.7242 29.8449 32.9411 29.3557 32.9411 28.8457C32.9411 28.3357 32.7242 27.8465 32.3381 27.4859C31.952 27.1252 31.4284 26.9226 30.8823 26.9226H10.2941ZM10.2941 34.615C9.74807 34.615 9.2244 34.8176 8.8383 35.1782C8.4522 35.5389 8.23529 36.028 8.23529 36.538C8.23529 37.0481 8.4522 37.5372 8.8383 37.8979C9.2244 38.2585 9.74807 38.4611 10.2941 38.4611H14.4118C14.9578 38.4611 15.4815 38.2585 15.8676 37.8979C16.2537 37.5372 16.4706 37.0481 16.4706 36.538C16.4706 36.028 16.2537 35.5389 15.8676 35.1782C15.4815 34.8176 14.9578 34.615 14.4118 34.615H10.2941ZM22.647 34.615C22.101 34.615 21.5773 34.8176 21.1912 35.1782C20.8051 35.5389 20.5882 36.028 20.5882 36.538C20.5882 37.0481 20.8051 37.5372 21.1912 37.8979C21.5773 38.2585 22.101 38.4611 22.647 38.4611H26.7647C27.3107 38.4611 27.8344 38.2585 28.2205 37.8979C28.6066 37.5372 28.8235 37.0481 28.8235 36.538C28.8235 36.028 28.6066 35.5389 28.2205 35.1782C27.8344 34.8176 27.3107 34.615 26.7647 34.615H22.647ZM35 34.615C34.4539 34.615 33.9303 34.8176 33.5442 35.1782C33.1581 35.5389 32.9411 36.028 32.9411 36.538C32.9411 37.0481 33.1581 37.5372 33.5442 37.8979C33.9303 38.2585 34.4539 38.4611 35 38.4611H39.1176C39.6636 38.4611 40.1873 38.2585 40.5734 37.8979C40.9595 37.5372 41.1764 37.0481 41.1764 36.538C41.1764 36.028 40.9595 35.5389 40.5734 35.1782C40.1873 34.8176 39.6636 34.615 39.1176 34.615H35ZM47.3529 34.615C46.8069 34.615 46.2832 34.8176 45.8971 35.1782C45.511 35.5389 45.2941 36.028 45.2941 36.538C45.2941 37.0481 45.511 37.5372 45.8971 37.8979C46.2832 38.2585 46.8069 38.4611 47.3529 38.4611H51.4705C52.0166 38.4611 52.5402 38.2585 52.9263 37.8979C53.3124 37.5372 53.5294 37.0481 53.5294 36.538C53.5294 36.028 53.3124 35.5389 52.9263 35.1782C52.5402 34.8176 52.0166 34.615 51.4705 34.615H47.3529Z" fill="black"/>
<path d="M70 11.5385C70 14.5987 68.6986 17.5335 66.382 19.6974C64.0653 21.8613 60.9233 23.0769 57.6471 23.0769C54.3709 23.0769 51.2289 21.8613 48.9123 19.6974C46.5957 17.5335 45.2942 14.5987 45.2942 11.5385C45.2942 8.47828 46.5957 5.54342 48.9123 3.37954C51.2289 1.21566 54.3709 0 57.6471 0C60.9233 0 64.0653 1.21566 66.382 3.37954C68.6986 5.54342 70 8.47828 70 11.5385ZM59.0197 6.41026C59.0197 6.07024 58.8751 5.74414 58.6177 5.50371C58.3603 5.26328 58.0111 5.12821 57.6471 5.12821C57.2831 5.12821 56.934 5.26328 56.6766 5.50371C56.4192 5.74414 56.2746 6.07024 56.2746 6.41026V10.2564H52.1569C51.7929 10.2564 51.4438 10.3915 51.1864 10.6319C50.929 10.8724 50.7844 11.1984 50.7844 11.5385C50.7844 11.8785 50.929 12.2046 51.1864 12.445C51.4438 12.6854 51.7929 12.8205 52.1569 12.8205H56.2746V16.6667C56.2746 17.0067 56.4192 17.3328 56.6766 17.5732C56.934 17.8137 57.2831 17.9487 57.6471 17.9487C58.0111 17.9487 58.3603 17.8137 58.6177 17.5732C58.8751 17.3328 59.0197 17.0067 59.0197 16.6667V12.8205H63.1373C63.5013 12.8205 63.8504 12.6854 64.1078 12.445C64.3652 12.2046 64.5099 11.8785 64.5099 11.5385C64.5099 11.1984 64.3652 10.8724 64.1078 10.6319C63.8504 10.3915 63.5013 10.2564 63.1373 10.2564H59.0197V6.41026Z" fill="white"/>
</svg>
