<svg width="57" height="40" viewBox="0 0 57 40" fill="none" xmlns="http://www.w3.org/2000/svg">
<path d="M53.4375 0H3.5625C2.61767 0 1.71153 0.351189 1.04343 0.976311C0.375334 1.60143 0 2.44928 0 3.33333V36.6667C0 37.5507 0.375334 38.3986 1.04343 39.0237C1.71153 39.6488 2.61767 40 3.5625 40H53.4375C54.3823 40 55.2885 39.6488 55.9566 39.0237C56.6247 38.3986 57 37.5507 57 36.6667V3.33333C57 2.44928 56.6247 1.60143 55.9566 0.976311C55.2885 0.351189 54.3823 0 53.4375 0ZM53.4375 3.33333V23.3333H3.5625V3.33333H53.4375ZM3.5625 36.6667V30H53.4375V36.6667H3.5625Z" fill="white"/>
</svg>
