<svg width="47" height="45" viewBox="0 0 47 45" fill="none" xmlns="http://www.w3.org/2000/svg">
<path d="M7.82757 41.0313L7.83577 41.0315H7.84398H46.1252V43.9204H7.81273C6.35986 43.9204 4.55915 43.5104 3.14526 42.5662C1.76142 41.6422 0.750244 40.2156 0.750244 38.087V13.948V7.36462C0.750244 5.23601 1.76142 3.8095 3.14526 2.8854C4.55915 1.94124 6.35986 1.53125 7.81273 1.53125H41.6668C44.2504 1.53125 46.1252 3.27907 46.1252 5.17017V35.1426H7.84398H7.83577L7.82757 35.1427C7.17288 35.1571 6.35089 35.271 5.67186 35.704C4.93694 36.1727 4.45857 36.9591 4.45857 38.087C4.45857 39.2149 4.93694 40.0014 5.67186 40.47C6.35089 40.903 7.17288 41.017 7.82757 41.0313ZM7.81273 4.42017H7.8043L7.79588 4.42035C7.1546 4.43476 6.34044 4.54947 5.66574 4.98304C4.93643 5.4517 4.45857 6.23716 4.45857 7.36462V31.5037V32.2537H5.20857H41.6668H42.4168V31.5037V5.17017V4.42017H41.6668H7.81273Z" fill="#6ECAEF" stroke="black" stroke-width="1.5"/>
<path d="M31.6744 18.2746L31.6744 18.2746L31.6686 18.2794L23.4228 25.1014L15.1796 18.2774L15.1796 18.2773L15.1735 18.2724C14.7122 17.8986 14.354 17.4572 14.1126 16.9794C13.8716 16.5023 13.7502 15.9954 13.7502 15.4877C13.7502 14.98 13.8716 14.4731 14.1126 13.996C14.354 13.5182 14.7122 13.0769 15.1735 12.703L15.1736 12.703L15.181 12.6969C16.119 11.9165 17.4073 11.4629 18.7703 11.4629C20.1334 11.4629 21.4216 11.9165 22.3597 12.6969L22.3597 12.6969L22.3625 12.6992L22.9458 13.1798L23.4216 13.5718L23.8983 13.1808L24.4816 12.7024L24.4816 12.7024L24.4856 12.6991C25.4241 11.9186 26.7128 11.4649 28.0763 11.4649C29.4399 11.4649 30.7286 11.9186 31.6671 12.6991L31.667 12.6992L31.6744 12.7052C32.1358 13.0791 32.494 13.5204 32.7353 13.9982C32.9764 14.4753 33.0977 14.9822 33.0977 15.4899C33.0977 15.9976 32.9764 16.5045 32.7353 16.9816C32.494 17.4594 32.1358 17.9008 31.6744 18.2746Z" fill="#6ECAEF" stroke="black" stroke-width="1.5"/>
</svg>
