<svg width="28" height="28" viewBox="0 0 28 28" fill="none" xmlns="http://www.w3.org/2000/svg">
<path d="M6.76123 20.725L13.1672 20.7036L27.1493 7.10071C27.698 6.56173 27.9999 5.84593 27.9999 5.08451C27.9999 4.32309 27.698 3.6073 27.1493 3.06832L24.847 0.80687C23.7496 -0.271095 21.8349 -0.265392 20.7462 0.802593L6.76123 14.4083V20.725ZM22.7944 2.82307L25.101 5.08023L22.7828 7.33598L20.4805 5.07596L22.7944 2.82307ZM9.66448 15.5975L18.4178 7.08075L20.72 9.34219L11.9682 17.8561L9.66448 17.8633V15.5975Z" fill="white"/>
<path d="M2.90325 27.9998H23.226C24.8271 27.9998 26.1292 26.7208 26.1292 25.1481V12.7885L23.226 15.6403V25.1481H7.48747C7.44973 25.1481 7.41054 25.1623 7.3728 25.1623C7.32489 25.1623 7.27699 25.1495 7.22763 25.1481H2.90325V5.18575H12.8425L15.7458 2.33398H2.90325C1.30211 2.33398 0 3.613 0 5.18575V25.1481C0 26.7208 1.30211 27.9998 2.90325 27.9998Z" fill="white"/>
</svg>
