<svg width="95" height="98" viewBox="0 0 95 98" fill="none" xmlns="http://www.w3.org/2000/svg">
<ellipse cx="47.5" cy="49" rx="47.5" ry="49" fill="#6ECAEF"/>
<path d="M80.4534 24L63.1292 38.6497L57.5106 33.8985L52 38.5584L57.6186 43.3096L63.1652 48L68.6759 43.3401L86 28.6904L80.4534 24Z" fill="#F8F8F8"/>
<path d="M44.7876 25.7733C45.5862 25.3517 46.4845 25.1305 47.398 25.1305C48.3114 25.1305 49.2098 25.3517 50.0084 25.7733L70.2113 36.4397C70.6301 36.6611 70.9791 36.985 71.222 37.3776C71.465 37.7703 71.5931 38.2176 71.5931 38.6732V59.7174C71.5928 60.6288 71.3362 61.5235 70.8499 62.3089C70.3635 63.0943 69.665 63.7418 68.8268 64.1843L50.0084 74.125C49.2098 74.5466 48.3114 74.7678 47.398 74.7678C46.4845 74.7678 45.5862 74.5466 44.7876 74.125L25.9692 64.1843C25.1314 63.742 24.4332 63.0949 23.9468 62.31C23.4604 61.5251 23.2036 60.6309 23.2029 59.7199V38.6732C23.2029 38.2176 23.331 37.7703 23.5739 37.3776C23.8169 36.985 24.1658 36.6611 24.5847 36.4397L44.7903 25.7733H44.7876Z" stroke="#F8F8F8" stroke-width="2" stroke-linecap="round" stroke-linejoin="round"/>
<path d="M47.398 49.9479V75.5025M23.2029 37.1707L47.398 49.9479L23.2029 37.1707ZM47.398 49.9479L71.5931 37.1707L47.398 49.9479Z" stroke="#F8F8F8" stroke-width="2" stroke-linejoin="round"/>
<path d="M35.3004 43.5593L59.4955 30.782" stroke="#F8F8F8" stroke-width="2" stroke-linecap="round" stroke-linejoin="round"/>
<path d="M31.2682 50.7861L39.3332 55.0589" stroke="#F8F8F8" stroke-width="2" stroke-linecap="round" stroke-linejoin="round"/>
</svg>
