<svg width="30" height="30" viewBox="0 0 30 30" fill="none" xmlns="http://www.w3.org/2000/svg">
<path fill-rule="evenodd" clip-rule="evenodd" d="M30 15C30 23.2845 23.2845 30 15 30C6.7155 30 0 23.2845 0 15C0 6.7155 6.7155 0 15 0C23.2845 0 30 6.7155 30 15ZM9.1665 20.8335C9.0259 20.6929 8.94691 20.5021 8.94691 20.3032C8.94691 20.1044 9.0259 19.9136 9.1665 19.773L13.9395 15L9.1665 10.227C9.02988 10.0855 8.95429 9.8961 8.95599 9.69945C8.9577 9.5028 9.03658 9.31469 9.17564 9.17564C9.31469 9.03658 9.5028 8.9577 9.69945 8.95599C9.8961 8.95429 10.0855 9.02988 10.227 9.1665L15 13.9395L19.773 9.1665C19.9145 9.02988 20.1039 8.95429 20.3006 8.95599C20.4972 8.9577 20.6853 9.03658 20.8244 9.17564C20.9634 9.31469 21.0423 9.5028 21.044 9.69945C21.0457 9.8961 20.9701 10.0855 20.8335 10.227L16.0605 15L20.8335 19.773C20.9701 19.9145 21.0457 20.1039 21.044 20.3006C21.0423 20.4972 20.9634 20.6853 20.8244 20.8244C20.6853 20.9634 20.4972 21.0423 20.3006 21.044C20.1039 21.0457 19.9145 20.9701 19.773 20.8335L15 16.0605L10.227 20.8335C10.0864 20.9741 9.89562 21.0531 9.69675 21.0531C9.49788 21.0531 9.30715 20.9741 9.1665 20.8335Z" fill="#F8F8F8"/>
</svg>
