<svg width="82" height="53" viewBox="0 0 82 81" fill="none" xmlns="http://www.w3.org/2000/svg">
<path fill-rule="evenodd" clip-rule="evenodd" d="M0.381602 40.0427C0.190773 59.84 14.5208 76.4421 33.4379 79.963L33.7151 51.2028L23.6837 51.1061L23.7903 40.046L33.8217 40.1427L33.907 31.2926C34.003 21.3375 40.5198 15.8714 49.6617 15.9595C52.5575 15.9874 55.6763 16.4589 58.5678 16.9281L58.4697 27.1056L53.3437 27.0562C48.4383 27.0089 47.3014 29.4305 47.2715 32.5299L47.1969 40.2716L57.897 40.3747L56.0082 51.4177L47.0903 51.3317L46.8131 80.0919C65.7945 76.9363 80.4418 60.6169 80.6327 40.8162C80.845 18.7923 62.9622 0.599501 40.8931 0.386775C18.8241 0.174049 0.593894 18.0187 0.381602 40.0427Z" fill="#1EA7C3"/>
</svg>
