<svg width="77" height="67" viewBox="0 0 77 67" fill="none" xmlns="http://www.w3.org/2000/svg">
<path d="M75.1371 13.7303C73.9424 11.0435 72.2197 8.60865 70.0655 6.56219C67.9098 4.50963 65.368 2.87849 62.5786 1.75747C59.6861 0.590419 56.5837 -0.00694119 53.4516 6.08501e-05C49.0575 6.08501e-05 44.7703 1.16878 41.0446 3.37635C40.1533 3.90444 39.3066 4.48447 38.5044 5.11644C37.7022 4.48447 36.8555 3.90444 35.9642 3.37635C32.2385 1.16878 27.9513 6.08501e-05 23.5572 6.08501e-05C20.3931 6.08501e-05 17.327 0.588748 14.4302 1.75747C11.6315 2.8829 9.10915 4.50179 6.94327 6.56219C4.78628 8.60634 3.06322 11.0417 1.87174 13.7303C0.632827 16.5266 0 19.496 0 22.552C0 25.4348 0.606088 28.4388 1.80935 31.4948C2.81653 34.0487 4.26044 36.6978 6.10544 39.3728C9.02893 43.6062 13.0487 48.0213 18.04 52.4971C26.3113 59.9163 34.5024 65.0413 34.8501 65.2491L36.9625 66.565C37.8983 67.145 39.1016 67.145 40.0375 66.565L42.1499 65.2491C42.4975 65.0327 50.6796 59.9163 58.9599 52.4971C63.9512 48.0213 67.971 43.6062 70.8945 39.3728C72.7395 36.6978 74.1923 34.0487 75.1906 31.4948C76.3938 28.4388 76.9999 25.4348 76.9999 22.552C77.0088 19.496 76.376 16.5266 75.1371 13.7303Z" fill="#699BF7"/>
</svg>
