<svg width="109" height="95" viewBox="0 0 109 95" fill="none" xmlns="http://www.w3.org/2000/svg">
<g filter="url(#filter0_d)">
<path d="M6 22H67.7897L105 49.3026L67.7897 72H6V22Z" fill="#00EAFF"/>
<path d="M20.61 59.3C19.85 59.3 19.19 59.28 18.63 59.24C18.09 59.2 17.54 59.14 16.98 59.06L13.2 57.68L14.4 53.51L19.71 55.16C21.09 55.16 22.14 54.91 22.86 54.41C23.6 53.89 23.97 53.15 23.97 52.19C23.97 51.29 23.72 50.57 23.22 50.03C22.72 49.49 21.76 49.22 20.34 49.22H14.1V37.76H27.45V41.93L19.95 41.63H18.69V45.71H20.7C23.48 45.71 25.5 46.24 26.76 47.3C28.02 48.36 28.65 49.93 28.65 52.01C28.65 53.43 28.33 54.69 27.69 55.79C27.07 56.89 26.16 57.75 24.96 58.37C23.76 58.99 22.31 59.3 20.61 59.3ZM39.7041 59.3C38.0041 59.3 36.5241 58.95 35.2641 58.25C34.0241 57.55 33.0641 56.41 32.3841 54.83C31.7041 53.23 31.3641 51.08 31.3641 48.38C31.3641 45.8 31.7041 43.71 32.3841 42.11C33.0641 40.51 34.0241 39.34 35.2641 38.6C36.5241 37.84 38.0041 37.46 39.7041 37.46C41.4241 37.46 42.9041 37.84 44.1441 38.6C45.3841 39.36 46.3441 40.54 47.0241 42.14C47.7041 43.74 48.0441 45.82 48.0441 48.38C48.0441 51.04 47.7041 53.17 47.0241 54.77C46.3441 56.37 45.3841 57.53 44.1441 58.25C42.9041 58.95 41.4241 59.3 39.7041 59.3ZM39.7041 54.98C41.0841 54.98 42.0741 54.49 42.6741 53.51C43.2741 52.51 43.5741 50.8 43.5741 48.38C43.5741 46.1 43.2741 44.43 42.6741 43.37C42.0741 42.31 41.0841 41.78 39.7041 41.78C38.3641 41.78 37.3841 42.32 36.7641 43.4C36.1441 44.46 35.8341 46.12 35.8341 48.38C35.8341 50.78 36.1441 52.48 36.7641 53.48C37.3841 54.48 38.3641 54.98 39.7041 54.98ZM52.1763 59V57.2L62.9463 46.49L69.0963 37.79H73.4763V39.59L63.3363 49.46L56.5563 59H52.1763ZM56.0763 47.09C54.8363 47.09 53.8163 46.88 53.0163 46.46C52.2363 46.04 51.6563 45.48 51.2763 44.78C50.9163 44.08 50.7363 43.3 50.7363 42.44C50.7363 41.58 50.9163 40.8 51.2763 40.1C51.6563 39.4 52.2363 38.84 53.0163 38.42C53.8163 38 54.8363 37.79 56.0763 37.79C57.2963 37.79 58.2963 38 59.0763 38.42C59.8763 38.84 60.4663 39.4 60.8463 40.1C61.2263 40.8 61.4163 41.58 61.4163 42.44C61.4163 43.3 61.2263 44.08 60.8463 44.78C60.4663 45.48 59.8763 46.04 59.0763 46.46C58.2963 46.88 57.2963 47.09 56.0763 47.09ZM56.0763 44.39C56.6363 44.39 57.0463 44.28 57.3063 44.06C57.5863 43.84 57.7663 43.58 57.8463 43.28C57.9463 42.96 57.9963 42.68 57.9963 42.44C57.9963 42.2 57.9463 41.93 57.8463 41.63C57.7663 41.31 57.5863 41.04 57.3063 40.82C57.0463 40.6 56.6363 40.49 56.0763 40.49C55.4963 40.49 55.0663 40.6 54.7863 40.82C54.5263 41.04 54.3563 41.31 54.2763 41.63C54.1963 41.93 54.1563 42.2 54.1563 42.44C54.1563 42.68 54.1963 42.96 54.2763 43.28C54.3563 43.58 54.5263 43.84 54.7863 44.06C55.0663 44.28 55.4963 44.39 56.0763 44.39ZM69.2763 59C68.0363 59 67.0163 58.79 66.2163 58.37C65.4363 57.95 64.8563 57.39 64.4763 56.69C64.1163 55.97 63.9363 55.19 63.9363 54.35C63.9363 53.49 64.1163 52.71 64.4763 52.01C64.8563 51.31 65.4363 50.75 66.2163 50.33C67.0163 49.91 68.0363 49.7 69.2763 49.7C70.4963 49.7 71.4963 49.91 72.2763 50.33C73.0763 50.75 73.6663 51.31 74.0463 52.01C74.4263 52.71 74.6163 53.49 74.6163 54.35C74.6163 55.19 74.4263 55.97 74.0463 56.69C73.6663 57.39 73.0763 57.95 72.2763 58.37C71.4963 58.79 70.4963 59 69.2763 59ZM69.2763 56.3C69.8363 56.3 70.2463 56.19 70.5063 55.97C70.7863 55.73 70.9663 55.46 71.0463 55.16C71.1463 54.86 71.1963 54.59 71.1963 54.35C71.1963 54.11 71.1463 53.84 71.0463 53.54C70.9663 53.24 70.7863 52.98 70.5063 52.76C70.2463 52.52 69.8363 52.4 69.2763 52.4C68.6963 52.4 68.2663 52.52 67.9863 52.76C67.7263 52.98 67.5563 53.24 67.4763 53.54C67.3963 53.84 67.3563 54.11 67.3563 54.35C67.3563 54.59 67.3963 54.86 67.4763 55.16C67.5563 55.46 67.7263 55.73 67.9863 55.97C68.2663 56.19 68.6963 56.3 69.2763 56.3Z" fill="white"/>
</g>
<defs>
<filter id="filter0_d" x="-4" y="0" width="113" height="103" filterUnits="userSpaceOnUse" color-interpolation-filters="sRGB">
<feFlood flood-opacity="0" result="BackgroundImageFix"/>
<feColorMatrix in="SourceAlpha" type="matrix" values="0 0 0 0 0 0 0 0 0 0 0 0 0 0 0 0 0 0 127 0" result="hardAlpha"/>
<feOffset dy="4"/>
<feGaussianBlur stdDeviation="2"/>
<feComposite in2="hardAlpha" operator="out"/>
<feColorMatrix type="matrix" values="0 0 0 0 0 0 0 0 0 0 0 0 0 0 0 0 0 0 0.25 0"/>
<feBlend mode="normal" in2="BackgroundImageFix" result="effect1_dropShadow"/>
<feBlend mode="normal" in="SourceGraphic" in2="effect1_dropShadow" result="shape"/>
</filter>
</defs>
</svg>
