<svg width="16" height="16" viewBox="0 0 16 16" fill="none" xmlns="http://www.w3.org/2000/svg">
<path d="M15 0H1C0.734784 0 0.48043 0.120408 0.292893 0.334735C0.105357 0.549062 0 0.839753 0 1.14286V14.8571C0 15.1602 0.105357 15.4509 0.292893 15.6653C0.48043 15.8796 0.734784 16 1 16H15C15.2652 16 15.5196 15.8796 15.7071 15.6653C15.8946 15.4509 16 15.1602 16 14.8571V1.14286C16 0.839753 15.8946 0.549062 15.7071 0.334735C15.5196 0.120408 15.2652 0 15 0ZM1 14.8571V1.14286H15V14.8571H1Z" fill="#F8F8F8"/>
<path d="M3.46094 5.71422C3.75761 5.71422 4.04762 5.61368 4.29429 5.42531C4.54097 5.23694 4.73323 4.9692 4.84676 4.65596C4.96029 4.34272 4.98999 3.99803 4.93212 3.66549C4.87424 3.33295 4.73138 3.0275 4.5216 2.78775C4.31182 2.548 4.04454 2.38473 3.75357 2.31858C3.4626 2.25244 3.161 2.28639 2.88691 2.41614C2.61282 2.54589 2.37856 2.76561 2.21373 3.04752C2.04891 3.32944 1.96094 3.66088 1.96094 3.99993C1.96094 4.45459 2.11897 4.89062 2.40028 5.21211C2.68158 5.53361 3.06311 5.71422 3.46094 5.71422ZM3.46094 3.08565C3.61937 3.08451 3.77453 3.13717 3.90675 3.23694C4.03896 3.33672 4.14228 3.47911 4.2036 3.64607C4.26491 3.81303 4.28147 3.99704 4.25117 4.17477C4.22087 4.3525 4.14507 4.51594 4.03339 4.64438C3.92171 4.77282 3.77918 4.86046 3.62386 4.89621C3.46854 4.93195 3.30743 4.91418 3.16096 4.84515C3.01448 4.77612 2.88924 4.65894 2.80112 4.50847C2.71299 4.358 2.66594 4.181 2.66594 3.99993C2.66725 3.75943 2.75143 3.5292 2.90024 3.35913C3.04904 3.18906 3.2505 3.09286 3.46094 3.09136V3.08565Z" fill="#F8F8F8"/>
<path d="M10.3909 6.49722L7.69094 9.58294L5.69094 7.29722C5.59726 7.19079 5.47053 7.13106 5.33844 7.13106C5.20634 7.13106 5.07962 7.19079 4.98594 7.29722L1.96094 10.8001V12.4172L5.35594 8.53722L7.00094 10.3887L5.12594 12.5315H6.50094L10.7259 7.70294L14.0009 11.4287V9.81722L11.0959 6.49722C11.0023 6.39079 10.8755 6.33105 10.7434 6.33105C10.6113 6.33105 10.4846 6.39079 10.3909 6.49722Z" fill="#F8F8F8"/>
</svg>
