<svg width="51" height="54" viewBox="0 0 51 54" fill="none" xmlns="http://www.w3.org/2000/svg">
<path fill-rule="evenodd" clip-rule="evenodd" d="M14.7239 0.161758C17.3954 0.0294104 18.2472 0 25.0523 0C31.8574 0 32.7091 0.0318613 35.3783 0.161758C38.0475 0.291654 39.8695 0.749967 41.4638 1.41415C43.1331 2.09304 44.6477 3.15427 45.9003 4.52676C47.1757 5.87229 48.1595 7.49967 48.7881 9.29861C49.4076 11.0142 49.8312 12.9749 49.9542 15.8424C50.0772 18.7222 50.1045 19.6388 50.1045 26.9596C50.1045 34.2828 50.0749 35.1994 49.9542 38.0743C49.8335 40.9418 49.4076 42.9025 48.7881 44.6181C48.1595 46.4173 47.174 48.0474 45.9003 49.3949C44.6477 50.7674 43.1331 51.8261 41.4638 52.5026C39.8695 53.1692 38.0475 53.6251 35.3829 53.7574C32.7091 53.8898 31.8574 53.9192 25.0523 53.9192C18.2472 53.9192 17.3954 53.8873 14.7239 53.7574C12.0592 53.6275 10.2373 53.1692 8.64303 52.5026C6.97118 51.8261 5.45643 50.7655 4.20422 49.3949C2.9297 48.0485 1.94341 46.4192 1.3141 44.6206C0.696908 42.905 0.273297 40.9443 0.150313 38.0767C0.0273297 35.197 0 34.2803 0 26.9596C0 19.6364 0.0296072 18.7198 0.150313 15.8473C0.27102 12.9749 0.696908 11.0142 1.3141 9.29861C1.94433 7.49987 2.93138 5.87061 4.2065 4.52431C5.45693 3.15305 6.97016 2.09168 8.64075 1.41415C10.235 0.749967 12.057 0.294105 14.7216 0.161758H14.7239ZM35.1756 5.01448C32.5338 4.88459 31.7412 4.85763 25.0523 4.85763C18.3633 4.85763 17.5707 4.88459 14.9289 5.01448C12.4851 5.13458 11.1596 5.57328 10.276 5.94337C9.10763 6.43354 8.2718 7.0144 7.39497 7.95798C6.56379 8.82817 5.92413 9.88751 5.52288 11.0583C5.17898 12.0093 4.77132 13.4357 4.65972 16.0655C4.53901 18.9085 4.51396 19.7614 4.51396 26.9596C4.51396 34.1578 4.53901 35.0107 4.65972 37.8537C4.77132 40.4835 5.17898 41.9099 5.52288 42.8609C5.92372 44.0299 6.56369 45.0911 7.39497 45.9612C8.20347 46.8558 9.18962 47.5445 10.276 47.9758C11.1596 48.3459 12.4851 48.7846 14.9289 48.9047C17.5707 49.0346 18.361 49.0616 25.0523 49.0616C31.7435 49.0616 32.5338 49.0346 35.1756 48.9047C37.6194 48.7846 38.9449 48.3459 39.8285 47.9758C40.9969 47.4856 41.8327 46.9048 42.7095 45.9612C43.5408 45.0911 44.1808 44.0299 44.5816 42.8609C44.9255 41.9099 45.3332 40.4835 45.4448 37.8537C45.5655 35.0107 45.5905 34.1578 45.5905 26.9596C45.5905 19.7614 45.5655 18.9085 45.4448 16.0655C45.3332 13.4357 44.9255 12.0093 44.5816 11.0583C44.1261 9.80104 43.5864 8.90157 42.7095 7.95798C41.9009 7.06359 40.9165 6.37524 39.8285 5.94337C38.9449 5.57328 37.6194 5.13458 35.1756 5.01448ZM21.8524 35.2705C23.6394 36.071 25.6293 36.1791 27.4822 35.5762C29.335 34.9733 30.9359 33.6968 32.0113 31.9649C33.0868 30.2329 33.5701 28.1529 33.3788 26.08C33.1875 24.0071 32.3334 22.07 30.9623 20.5996C30.0883 19.6596 29.0315 18.9399 27.868 18.4922C26.7045 18.0445 25.4632 17.88 24.2335 18.0105C23.0038 18.141 21.8163 18.5633 20.7565 19.247C19.6967 19.9307 18.7909 20.8587 18.1044 21.9644C17.4178 23.07 16.9676 24.3256 16.7862 25.6409C16.6047 26.9562 16.6965 28.2985 17.055 29.571C17.4134 30.8436 18.0296 32.0148 18.8592 33.0003C19.6887 33.9858 20.711 34.7612 21.8524 35.2705ZM15.9469 17.161C17.1426 15.8742 18.5622 14.8535 20.1245 14.1571C21.6868 13.4607 23.3612 13.1023 25.0523 13.1023C26.7433 13.1023 28.4177 13.4607 29.98 14.1571C31.5423 14.8535 32.9619 15.8742 34.1576 17.161C35.3533 18.4478 36.3018 19.9754 36.949 21.6566C37.5961 23.3379 37.9292 25.1398 37.9292 26.9596C37.9292 28.7794 37.5961 30.5813 36.949 32.2626C36.3018 33.9438 35.3533 35.4714 34.1576 36.7582C31.7427 39.3569 28.4674 40.8169 25.0523 40.8169C21.6371 40.8169 18.3618 39.3569 15.9469 36.7582C13.532 34.1594 12.1753 30.6348 12.1753 26.9596C12.1753 23.2844 13.532 19.7598 15.9469 17.161ZM40.7851 15.166C41.0814 14.8652 41.3186 14.5035 41.4827 14.1023C41.6467 13.701 41.7343 13.2685 41.7403 12.8301C41.7462 12.3918 41.6704 11.9567 41.5172 11.5505C41.3641 11.1443 41.1368 10.7753 40.8487 10.4653C40.5607 10.1554 40.2178 9.91073 39.8403 9.74594C39.4629 9.58114 39.0585 9.49952 38.6512 9.50591C38.2439 9.5123 37.842 9.60657 37.4691 9.78314C37.0963 9.9597 36.7602 10.215 36.4806 10.5338C35.937 11.154 35.6394 11.9777 35.651 12.8301C35.6625 13.6826 35.9823 14.4966 36.5425 15.0994C37.1027 15.7023 37.8591 16.0464 38.6512 16.0588C39.4434 16.0713 40.2088 15.751 40.7851 15.166Z" fill="#9FD4EF"/>
</svg>
