<svg width="32" height="35" viewBox="0 0 32 35" fill="none" xmlns="http://www.w3.org/2000/svg">
<path d="M0 10.5V29.75C0 33.6017 3.18933 35 5.33333 35H32V31.5H5.35467C4.53333 31.479 3.55556 31.1605 3.55556 29.75C3.55556 28.3395 4.53333 28.021 5.35467 28H32V3.5C32 1.56975 30.4053 0 28.4444 0H5.33333C3.18933 0 0 1.39825 0 5.25V10.5ZM5.33333 3.5H28.4444V24.5H3.55556V5.25C3.55556 3.8395 4.53333 3.521 5.33333 3.5Z" fill="#F8F8F8"/>
<path d="M15.993 21.0001L21.9485 15.2444C22.3157 14.8967 22.6079 14.4797 22.8074 14.0183C23.0069 13.5568 23.1098 13.0605 23.1098 12.559C23.1098 12.0575 23.0069 11.5612 22.8074 11.0997C22.6079 10.6383 22.3157 10.2213 21.9485 9.87363C21.2083 9.15439 20.21 8.75111 19.1699 8.75111C18.1297 8.75111 17.1315 9.15439 16.3912 9.87363L15.993 10.2551L15.5948 9.87188C14.8548 9.15275 13.8568 8.74951 12.817 8.74951C11.7771 8.74951 10.7792 9.15275 10.0392 9.87188C9.67199 10.2195 9.37987 10.6365 9.18033 11.098C8.98078 11.5594 8.87793 12.0558 8.87793 12.5573C8.87793 13.0588 8.98078 13.5551 9.18033 14.0165C9.37987 14.478 9.67199 14.895 10.0392 15.2426L15.993 21.0001Z" fill="#F8F8F8"/>
</svg>
