<svg width="28" height="28" viewBox="0 0 28 28" fill="none" xmlns="http://www.w3.org/2000/svg">
<path d="M26.9903 2.625H19.185V1.75C19.185 1.28587 18.9722 0.840752 18.5935 0.512563C18.2148 0.184374 17.7011 0 17.1655 0H10.9052C10.4053 0.0435293 9.94209 0.246951 9.60602 0.570542C9.26994 0.894133 9.08511 1.31466 9.08763 1.75V2.625H1.00974C0.741938 2.625 0.485108 2.71719 0.295745 2.88128C0.106383 3.04538 0 3.26794 0 3.5C0 3.73206 0.106383 3.95462 0.295745 4.11872C0.485108 4.28281 0.741938 4.375 1.00974 4.375H26.9903C27.2581 4.375 27.5149 4.28281 27.7043 4.11872C27.8936 3.95462 28 3.73206 28 3.5C28 3.26794 27.8936 3.04538 27.7043 2.88128C27.5149 2.71719 27.2581 2.625 26.9903 2.625Z" fill="white"/>
<path d="M2.01942 6.125V25.375C2.01003 25.7117 2.07728 26.0467 2.21735 26.3609C2.35741 26.675 2.56754 26.9622 2.83572 27.206C3.1039 27.4498 3.42489 27.6454 3.78033 27.7816C4.13577 27.9178 4.51871 27.9921 4.90727 28H23.3148C23.7076 27.9978 24.096 27.9278 24.4573 27.7941C24.8186 27.6604 25.1455 27.4657 25.419 27.2213C25.6925 26.977 25.9072 26.6879 26.0504 26.3709C26.1936 26.0539 26.2625 25.7153 26.2531 25.375V6.125H2.01942ZM11.107 23.625H9.08758V10.5H11.107V23.625ZM19.1849 23.625H17.1655V10.5H19.1849V23.625Z" fill="white"/>
</svg>
