<svg width="8" height="7" viewBox="0 0 8 7" fill="none" xmlns="http://www.w3.org/2000/svg">
<path fill-rule="evenodd" clip-rule="evenodd" d="M8.00089 3.50063C8.00089 3.63324 7.94822 3.76042 7.85445 3.85419C7.76068 3.94795 7.6335 4.00063 7.50089 4.00063H1.70789L3.85489 6.14663C3.90138 6.19312 3.93826 6.24831 3.96342 6.30905C3.98858 6.36979 4.00152 6.43489 4.00152 6.50063C4.00152 6.56638 3.98858 6.63148 3.96342 6.69222C3.93826 6.75295 3.90138 6.80814 3.85489 6.85463C3.80841 6.90112 3.75322 6.938 3.69248 6.96316C3.63174 6.98831 3.56664 7.00126 3.50089 7.00126C3.43515 7.00126 3.37005 6.98831 3.30931 6.96316C3.24857 6.938 3.19338 6.90112 3.14689 6.85463L0.146894 3.85463C0.10033 3.80819 0.0633875 3.75301 0.0381811 3.69227C0.0129746 3.63152 0 3.5664 0 3.50063C0 3.43486 0.0129746 3.36974 0.0381811 3.309C0.0633875 3.24825 0.10033 3.19308 0.146894 3.14663L3.14689 0.146632C3.24078 0.0527451 3.36812 0 3.50089 0C3.63367 0 3.76101 0.0527451 3.85489 0.146632C3.94878 0.240518 4.00152 0.367856 4.00152 0.500632C4.00152 0.633408 3.94878 0.760745 3.85489 0.854632L1.70789 3.00063H7.50089C7.6335 3.00063 7.76068 3.05331 7.85445 3.14708C7.94822 3.24085 8.00089 3.36802 8.00089 3.50063Z" fill="white"/>
</svg>
