<svg width="1438" height="187" viewBox="0 0 1438 187" fill="none" xmlns="http://www.w3.org/2000/svg">
<path fill-rule="evenodd" clip-rule="evenodd" d="M0 44.1037L34.7517 32.1957C68.305 20.2877 136.61 -3.52835 204.915 0.440988C274.418 4.41033 342.723 36.1651 411.028 44.1037C479.333 52.0424 547.638 36.1651 615.943 48.0731C684.248 59.9811 753.752 99.6745 822.057 103.644C890.362 107.613 958.667 75.8585 1026.97 67.9198C1095.28 59.9811 1163.58 75.8585 1233.09 91.7358C1301.39 107.613 1369.7 123.491 1403.25 131.429L1438 139.368V187H1403.25C1369.7 187 1301.39 187 1233.09 187C1163.58 187 1095.28 187 1026.97 187C958.667 187 890.362 187 822.057 187C753.752 187 684.248 187 615.943 187C547.638 187 479.333 187 411.028 187C342.723 187 274.418 187 204.915 187C136.61 187 68.305 187 34.7517 187H0V44.1037Z" fill="#3A7AAA"/>
</svg>
