<svg width="1439" height="197" viewBox="0 0 1439 197" fill="none" xmlns="http://www.w3.org/2000/svg">
<path fill-rule="evenodd" clip-rule="evenodd" d="M1437.23 150.213L1402.41 162.766C1368.79 175.326 1300.36 200.44 1232.08 195.845C1162.6 191.244 1094.47 156.94 1026.21 148.101C957.951 139.262 889.561 155.888 821.323 142.805C753.085 129.722 683.802 86.9237 615.52 82.3287C547.239 77.7337 478.761 111.336 410.415 119.473C342.068 127.61 273.852 110.283 204.437 92.9495C136.221 75.6223 68.0054 58.2951 34.4966 49.6346L-0.210473 40.9679L0.0511512 -9.96101L34.8018 -9.7825C68.3542 -9.61013 136.657 -9.25926 204.961 -8.90838C274.462 -8.55135 342.765 -8.20047 411.069 -7.84959C479.372 -7.49872 547.675 -7.14784 615.978 -6.79696C684.282 -6.44609 753.783 -6.08905 822.086 -5.73818C890.389 -5.3873 958.693 -5.03642 1027 -4.68554C1095.3 -4.33467 1163.6 -3.98379 1233.1 -3.62676C1301.41 -3.27588 1369.71 -2.925 1403.26 -2.75264L1438.01 -2.57413L1437.23 150.213Z" fill="#3A7AAA"/>
</svg>
