<svg width="94" height="98" viewBox="0 0 94 98" fill="none" xmlns="http://www.w3.org/2000/svg">
<ellipse cx="47" cy="49" rx="47" ry="49" fill="#6ECAEF"/>
<path fill-rule="evenodd" clip-rule="evenodd" d="M74.1475 35.8594C73.413 35.2163 72.4635 34.8995 71.5052 34.9779C70.5468 35.0563 69.657 35.5234 69.0288 36.278L61.6632 46.4783C61.2917 46.419 32.5759 46.419 32.283 46.4561L24.571 36.2335C24.2597 35.8642 23.8811 35.5623 23.457 35.3452C23.0329 35.1281 22.5716 35 22.0995 34.9683C21.6275 34.9367 21.1541 35.002 20.7065 35.1607C20.259 35.3193 19.846 35.5681 19.4915 35.8928C18.7725 36.5545 18.3348 37.4841 18.2739 38.479C18.213 39.4739 18.5338 40.4534 19.1664 41.204L26.407 50.8599C25.9504 51.8724 25.7115 52.9756 25.7069 54.0933V71.6716C25.7088 73.7228 26.4957 75.6892 27.8948 77.1392C29.2938 78.5893 31.1908 79.4042 33.1689 79.4052H60.5344C62.5126 79.4042 64.4095 78.5893 65.8086 77.1392C67.2076 75.6892 67.9945 73.7228 67.9964 71.6716V54.0933C67.9964 53.0229 67.7857 52.0118 67.407 51.0784L74.5512 41.1522C74.8601 40.7773 75.0947 40.343 75.2416 39.874C75.3886 39.405 75.4449 38.9106 75.4074 38.4191C75.3699 37.9275 75.2393 37.4484 75.0232 37.0092C74.807 36.57 74.5094 36.1793 74.1475 35.8594Z" fill="#F8F8F8"/>
<path fill-rule="evenodd" clip-rule="evenodd" d="M56.7766 27.7889L50.304 29.1704L50.379 23.8517C50.3838 23.3698 50.2958 22.8917 50.1201 22.4455C49.9444 21.9993 49.6847 21.5939 49.356 21.2531C49.0273 20.9123 48.6364 20.6429 48.206 20.4608C47.7757 20.2786 47.3146 20.1874 46.8498 20.1923C44.8781 20.1997 43.2778 21.8628 43.2706 23.9036L43.3814 29.063L37.0195 27.7889C36.5517 28.272 36.2879 28.9279 36.2859 29.6125C36.2839 30.2972 36.5439 30.9547 37.0088 31.4408L45.0995 41.3522C46.0676 42.356 47.6428 42.3523 48.618 41.3374L56.7551 31.4408C57.2244 30.9591 57.4901 30.3041 57.4941 29.6194C57.4982 28.9348 57.2401 28.2765 56.7766 27.7889Z" fill="#F8F8F8"/>
</svg>
