<svg width="50" height="60" viewBox="0 0 62 86" fill="none" xmlns="http://www.w3.org/2000/svg">
<path d="M3.12622 70.1543C3.17288 70.1543 3.21955 70.1643 3.26622 70.1843C3.31955 70.2043 3.36288 70.2376 3.39622 70.2843L6.15622 74.4243L5.88622 74.4143L8.65622 70.2843C8.72955 70.1843 8.81955 70.141 8.92622 70.1543C9.00622 70.1543 9.07288 70.1843 9.12622 70.2443C9.18622 70.2976 9.21622 70.3676 9.21622 70.4543V76.8543C9.21622 76.9343 9.18622 77.0043 9.12622 77.0643C9.06622 77.1243 8.99288 77.1543 8.90622 77.1543C8.81288 77.1543 8.73622 77.1243 8.67622 77.0643C8.61622 77.0043 8.58622 76.9343 8.58622 76.8543V71.0643L8.76622 71.0843L6.23622 74.9143C6.21622 74.9543 6.18622 74.9876 6.14622 75.0143C6.10622 75.0343 6.05955 75.041 6.00622 75.0343C5.95955 75.041 5.91288 75.0343 5.86622 75.0143C5.82622 74.9876 5.79288 74.9543 5.76622 74.9143L3.22622 71.0443L3.41622 70.9143V76.8543C3.41622 76.9343 3.38622 77.0043 3.32622 77.0643C3.27288 77.1243 3.20288 77.1543 3.11622 77.1543C3.02955 77.1543 2.95955 77.1243 2.90622 77.0643C2.85288 77.0043 2.82622 76.9343 2.82622 76.8543V70.4543C2.82622 70.3743 2.85288 70.3043 2.90622 70.2443C2.96622 70.1843 3.03955 70.1543 3.12622 70.1543ZM11.5277 76.8543C11.5277 76.9343 11.4977 77.0043 11.4377 77.0643C11.3777 77.1243 11.3077 77.1543 11.2277 77.1543C11.141 77.1543 11.0677 77.1243 11.0077 77.0643C10.9544 77.0043 10.9277 76.9343 10.9277 76.8543V72.2543C10.9277 72.1743 10.9544 72.1043 11.0077 72.0443C11.0677 71.9843 11.141 71.9543 11.2277 71.9543C11.3144 71.9543 11.3844 71.9843 11.4377 72.0443C11.4977 72.1043 11.5277 72.1743 11.5277 72.2543V76.8543ZM11.2277 71.2843C11.0877 71.2843 10.981 71.2543 10.9077 71.1943C10.841 71.1276 10.8077 71.0343 10.8077 70.9143V70.8143C10.8077 70.6943 10.8444 70.6043 10.9177 70.5443C10.9977 70.4776 11.1044 70.4443 11.2377 70.4443C11.3644 70.4443 11.461 70.4776 11.5277 70.5443C11.601 70.6043 11.6377 70.6943 11.6377 70.8143V70.9143C11.6377 71.0343 11.601 71.1276 11.5277 71.1943C11.461 71.2543 11.361 71.2843 11.2277 71.2843ZM15.4964 71.9243C15.9364 71.9243 16.2864 72.0143 16.5464 72.1943C16.813 72.3676 17.003 72.6076 17.1164 72.9143C17.2364 73.2143 17.2964 73.5476 17.2964 73.9143V76.8543C17.2964 76.9343 17.2664 77.0043 17.2064 77.0643C17.1464 77.1243 17.0764 77.1543 16.9964 77.1543C16.903 77.1543 16.8297 77.1243 16.7764 77.0643C16.723 77.0043 16.6964 76.9343 16.6964 76.8543V73.9443C16.6964 73.6776 16.653 73.4343 16.5664 73.2143C16.4797 72.9943 16.3364 72.8176 16.1364 72.6843C15.943 72.551 15.6864 72.4843 15.3664 72.4843C15.0797 72.4843 14.8064 72.551 14.5464 72.6843C14.293 72.8176 14.0864 72.9943 13.9264 73.2143C13.7664 73.4343 13.6864 73.6776 13.6864 73.9443V76.8543C13.6864 76.9343 13.6564 77.0043 13.5964 77.0643C13.5364 77.1243 13.4664 77.1543 13.3864 77.1543C13.293 77.1543 13.2197 77.1243 13.1664 77.0643C13.113 77.0043 13.0864 76.9343 13.0864 76.8543V72.3743C13.0864 72.2943 13.113 72.2243 13.1664 72.1643C13.2264 72.1043 13.2997 72.0743 13.3864 72.0743C13.473 72.0743 13.543 72.1043 13.5964 72.1643C13.6564 72.2243 13.6864 72.2943 13.6864 72.3743V73.2143L13.4564 73.5743C13.4697 73.361 13.5364 73.1576 13.6564 72.9643C13.783 72.7643 13.943 72.5876 14.1364 72.4343C14.3297 72.2743 14.543 72.151 14.7764 72.0643C15.0164 71.971 15.2564 71.9243 15.4964 71.9243ZM21.1976 72.0043C21.6176 72.0043 21.9576 72.0943 22.2176 72.2743C22.4776 72.4543 22.6676 72.6976 22.7876 73.0043C22.9143 73.311 22.9776 73.651 22.9776 74.0243V76.8543C22.9776 76.9343 22.9476 77.0043 22.8876 77.0643C22.8276 77.1243 22.7576 77.1543 22.6776 77.1543C22.5843 77.1543 22.511 77.1243 22.4576 77.0643C22.4043 77.0043 22.3776 76.9343 22.3776 76.8543V74.0243C22.3776 73.751 22.3343 73.5043 22.2476 73.2843C22.1676 73.0643 22.0343 72.891 21.8476 72.7643C21.661 72.631 21.411 72.5643 21.0976 72.5643C20.8176 72.5643 20.551 72.631 20.2976 72.7643C20.051 72.891 19.851 73.0643 19.6976 73.2843C19.5443 73.5043 19.4676 73.751 19.4676 74.0243V76.8543C19.4676 76.9343 19.4376 77.0043 19.3776 77.0643C19.3176 77.1243 19.2476 77.1543 19.1676 77.1543C19.0743 77.1543 19.001 77.1243 18.9476 77.0643C18.8943 77.0043 18.8676 76.9343 18.8676 76.8543V70.0543C18.8676 69.9743 18.8943 69.9043 18.9476 69.8443C19.0076 69.7843 19.081 69.7543 19.1676 69.7543C19.2543 69.7543 19.3243 69.7843 19.3776 69.8443C19.4376 69.9043 19.4676 69.9743 19.4676 70.0543V73.2943L19.2376 73.6443C19.251 73.4376 19.3143 73.2376 19.4276 73.0443C19.5476 72.8443 19.701 72.6676 19.8876 72.5143C20.0743 72.3543 20.281 72.231 20.5076 72.1443C20.7343 72.051 20.9643 72.0043 21.1976 72.0043ZM28.7412 72.0443C28.8279 72.0443 28.8979 72.0743 28.9512 72.1343C29.0112 72.1943 29.0412 72.2676 29.0412 72.3543V76.8543C29.0412 76.9343 29.0112 77.0043 28.9512 77.0643C28.8912 77.1243 28.8212 77.1543 28.7412 77.1543C28.6545 77.1543 28.5812 77.1243 28.5212 77.0643C28.4679 77.0043 28.4412 76.9343 28.4412 76.8543V75.6643L28.6112 75.5843C28.6112 75.771 28.5579 75.961 28.4512 76.1543C28.3512 76.3476 28.2112 76.5276 28.0312 76.6943C27.8512 76.861 27.6379 76.9976 27.3912 77.1043C27.1512 77.2043 26.8912 77.2543 26.6112 77.2543C26.1579 77.2543 25.7512 77.1376 25.3912 76.9043C25.0379 76.671 24.7579 76.351 24.5512 75.9443C24.3512 75.5376 24.2512 75.081 24.2512 74.5743C24.2512 74.0543 24.3545 73.5976 24.5612 73.2043C24.7679 72.8043 25.0479 72.491 25.4012 72.2643C25.7545 72.0376 26.1545 71.9243 26.6012 71.9243C26.8879 71.9243 27.1545 71.9743 27.4012 72.0743C27.6545 72.1743 27.8745 72.311 28.0612 72.4843C28.2479 72.6576 28.3912 72.8576 28.4912 73.0843C28.5979 73.3043 28.6512 73.5343 28.6512 73.7743L28.4412 73.6243V72.3543C28.4412 72.2676 28.4679 72.1943 28.5212 72.1343C28.5812 72.0743 28.6545 72.0443 28.7412 72.0443ZM26.6612 76.6943C27.0145 76.6943 27.3279 76.6043 27.6012 76.4243C27.8745 76.2376 28.0879 75.9843 28.2412 75.6643C28.4012 75.3376 28.4812 74.9743 28.4812 74.5743C28.4812 74.181 28.4012 73.8276 28.2412 73.5143C28.0879 73.201 27.8745 72.951 27.6012 72.7643C27.3279 72.5776 27.0145 72.4843 26.6612 72.4843C26.3145 72.4843 26.0012 72.5743 25.7212 72.7543C25.4479 72.9343 25.2312 73.181 25.0712 73.4943C24.9179 73.8076 24.8412 74.1676 24.8412 74.5743C24.8412 74.9743 24.9179 75.3376 25.0712 75.6643C25.2312 75.9843 25.4479 76.2376 25.7212 76.4243C25.9945 76.6043 26.3079 76.6943 26.6612 76.6943ZM38.61 70.6743C38.69 70.7276 38.7367 70.7976 38.75 70.8843C38.7634 70.9643 38.7434 71.0443 38.69 71.1243C38.6434 71.1843 38.5834 71.2176 38.51 71.2243C38.4367 71.231 38.3667 71.2176 38.3 71.1843C38.0467 71.0176 37.7734 70.8876 37.48 70.7943C37.1934 70.701 36.8834 70.6543 36.55 70.6543C36.1434 70.6543 35.7634 70.7276 35.41 70.8743C35.0634 71.0143 34.76 71.221 34.5 71.4943C34.24 71.761 34.0367 72.0776 33.89 72.4443C33.75 72.811 33.68 73.2143 33.68 73.6543C33.68 74.1076 33.7534 74.521 33.9 74.8943C34.0467 75.261 34.25 75.5776 34.51 75.8443C34.7767 76.111 35.0834 76.3143 35.43 76.4543C35.7767 76.5943 36.15 76.6643 36.55 76.6643C36.8767 76.6643 37.1834 76.6176 37.47 76.5243C37.7634 76.431 38.0367 76.3043 38.29 76.1443C38.3567 76.1043 38.4267 76.091 38.5 76.1043C38.58 76.111 38.6434 76.1476 38.69 76.2143C38.75 76.2876 38.77 76.3676 38.75 76.4543C38.7367 76.5343 38.6934 76.5976 38.62 76.6443C38.4534 76.751 38.2567 76.851 38.03 76.9443C37.8034 77.0376 37.5634 77.111 37.31 77.1643C37.0567 77.2243 36.8034 77.2543 36.55 77.2543C36.07 77.2543 35.62 77.1676 35.2 76.9943C34.78 76.821 34.4067 76.5776 34.08 76.2643C33.7534 75.9443 33.4967 75.5643 33.31 75.1243C33.13 74.6843 33.04 74.1943 33.04 73.6543C33.04 73.1343 33.13 72.6576 33.31 72.2243C33.49 71.7843 33.74 71.4043 34.06 71.0843C34.38 70.7643 34.7534 70.5143 35.18 70.3343C35.6067 70.1543 36.0634 70.0643 36.55 70.0643C36.93 70.0643 37.2967 70.1176 37.65 70.2243C38.0034 70.331 38.3234 70.481 38.61 70.6743ZM44.6432 74.5943C44.6432 75.101 44.5332 75.5576 44.3132 75.9643C44.0932 76.3643 43.7932 76.681 43.4132 76.9143C43.0332 77.141 42.5999 77.2543 42.1132 77.2543C41.6399 77.2543 41.2099 77.141 40.8232 76.9143C40.4432 76.681 40.1399 76.3643 39.9132 75.9643C39.6932 75.5576 39.5832 75.101 39.5832 74.5943C39.5832 74.081 39.6932 73.6243 39.9132 73.2243C40.1399 72.8243 40.4432 72.5076 40.8232 72.2743C41.2099 72.041 41.6399 71.9243 42.1132 71.9243C42.5999 71.9243 43.0332 72.041 43.4132 72.2743C43.7932 72.5076 44.0932 72.8243 44.3132 73.2243C44.5332 73.6243 44.6432 74.081 44.6432 74.5943ZM44.0432 74.5943C44.0432 74.1876 43.9599 73.8276 43.7932 73.5143C43.6266 73.1943 43.3966 72.9443 43.1032 72.7643C42.8166 72.5776 42.4866 72.4843 42.1132 72.4843C41.7532 72.4843 41.4266 72.5776 41.1332 72.7643C40.8399 72.9443 40.6066 73.1943 40.4332 73.5143C40.2666 73.8276 40.1832 74.1876 40.1832 74.5943C40.1832 75.001 40.2666 75.361 40.4332 75.6743C40.6066 75.9876 40.8399 76.2376 41.1332 76.4243C41.4266 76.6043 41.7532 76.6943 42.1132 76.6943C42.4866 76.6943 42.8166 76.6043 43.1032 76.4243C43.3966 76.2376 43.6266 75.9876 43.7932 75.6743C43.9599 75.361 44.0432 75.001 44.0432 74.5943ZM48.3284 71.9243C48.7684 71.9243 49.1184 72.0143 49.3784 72.1943C49.6451 72.3676 49.8351 72.6076 49.9484 72.9143C50.0684 73.2143 50.1284 73.5476 50.1284 73.9143V76.8543C50.1284 76.9343 50.0984 77.0043 50.0384 77.0643C49.9784 77.1243 49.9084 77.1543 49.8284 77.1543C49.7351 77.1543 49.6617 77.1243 49.6084 77.0643C49.5551 77.0043 49.5284 76.9343 49.5284 76.8543V73.9443C49.5284 73.6776 49.4851 73.4343 49.3984 73.2143C49.3117 72.9943 49.1684 72.8176 48.9684 72.6843C48.7751 72.551 48.5184 72.4843 48.1984 72.4843C47.9117 72.4843 47.6384 72.551 47.3784 72.6843C47.1251 72.8176 46.9184 72.9943 46.7584 73.2143C46.5984 73.4343 46.5184 73.6776 46.5184 73.9443V76.8543C46.5184 76.9343 46.4884 77.0043 46.4284 77.0643C46.3684 77.1243 46.2984 77.1543 46.2184 77.1543C46.1251 77.1543 46.0517 77.1243 45.9984 77.0643C45.9451 77.0043 45.9184 76.9343 45.9184 76.8543V72.3743C45.9184 72.2943 45.9451 72.2243 45.9984 72.1643C46.0584 72.1043 46.1317 72.0743 46.2184 72.0743C46.3051 72.0743 46.3751 72.1043 46.4284 72.1643C46.4884 72.2243 46.5184 72.2943 46.5184 72.3743V73.2143L46.2884 73.5743C46.3017 73.361 46.3684 73.1576 46.4884 72.9643C46.6151 72.7643 46.7751 72.5876 46.9684 72.4343C47.1617 72.2743 47.3751 72.151 47.6084 72.0643C47.8484 71.971 48.0884 71.9243 48.3284 71.9243ZM51.3697 72.0643H53.6997C53.7797 72.0643 53.8463 72.0943 53.8997 72.1543C53.953 72.2076 53.9797 72.2743 53.9797 72.3543C53.9797 72.4276 53.953 72.491 53.8997 72.5443C53.8463 72.5976 53.7797 72.6243 53.6997 72.6243H51.3697C51.2897 72.6243 51.2197 72.5976 51.1597 72.5443C51.1063 72.4843 51.0797 72.4176 51.0797 72.3443C51.0797 72.2643 51.1063 72.1976 51.1597 72.1443C51.2197 72.091 51.2897 72.0643 51.3697 72.0643ZM52.3997 70.6543C52.4863 70.6543 52.5563 70.6843 52.6097 70.7443C52.6697 70.8043 52.6997 70.8743 52.6997 70.9543V75.9743C52.6997 76.161 52.723 76.301 52.7697 76.3943C52.823 76.4876 52.8897 76.551 52.9697 76.5843C53.0497 76.611 53.1297 76.6243 53.2097 76.6243C53.263 76.6243 53.3097 76.6176 53.3497 76.6043C53.3963 76.5843 53.4463 76.5743 53.4997 76.5743C53.5597 76.5743 53.6097 76.5976 53.6497 76.6443C53.6963 76.691 53.7197 76.751 53.7197 76.8243C53.7197 76.9176 53.6663 76.9976 53.5597 77.0643C53.453 77.1243 53.3263 77.1543 53.1797 77.1543C53.1197 77.1543 53.0297 77.151 52.9097 77.1443C52.7897 77.131 52.6663 77.0943 52.5397 77.0343C52.413 76.9676 52.3063 76.8543 52.2197 76.6943C52.1397 76.5343 52.0997 76.3043 52.0997 76.0043V70.9543C52.0997 70.8743 52.1263 70.8043 52.1797 70.7443C52.2397 70.6843 52.313 70.6543 52.3997 70.6543ZM59.2783 72.0443C59.365 72.0443 59.435 72.0743 59.4883 72.1343C59.5483 72.1943 59.5783 72.2676 59.5783 72.3543V76.8543C59.5783 76.9343 59.5483 77.0043 59.4883 77.0643C59.4283 77.1243 59.3583 77.1543 59.2783 77.1543C59.1917 77.1543 59.1183 77.1243 59.0583 77.0643C59.005 77.0043 58.9783 76.9343 58.9783 76.8543V75.6643L59.1483 75.5843C59.1483 75.771 59.095 75.961 58.9883 76.1543C58.8883 76.3476 58.7483 76.5276 58.5683 76.6943C58.3883 76.861 58.175 76.9976 57.9283 77.1043C57.6883 77.2043 57.4283 77.2543 57.1483 77.2543C56.695 77.2543 56.2883 77.1376 55.9283 76.9043C55.575 76.671 55.295 76.351 55.0883 75.9443C54.8883 75.5376 54.7883 75.081 54.7883 74.5743C54.7883 74.0543 54.8917 73.5976 55.0983 73.2043C55.305 72.8043 55.585 72.491 55.9383 72.2643C56.2917 72.0376 56.6917 71.9243 57.1383 71.9243C57.425 71.9243 57.6917 71.9743 57.9383 72.0743C58.1917 72.1743 58.4117 72.311 58.5983 72.4843C58.785 72.6576 58.9283 72.8576 59.0283 73.0843C59.135 73.3043 59.1883 73.5343 59.1883 73.7743L58.9783 73.6243V72.3543C58.9783 72.2676 59.005 72.1943 59.0583 72.1343C59.1183 72.0743 59.1917 72.0443 59.2783 72.0443ZM57.1983 76.6943C57.5517 76.6943 57.865 76.6043 58.1383 76.4243C58.4117 76.2376 58.625 75.9843 58.7783 75.6643C58.9383 75.3376 59.0183 74.9743 59.0183 74.5743C59.0183 74.181 58.9383 73.8276 58.7783 73.5143C58.625 73.201 58.4117 72.951 58.1383 72.7643C57.865 72.5776 57.5517 72.4843 57.1983 72.4843C56.8517 72.4843 56.5383 72.5743 56.2583 72.7543C55.985 72.9343 55.7683 73.181 55.6083 73.4943C55.455 73.8076 55.3783 74.1676 55.3783 74.5743C55.3783 74.9743 55.455 75.3376 55.6083 75.6643C55.7683 75.9843 55.985 76.2376 56.2583 76.4243C56.5317 76.6043 56.845 76.6943 57.1983 76.6943Z" fill="white"/>
<path d="M31.2277 1.01172C16.7421 1.01172 5 13.7078 5 29.3702C5 45.0325 16.7421 57.7286 31.2277 57.7286C45.7132 57.7286 57.4553 45.0325 57.4553 29.3702C57.4553 13.7078 45.7132 1.01172 31.2277 1.01172Z" stroke="#6ECAEF" stroke-width="1.5" stroke-linecap="round" stroke-linejoin="round"/>
<path d="M10.9561 47.3657C10.9561 47.3657 16.8022 39.2949 31.2274 39.2949C45.6526 39.2949 51.5013 47.3657 51.5013 47.3657" stroke="#6ECAEF" stroke-width="1.5" stroke-linecap="round" stroke-linejoin="round"/>
<path d="M31.2267 29.3705C33.3135 29.3705 35.3148 28.4742 36.7904 26.8787C38.266 25.2833 39.095 23.1193 39.095 20.863C39.095 18.6067 38.266 16.4427 36.7904 14.8473C35.3148 13.2518 33.3135 12.3555 31.2267 12.3555C29.1399 12.3555 27.1386 13.2518 25.663 14.8473C24.1874 16.4427 23.3584 18.6067 23.3584 20.863C23.3584 23.1193 24.1874 25.2833 25.663 26.8787C27.1386 28.4742 29.1399 29.3705 31.2267 29.3705V29.3705Z" stroke="#6ECAEF" stroke-width="1.5" stroke-linecap="round" stroke-linejoin="round"/>
</svg>
