<svg width="55" height="47" viewBox="0 0 55 47" fill="none" xmlns="http://www.w3.org/2000/svg">
<path d="M27.2279 1.78125C12.7424 1.78125 1.00024 11.6058 1.00024 23.7258C1.00024 35.8458 12.7424 45.6704 27.2279 45.6704C41.7135 45.6704 53.4556 35.8458 53.4556 23.7258C53.4556 11.6058 41.7135 1.78125 27.2279 1.78125Z" stroke="#6ECAEF" stroke-width="2" stroke-linecap="round" stroke-linejoin="round"/>
<path d="M6.9563 37.6517C6.9563 37.6517 12.8024 31.4062 27.2276 31.4062C41.6529 31.4062 47.5016 37.6517 47.5016 37.6517" stroke="#6ECAEF" stroke-width="2" stroke-linecap="round" stroke-linejoin="round"/>
<path d="M27.227 23.7253C29.3138 23.7253 31.3151 23.0317 32.7907 21.7971C34.2663 20.5625 35.0953 18.888 35.0953 17.142C35.0953 15.3959 34.2663 13.7214 32.7907 12.4868C31.3151 11.2522 29.3138 10.5586 27.227 10.5586C25.1401 10.5586 23.1388 11.2522 21.6632 12.4868C20.1876 13.7214 19.3586 15.3959 19.3586 17.142C19.3586 18.888 20.1876 20.5625 21.6632 21.7971C23.1388 23.0317 25.1401 23.7253 27.227 23.7253V23.7253Z" stroke="#6ECAEF" stroke-width="1.5" stroke-linecap="round" stroke-linejoin="round"/>
</svg>
