<svg width="36" height="21" viewBox="0 0 36 21" fill="none" xmlns="http://www.w3.org/2000/svg">
<path d="M34.2 0H1.8C1.32261 0 0.864773 0.158036 0.527208 0.43934C0.189642 0.720645 0 1.10218 0 1.5V7.5H1.6074C3.4002 7.5 5.0634 8.5215 5.3514 9.996C5.43914 10.4266 5.41307 10.8679 5.27502 11.2892C5.13696 11.7105 4.89025 12.1016 4.5521 12.4352C4.21394 12.7689 3.7925 13.037 3.31716 13.2209C2.84183 13.4048 2.32406 13.5001 1.8 13.5H0V19.5C0 19.8978 0.189642 20.2794 0.527208 20.5607C0.864773 20.842 1.32261 21 1.8 21H34.2C34.6774 21 35.1352 20.842 35.4728 20.5607C35.8104 20.2794 36 19.8978 36 19.5V13.5H34.2C33.6759 13.5001 33.1582 13.4048 32.6828 13.2209C32.2075 13.037 31.7861 12.7689 31.4479 12.4352C31.1097 12.1016 30.863 11.7105 30.725 11.2892C30.5869 10.8679 30.5609 10.4266 30.6486 9.996C30.9366 8.5215 32.5998 7.5 34.3926 7.5H36V1.5C36 1.10218 35.8104 0.720645 35.4728 0.43934C35.1352 0.158036 34.6774 0 34.2 0ZM12.6 6C13.0774 6 13.5352 6.15804 13.8728 6.43934C14.2104 6.72064 14.4 7.10218 14.4 7.5C14.4 7.89782 14.2104 8.27936 13.8728 8.56066C13.5352 8.84196 13.0774 9 12.6 9C12.1226 9 11.6648 8.84196 11.3272 8.56066C10.9896 8.27936 10.8 7.89782 10.8 7.5C10.8 7.10218 10.9896 6.72064 11.3272 6.43934C11.6648 6.15804 12.1226 6 12.6 6ZM11.16 15.6L21.96 3.6L24.84 5.4L14.04 17.4L11.16 15.6ZM23.4 15C22.9226 15 22.4648 14.842 22.1272 14.5607C21.7896 14.2794 21.6 13.8978 21.6 13.5C21.6 13.1022 21.7896 12.7206 22.1272 12.4393C22.4648 12.158 22.9226 12 23.4 12C23.8774 12 24.3352 12.158 24.6728 12.4393C25.0104 12.7206 25.2 13.1022 25.2 13.5C25.2 13.8978 25.0104 14.2794 24.6728 14.5607C24.3352 14.842 23.8774 15 23.4 15Z" fill="#F8F8F8"/>
</svg>
