<svg width="35" height="35" viewBox="0 0 35 35" fill="none" xmlns="http://www.w3.org/2000/svg">
<path d="M17.5 0C20.9612 0 24.3446 1.02636 27.2225 2.94928C30.1003 4.87221 32.3434 7.60533 33.6679 10.803C34.9924 14.0007 35.339 17.5194 34.6637 20.9141C33.9885 24.3087 32.3218 27.4269 29.8744 29.8744C27.4269 32.3218 24.3087 33.9885 20.9141 34.6637C17.5194 35.339 14.0007 34.9924 10.803 33.6679C7.60533 32.3434 4.8722 30.1003 2.94928 27.2225C1.02636 24.3446 0 20.9612 0 17.5C0 12.8587 1.84374 8.40752 5.12563 5.12563C8.40751 1.84374 12.8587 0 17.5 0ZM8.75 24.1719C8.45992 24.462 8.29695 24.8554 8.29695 25.2656C8.29695 25.6759 8.45992 26.0693 8.75 26.3594C9.04008 26.6495 9.43351 26.8124 9.84375 26.8124C10.254 26.8124 10.6474 26.6495 10.9375 26.3594L17.5 19.7969L24.0625 26.3812C24.2061 26.5249 24.3766 26.6388 24.5643 26.7165C24.752 26.7943 24.9531 26.8343 25.1562 26.8343C25.3594 26.8343 25.5605 26.7943 25.7482 26.7165C25.9358 26.6388 26.1064 26.5249 26.25 26.3812C26.3936 26.2376 26.5076 26.0671 26.5853 25.8794C26.663 25.6918 26.703 25.4906 26.703 25.2875C26.703 25.0844 26.663 24.8832 26.5853 24.6956C26.5076 24.5079 26.3936 24.3374 26.25 24.1937L19.6875 17.5875L26.4359 10.7844C26.726 10.4943 26.889 10.1009 26.889 9.69062C26.889 9.28039 26.726 8.88695 26.4359 8.59687C26.1459 8.30679 25.7524 8.14383 25.3422 8.14383C24.9319 8.14383 24.5385 8.30679 24.2484 8.59687L17.5 15.4219L10.7516 8.67344C10.6079 8.5298 10.4374 8.41587 10.2497 8.33813C10.0621 8.2604 9.86094 8.22039 9.65781 8.22039C9.45468 8.22039 9.25354 8.2604 9.06588 8.33813C8.87821 8.41587 8.70769 8.5298 8.56406 8.67344C8.42043 8.81707 8.30649 8.98759 8.22876 9.17525C8.15102 9.36292 8.11101 9.56406 8.11101 9.76719C8.11101 9.97031 8.15102 10.1715 8.22876 10.3591C8.30649 10.5468 8.42043 10.7173 8.56406 10.8609L15.3125 17.5875L8.75 24.1719Z" fill="white"/>
</svg>
