<svg width="94" height="98" viewBox="0 0 94 98" fill="none" xmlns="http://www.w3.org/2000/svg">
<ellipse cx="47" cy="49" rx="47" ry="49" fill="#6ECAEF"/>
<path d="M20.7579 58.3125L18.6421 54H33.4526L31.76 49.6875H17.9368L15.8211 45.375H37.8253L36.1326 41.0625H15.4261L13 36.75H23.5789C23.5789 35.225 24.1734 33.7625 25.2315 32.6841C26.2896 31.6058 27.7247 31 29.2211 31H63.0737V42.5H71.5368L80 54V68.375H74.3579C74.3579 70.6625 73.4662 72.8563 71.8791 74.4738C70.2919 76.0913 68.1393 77 65.8947 77C63.6502 77 61.4975 76.0913 59.9104 74.4738C58.3232 72.8563 57.4316 70.6625 57.4316 68.375H46.1474C46.1474 70.6625 45.2557 72.8563 43.6686 74.4738C42.0814 76.0913 39.9288 77 37.6842 77C35.4396 77 33.287 76.0913 31.6999 74.4738C30.1127 72.8563 29.2211 70.6625 29.2211 68.375H23.5789V58.3125H20.7579ZM65.8947 72.6875C67.017 72.6875 68.0933 72.2331 68.8869 71.4244C69.6805 70.6156 70.1263 69.5187 70.1263 68.375C70.1263 67.2313 69.6805 66.1344 68.8869 65.3256C68.0933 64.5168 67.017 64.0625 65.8947 64.0625C64.7724 64.0625 63.6961 64.5168 62.9026 65.3256C62.109 66.1344 61.6632 67.2313 61.6632 68.375C61.6632 69.5187 62.109 70.6156 62.9026 71.4244C63.6961 72.2331 64.7724 72.6875 65.8947 72.6875ZM70.1263 46.8125H63.0737V54H75.6556L70.1263 46.8125ZM37.6842 72.6875C38.8065 72.6875 39.8828 72.2331 40.6764 71.4244C41.47 70.6156 41.9158 69.5187 41.9158 68.375C41.9158 67.2313 41.47 66.1344 40.6764 65.3256C39.8828 64.5168 38.8065 64.0625 37.6842 64.0625C36.5619 64.0625 35.4856 64.5168 34.692 65.3256C33.8985 66.1344 33.4526 67.2313 33.4526 68.375C33.4526 69.5187 33.8985 70.6156 34.692 71.4244C35.4856 72.2331 36.5619 72.6875 37.6842 72.6875Z" fill="#F8F8F8"/>
</svg>
