<svg width="62" height="65" viewBox="0 0 62 65" fill="none" xmlns="http://www.w3.org/2000/svg">
<path d="M2.78662 54C2.83328 54 2.87995 54.01 2.92662 54.03C2.97995 54.05 3.02328 54.0833 3.05662 54.13L5.81662 58.27L5.54662 58.26L8.31662 54.13C8.38995 54.03 8.47995 53.9867 8.58662 54C8.66662 54 8.73328 54.03 8.78662 54.09C8.84662 54.1433 8.87662 54.2133 8.87662 54.3V60.7C8.87662 60.78 8.84662 60.85 8.78662 60.91C8.72662 60.97 8.65328 61 8.56662 61C8.47328 61 8.39662 60.97 8.33662 60.91C8.27662 60.85 8.24662 60.78 8.24662 60.7V54.91L8.42662 54.93L5.89662 58.76C5.87662 58.8 5.84662 58.8333 5.80662 58.86C5.76662 58.88 5.71995 58.8867 5.66662 58.88C5.61995 58.8867 5.57328 58.88 5.52662 58.86C5.48662 58.8333 5.45328 58.8 5.42662 58.76L2.88662 54.89L3.07662 54.76V60.7C3.07662 60.78 3.04662 60.85 2.98662 60.91C2.93328 60.97 2.86328 61 2.77662 61C2.68995 61 2.61995 60.97 2.56662 60.91C2.51328 60.85 2.48662 60.78 2.48662 60.7V54.3C2.48662 54.22 2.51328 54.15 2.56662 54.09C2.62662 54.03 2.69995 54 2.78662 54ZM11.1881 60.7C11.1881 60.78 11.1581 60.85 11.0981 60.91C11.0381 60.97 10.9681 61 10.8881 61C10.8014 61 10.7281 60.97 10.6681 60.91C10.6148 60.85 10.5881 60.78 10.5881 60.7V56.1C10.5881 56.02 10.6148 55.95 10.6681 55.89C10.7281 55.83 10.8014 55.8 10.8881 55.8C10.9748 55.8 11.0448 55.83 11.0981 55.89C11.1581 55.95 11.1881 56.02 11.1881 56.1V60.7ZM10.8881 55.13C10.7481 55.13 10.6414 55.1 10.5681 55.04C10.5014 54.9733 10.4681 54.88 10.4681 54.76V54.66C10.4681 54.54 10.5048 54.45 10.5781 54.39C10.6581 54.3233 10.7648 54.29 10.8981 54.29C11.0248 54.29 11.1214 54.3233 11.1881 54.39C11.2614 54.45 11.2981 54.54 11.2981 54.66V54.76C11.2981 54.88 11.2614 54.9733 11.1881 55.04C11.1214 55.1 11.0214 55.13 10.8881 55.13ZM15.1568 55.77C15.5968 55.77 15.9468 55.86 16.2068 56.04C16.4734 56.2133 16.6634 56.4533 16.7768 56.76C16.8968 57.06 16.9568 57.3933 16.9568 57.76V60.7C16.9568 60.78 16.9268 60.85 16.8668 60.91C16.8068 60.97 16.7368 61 16.6568 61C16.5634 61 16.4901 60.97 16.4368 60.91C16.3834 60.85 16.3568 60.78 16.3568 60.7V57.79C16.3568 57.5233 16.3134 57.28 16.2268 57.06C16.1401 56.84 15.9968 56.6633 15.7968 56.53C15.6034 56.3967 15.3468 56.33 15.0268 56.33C14.7401 56.33 14.4668 56.3967 14.2068 56.53C13.9534 56.6633 13.7468 56.84 13.5868 57.06C13.4268 57.28 13.3468 57.5233 13.3468 57.79V60.7C13.3468 60.78 13.3168 60.85 13.2568 60.91C13.1968 60.97 13.1268 61 13.0468 61C12.9534 61 12.8801 60.97 12.8268 60.91C12.7734 60.85 12.7468 60.78 12.7468 60.7V56.22C12.7468 56.14 12.7734 56.07 12.8268 56.01C12.8868 55.95 12.9601 55.92 13.0468 55.92C13.1334 55.92 13.2034 55.95 13.2568 56.01C13.3168 56.07 13.3468 56.14 13.3468 56.22V57.06L13.1168 57.42C13.1301 57.2067 13.1968 57.0033 13.3168 56.81C13.4434 56.61 13.6034 56.4333 13.7968 56.28C13.9901 56.12 14.2034 55.9967 14.4368 55.91C14.6768 55.8167 14.9168 55.77 15.1568 55.77ZM20.858 55.85C21.278 55.85 21.618 55.94 21.878 56.12C22.138 56.3 22.328 56.5433 22.448 56.85C22.5747 57.1567 22.638 57.4967 22.638 57.87V60.7C22.638 60.78 22.608 60.85 22.548 60.91C22.488 60.97 22.418 61 22.338 61C22.2447 61 22.1714 60.97 22.118 60.91C22.0647 60.85 22.038 60.78 22.038 60.7V57.87C22.038 57.5967 21.9947 57.35 21.908 57.13C21.828 56.91 21.6947 56.7367 21.508 56.61C21.3214 56.4767 21.0714 56.41 20.758 56.41C20.478 56.41 20.2114 56.4767 19.958 56.61C19.7114 56.7367 19.5114 56.91 19.358 57.13C19.2047 57.35 19.128 57.5967 19.128 57.87V60.7C19.128 60.78 19.098 60.85 19.038 60.91C18.978 60.97 18.908 61 18.828 61C18.7347 61 18.6614 60.97 18.608 60.91C18.5547 60.85 18.528 60.78 18.528 60.7V53.9C18.528 53.82 18.5547 53.75 18.608 53.69C18.668 53.63 18.7414 53.6 18.828 53.6C18.9147 53.6 18.9847 53.63 19.038 53.69C19.098 53.75 19.128 53.82 19.128 53.9V57.14L18.898 57.49C18.9114 57.2833 18.9747 57.0833 19.088 56.89C19.208 56.69 19.3614 56.5133 19.548 56.36C19.7347 56.2 19.9414 56.0767 20.168 55.99C20.3947 55.8967 20.6247 55.85 20.858 55.85ZM28.4016 55.89C28.4883 55.89 28.5583 55.92 28.6116 55.98C28.6716 56.04 28.7016 56.1133 28.7016 56.2V60.7C28.7016 60.78 28.6716 60.85 28.6116 60.91C28.5516 60.97 28.4816 61 28.4016 61C28.3149 61 28.2416 60.97 28.1816 60.91C28.1283 60.85 28.1016 60.78 28.1016 60.7V59.51L28.2716 59.43C28.2716 59.6167 28.2183 59.8067 28.1116 60C28.0116 60.1933 27.8716 60.3733 27.6916 60.54C27.5116 60.7067 27.2983 60.8433 27.0516 60.95C26.8116 61.05 26.5516 61.1 26.2716 61.1C25.8183 61.1 25.4116 60.9833 25.0516 60.75C24.6983 60.5167 24.4183 60.1967 24.2116 59.79C24.0116 59.3833 23.9116 58.9267 23.9116 58.42C23.9116 57.9 24.0149 57.4433 24.2216 57.05C24.4283 56.65 24.7083 56.3367 25.0616 56.11C25.4149 55.8833 25.8149 55.77 26.2616 55.77C26.5483 55.77 26.8149 55.82 27.0616 55.92C27.3149 56.02 27.5349 56.1567 27.7216 56.33C27.9083 56.5033 28.0516 56.7033 28.1516 56.93C28.2583 57.15 28.3116 57.38 28.3116 57.62L28.1016 57.47V56.2C28.1016 56.1133 28.1283 56.04 28.1816 55.98C28.2416 55.92 28.3149 55.89 28.4016 55.89ZM26.3216 60.54C26.6749 60.54 26.9883 60.45 27.2616 60.27C27.5349 60.0833 27.7483 59.83 27.9016 59.51C28.0616 59.1833 28.1416 58.82 28.1416 58.42C28.1416 58.0267 28.0616 57.6733 27.9016 57.36C27.7483 57.0467 27.5349 56.7967 27.2616 56.61C26.9883 56.4233 26.6749 56.33 26.3216 56.33C25.9749 56.33 25.6616 56.42 25.3816 56.6C25.1083 56.78 24.8916 57.0267 24.7316 57.34C24.5783 57.6533 24.5016 58.0133 24.5016 58.42C24.5016 58.82 24.5783 59.1833 24.7316 59.51C24.8916 59.83 25.1083 60.0833 25.3816 60.27C25.6549 60.45 25.9683 60.54 26.3216 60.54ZM38.2704 54.52C38.3504 54.5733 38.3971 54.6433 38.4104 54.73C38.4238 54.81 38.4038 54.89 38.3504 54.97C38.3038 55.03 38.2438 55.0633 38.1704 55.07C38.0971 55.0767 38.0271 55.0633 37.9604 55.03C37.7071 54.8633 37.4338 54.7333 37.1404 54.64C36.8538 54.5467 36.5438 54.5 36.2104 54.5C35.8038 54.5 35.4238 54.5733 35.0704 54.72C34.7238 54.86 34.4204 55.0667 34.1604 55.34C33.9004 55.6067 33.6971 55.9233 33.5504 56.29C33.4104 56.6567 33.3404 57.06 33.3404 57.5C33.3404 57.9533 33.4138 58.3667 33.5604 58.74C33.7071 59.1067 33.9104 59.4233 34.1704 59.69C34.4371 59.9567 34.7438 60.16 35.0904 60.3C35.4371 60.44 35.8104 60.51 36.2104 60.51C36.5371 60.51 36.8438 60.4633 37.1304 60.37C37.4238 60.2767 37.6971 60.15 37.9504 59.99C38.0171 59.95 38.0871 59.9367 38.1604 59.95C38.2404 59.9567 38.3038 59.9933 38.3504 60.06C38.4104 60.1333 38.4304 60.2133 38.4104 60.3C38.3971 60.38 38.3538 60.4433 38.2804 60.49C38.1138 60.5967 37.9171 60.6967 37.6904 60.79C37.4638 60.8833 37.2238 60.9567 36.9704 61.01C36.7171 61.07 36.4638 61.1 36.2104 61.1C35.7304 61.1 35.2804 61.0133 34.8604 60.84C34.4404 60.6667 34.0671 60.4233 33.7404 60.11C33.4138 59.79 33.1571 59.41 32.9704 58.97C32.7904 58.53 32.7004 58.04 32.7004 57.5C32.7004 56.98 32.7904 56.5033 32.9704 56.07C33.1504 55.63 33.4004 55.25 33.7204 54.93C34.0404 54.61 34.4138 54.36 34.8404 54.18C35.2671 54 35.7238 53.91 36.2104 53.91C36.5904 53.91 36.9571 53.9633 37.3104 54.07C37.6638 54.1767 37.9838 54.3267 38.2704 54.52ZM44.3036 58.44C44.3036 58.9467 44.1936 59.4033 43.9736 59.81C43.7536 60.21 43.4536 60.5267 43.0736 60.76C42.6936 60.9867 42.2603 61.1 41.7736 61.1C41.3003 61.1 40.8703 60.9867 40.4836 60.76C40.1036 60.5267 39.8003 60.21 39.5736 59.81C39.3536 59.4033 39.2436 58.9467 39.2436 58.44C39.2436 57.9267 39.3536 57.47 39.5736 57.07C39.8003 56.67 40.1036 56.3533 40.4836 56.12C40.8703 55.8867 41.3003 55.77 41.7736 55.77C42.2603 55.77 42.6936 55.8867 43.0736 56.12C43.4536 56.3533 43.7536 56.67 43.9736 57.07C44.1936 57.47 44.3036 57.9267 44.3036 58.44ZM43.7036 58.44C43.7036 58.0333 43.6203 57.6733 43.4536 57.36C43.287 57.04 43.057 56.79 42.7636 56.61C42.477 56.4233 42.147 56.33 41.7736 56.33C41.4136 56.33 41.087 56.4233 40.7936 56.61C40.5003 56.79 40.267 57.04 40.0936 57.36C39.927 57.6733 39.8436 58.0333 39.8436 58.44C39.8436 58.8467 39.927 59.2067 40.0936 59.52C40.267 59.8333 40.5003 60.0833 40.7936 60.27C41.087 60.45 41.4136 60.54 41.7736 60.54C42.147 60.54 42.477 60.45 42.7636 60.27C43.057 60.0833 43.287 59.8333 43.4536 59.52C43.6203 59.2067 43.7036 58.8467 43.7036 58.44ZM47.9888 55.77C48.4288 55.77 48.7788 55.86 49.0388 56.04C49.3055 56.2133 49.4955 56.4533 49.6088 56.76C49.7288 57.06 49.7888 57.3933 49.7888 57.76V60.7C49.7888 60.78 49.7588 60.85 49.6988 60.91C49.6388 60.97 49.5688 61 49.4888 61C49.3955 61 49.3221 60.97 49.2688 60.91C49.2155 60.85 49.1888 60.78 49.1888 60.7V57.79C49.1888 57.5233 49.1455 57.28 49.0588 57.06C48.9721 56.84 48.8288 56.6633 48.6288 56.53C48.4355 56.3967 48.1788 56.33 47.8588 56.33C47.5721 56.33 47.2988 56.3967 47.0388 56.53C46.7855 56.6633 46.5788 56.84 46.4188 57.06C46.2588 57.28 46.1788 57.5233 46.1788 57.79V60.7C46.1788 60.78 46.1488 60.85 46.0888 60.91C46.0288 60.97 45.9588 61 45.8788 61C45.7855 61 45.7121 60.97 45.6588 60.91C45.6055 60.85 45.5788 60.78 45.5788 60.7V56.22C45.5788 56.14 45.6055 56.07 45.6588 56.01C45.7188 55.95 45.7921 55.92 45.8788 55.92C45.9655 55.92 46.0355 55.95 46.0888 56.01C46.1488 56.07 46.1788 56.14 46.1788 56.22V57.06L45.9488 57.42C45.9621 57.2067 46.0288 57.0033 46.1488 56.81C46.2755 56.61 46.4355 56.4333 46.6288 56.28C46.8221 56.12 47.0355 55.9967 47.2688 55.91C47.5088 55.8167 47.7488 55.77 47.9888 55.77ZM51.0301 55.91H53.3601C53.4401 55.91 53.5067 55.94 53.5601 56C53.6134 56.0533 53.6401 56.12 53.6401 56.2C53.6401 56.2733 53.6134 56.3367 53.5601 56.39C53.5067 56.4433 53.4401 56.47 53.3601 56.47H51.0301C50.9501 56.47 50.8801 56.4433 50.8201 56.39C50.7667 56.33 50.7401 56.2633 50.7401 56.19C50.7401 56.11 50.7667 56.0433 50.8201 55.99C50.8801 55.9367 50.9501 55.91 51.0301 55.91ZM52.0601 54.5C52.1467 54.5 52.2167 54.53 52.2701 54.59C52.3301 54.65 52.3601 54.72 52.3601 54.8V59.82C52.3601 60.0067 52.3834 60.1467 52.4301 60.24C52.4834 60.3333 52.5501 60.3967 52.6301 60.43C52.7101 60.4567 52.7901 60.47 52.8701 60.47C52.9234 60.47 52.9701 60.4633 53.0101 60.45C53.0567 60.43 53.1067 60.42 53.1601 60.42C53.2201 60.42 53.2701 60.4433 53.3101 60.49C53.3567 60.5367 53.3801 60.5967 53.3801 60.67C53.3801 60.7633 53.3267 60.8433 53.2201 60.91C53.1134 60.97 52.9867 61 52.8401 61C52.7801 61 52.6901 60.9967 52.5701 60.99C52.4501 60.9767 52.3267 60.94 52.2001 60.88C52.0734 60.8133 51.9667 60.7 51.8801 60.54C51.8001 60.38 51.7601 60.15 51.7601 59.85V54.8C51.7601 54.72 51.7867 54.65 51.8401 54.59C51.9001 54.53 51.9734 54.5 52.0601 54.5ZM58.9387 55.89C59.0254 55.89 59.0954 55.92 59.1487 55.98C59.2087 56.04 59.2387 56.1133 59.2387 56.2V60.7C59.2387 60.78 59.2087 60.85 59.1487 60.91C59.0887 60.97 59.0187 61 58.9387 61C58.8521 61 58.7787 60.97 58.7187 60.91C58.6654 60.85 58.6387 60.78 58.6387 60.7V59.51L58.8087 59.43C58.8087 59.6167 58.7554 59.8067 58.6487 60C58.5487 60.1933 58.4087 60.3733 58.2287 60.54C58.0487 60.7067 57.8354 60.8433 57.5887 60.95C57.3487 61.05 57.0887 61.1 56.8087 61.1C56.3554 61.1 55.9487 60.9833 55.5887 60.75C55.2354 60.5167 54.9554 60.1967 54.7487 59.79C54.5487 59.3833 54.4487 58.9267 54.4487 58.42C54.4487 57.9 54.5521 57.4433 54.7587 57.05C54.9654 56.65 55.2454 56.3367 55.5987 56.11C55.9521 55.8833 56.3521 55.77 56.7987 55.77C57.0854 55.77 57.3521 55.82 57.5987 55.92C57.8521 56.02 58.0721 56.1567 58.2587 56.33C58.4454 56.5033 58.5887 56.7033 58.6887 56.93C58.7954 57.15 58.8487 57.38 58.8487 57.62L58.6387 57.47V56.2C58.6387 56.1133 58.6654 56.04 58.7187 55.98C58.7787 55.92 58.8521 55.89 58.9387 55.89ZM56.8587 60.54C57.2121 60.54 57.5254 60.45 57.7987 60.27C58.0721 60.0833 58.2854 59.83 58.4387 59.51C58.5987 59.1833 58.6787 58.82 58.6787 58.42C58.6787 58.0267 58.5987 57.6733 58.4387 57.36C58.2854 57.0467 58.0721 56.7967 57.7987 56.61C57.5254 56.4233 57.2121 56.33 56.8587 56.33C56.5121 56.33 56.1987 56.42 55.9187 56.6C55.6454 56.78 55.4287 57.0267 55.2687 57.34C55.1154 57.6533 55.0387 58.0133 55.0387 58.42C55.0387 58.82 55.1154 59.1833 55.2687 59.51C55.4287 59.83 55.6454 60.0833 55.9187 60.27C56.1921 60.45 56.5054 60.54 56.8587 60.54Z" fill="white"/>
<path d="M31.2279 0.78125C16.7424 0.78125 5.00024 10.6058 5.00024 22.7258C5.00024 34.8458 16.7424 44.6704 31.2279 44.6704C45.7135 44.6704 57.4556 34.8458 57.4556 22.7258C57.4556 10.6058 45.7135 0.78125 31.2279 0.78125Z" stroke="#6ECAEF" stroke-width="1.5" stroke-linecap="round" stroke-linejoin="round"/>
<path d="M10.9563 36.6517C10.9563 36.6517 16.8024 30.4062 31.2277 30.4062C45.6529 30.4062 51.5016 36.6517 51.5016 36.6517" stroke="#6ECAEF" stroke-width="1.5" stroke-linecap="round" stroke-linejoin="round"/>
<path d="M31.227 22.7253C33.3138 22.7253 35.3151 22.0317 36.7907 20.7971C38.2663 19.5625 39.0953 17.888 39.0953 16.142C39.0953 14.3959 38.2663 12.7214 36.7907 11.4868C35.3151 10.2522 33.3138 9.55859 31.227 9.55859C29.1401 9.55859 27.1388 10.2522 25.6632 11.4868C24.1876 12.7214 23.3586 14.3959 23.3586 16.142C23.3586 17.888 24.1876 19.5625 25.6632 20.7971C27.1388 22.0317 29.1401 22.7253 31.227 22.7253V22.7253Z" stroke="#6ECAEF" stroke-width="1.5" stroke-linecap="round" stroke-linejoin="round"/>
</svg>
