<svg width="60" height="60" viewBox="0 0 74 71" fill="none" xmlns="http://www.w3.org/2000/svg">
<g filter="url(#filter0_d)">
<path d="M7.3398 62.1C6.83314 62.1067 6.39314 62.0267 6.0198 61.86C5.64647 61.6933 5.2898 61.4433 4.9498 61.11C4.91647 61.0833 4.88647 61.05 4.8598 61.01C4.8398 60.97 4.8298 60.9233 4.8298 60.87C4.8298 60.79 4.8598 60.7167 4.9198 60.65C4.98647 60.5833 5.0598 60.55 5.1398 60.55C5.2198 60.55 5.29314 60.5833 5.3598 60.65C5.6198 60.93 5.91314 61.1433 6.2398 61.29C6.57314 61.4367 6.9298 61.51 7.3098 61.51C7.6298 61.51 7.91314 61.46 8.1598 61.36C8.41314 61.26 8.61314 61.1167 8.7598 60.93C8.90647 60.7433 8.9798 60.5267 8.9798 60.28C8.9798 59.9733 8.89647 59.7267 8.7298 59.54C8.56314 59.3467 8.34314 59.19 8.0698 59.07C7.79647 58.9433 7.49314 58.83 7.1598 58.73C6.88647 58.65 6.62647 58.56 6.3798 58.46C6.13314 58.3533 5.91314 58.2267 5.7198 58.08C5.52647 57.9267 5.37647 57.74 5.2698 57.52C5.16314 57.3 5.1098 57.0333 5.1098 56.72C5.1098 56.3667 5.20314 56.0533 5.3898 55.78C5.57647 55.5067 5.8398 55.2933 6.1798 55.14C6.52647 54.98 6.92647 54.9 7.3798 54.9C7.77314 54.9 8.1498 54.9667 8.5098 55.1C8.87647 55.2333 9.16647 55.43 9.3798 55.69C9.4798 55.7967 9.5298 55.8933 9.5298 55.98C9.5298 56.0467 9.49647 56.1133 9.4298 56.18C9.36314 56.2467 9.2898 56.28 9.2098 56.28C9.14314 56.28 9.08647 56.2567 9.0398 56.21C8.92647 56.07 8.78314 55.9467 8.6098 55.84C8.43647 55.7267 8.24314 55.64 8.0298 55.58C7.82314 55.52 7.60647 55.49 7.3798 55.49C7.06647 55.49 6.78314 55.54 6.5298 55.64C6.28314 55.7333 6.08647 55.87 5.9398 56.05C5.7998 56.23 5.7298 56.4467 5.7298 56.7C5.7298 56.98 5.8098 57.21 5.9698 57.39C6.1298 57.57 6.3398 57.72 6.5998 57.84C6.8598 57.9533 7.13647 58.06 7.4298 58.16C7.71647 58.24 7.9898 58.3333 8.2498 58.44C8.51647 58.54 8.7498 58.6667 8.9498 58.82C9.15647 58.9733 9.31647 59.1667 9.4298 59.4C9.5498 59.6333 9.6098 59.9267 9.6098 60.28C9.6098 60.62 9.51314 60.9267 9.3198 61.2C9.12647 61.4733 8.8598 61.69 8.5198 61.85C8.18647 62.01 7.79314 62.0933 7.3398 62.1ZM13.185 62.1C12.6717 62.1 12.2184 61.99 11.825 61.77C11.4317 61.55 11.125 61.2433 10.905 60.85C10.685 60.4567 10.575 59.9967 10.575 59.47C10.575 58.9033 10.685 58.42 10.905 58.02C11.1317 57.62 11.4217 57.3133 11.775 57.1C12.135 56.88 12.515 56.77 12.915 56.77C13.2084 56.77 13.4917 56.8233 13.765 56.93C14.045 57.03 14.2917 57.1833 14.505 57.39C14.725 57.59 14.8984 57.8367 15.025 58.13C15.1584 58.4233 15.2317 58.7633 15.245 59.15C15.2384 59.23 15.205 59.3 15.145 59.36C15.085 59.4133 15.015 59.44 14.935 59.44H10.925L10.805 58.9H14.745L14.615 59.02V58.82C14.5884 58.5067 14.4884 58.24 14.315 58.02C14.1417 57.8 13.9317 57.6333 13.685 57.52C13.4384 57.4067 13.1817 57.35 12.915 57.35C12.715 57.35 12.5084 57.39 12.295 57.47C12.0884 57.55 11.8984 57.6767 11.725 57.85C11.5584 58.0167 11.4217 58.2333 11.315 58.5C11.2084 58.76 11.155 59.07 11.155 59.43C11.155 59.8233 11.235 60.18 11.395 60.5C11.555 60.82 11.785 61.0733 12.085 61.26C12.3917 61.4467 12.755 61.54 13.175 61.54C13.4084 61.54 13.6184 61.5067 13.805 61.44C13.9917 61.3733 14.155 61.2867 14.295 61.18C14.435 61.0667 14.5517 60.95 14.645 60.83C14.7184 60.77 14.7917 60.74 14.865 60.74C14.9317 60.74 14.9884 60.7667 15.035 60.82C15.0884 60.8733 15.115 60.9333 15.115 61C15.115 61.08 15.0817 61.15 15.015 61.21C14.815 61.45 14.555 61.66 14.235 61.84C13.915 62.0133 13.565 62.1 13.185 62.1ZM20.3493 56.92C20.436 56.92 20.506 56.95 20.5593 57.01C20.6193 57.07 20.6493 57.14 20.6493 57.22V60.04C20.6493 60.7 20.4627 61.2033 20.0893 61.55C19.716 61.8967 19.2127 62.07 18.5793 62.07C17.9527 62.07 17.4527 61.8967 17.0793 61.55C16.7127 61.2033 16.5293 60.7 16.5293 60.04V57.22C16.5293 57.14 16.556 57.07 16.6093 57.01C16.6693 56.95 16.7427 56.92 16.8293 56.92C16.916 56.92 16.986 56.95 17.0393 57.01C17.0993 57.07 17.1293 57.14 17.1293 57.22V60.04C17.1293 60.52 17.256 60.8867 17.5093 61.14C17.7693 61.3867 18.126 61.51 18.5793 61.51C19.0393 61.51 19.3993 61.3867 19.6593 61.14C19.9193 60.8867 20.0493 60.52 20.0493 60.04V57.22C20.0493 57.14 20.076 57.07 20.1293 57.01C20.1827 56.95 20.256 56.92 20.3493 56.92ZM21.9327 61.19C21.8794 61.11 21.8527 61.0333 21.8527 60.96C21.8594 60.88 21.9027 60.8167 21.9827 60.77C22.036 60.7233 22.096 60.7033 22.1627 60.71C22.236 60.7167 22.3027 60.75 22.3627 60.81C22.5427 61.0433 22.7594 61.2333 23.0127 61.38C23.2727 61.52 23.5794 61.59 23.9327 61.59C24.1194 61.59 24.3027 61.56 24.4827 61.5C24.6694 61.4333 24.8227 61.3367 24.9427 61.21C25.0627 61.0767 25.1227 60.91 25.1227 60.71C25.1227 60.5033 25.0627 60.3367 24.9427 60.21C24.8227 60.0833 24.666 59.9833 24.4727 59.91C24.286 59.8367 24.086 59.7733 23.8727 59.72C23.646 59.66 23.426 59.5933 23.2127 59.52C22.9994 59.44 22.8094 59.3433 22.6427 59.23C22.4827 59.11 22.3527 58.9667 22.2527 58.8C22.1527 58.6333 22.1027 58.43 22.1027 58.19C22.1027 57.91 22.1794 57.6633 22.3327 57.45C22.486 57.2367 22.6927 57.07 22.9527 56.95C23.2194 56.83 23.5194 56.77 23.8527 56.77C24.0194 56.77 24.1994 56.7933 24.3927 56.84C24.586 56.88 24.776 56.95 24.9627 57.05C25.1494 57.15 25.316 57.2867 25.4627 57.46C25.5227 57.52 25.5527 57.59 25.5527 57.67C25.5527 57.7433 25.5194 57.81 25.4527 57.87C25.3994 57.91 25.336 57.93 25.2627 57.93C25.196 57.93 25.1394 57.9033 25.0927 57.85C24.9327 57.67 24.7427 57.5333 24.5227 57.44C24.3027 57.3467 24.066 57.3 23.8127 57.3C23.6194 57.3 23.436 57.3333 23.2627 57.4C23.096 57.46 22.956 57.5533 22.8427 57.68C22.7294 57.8067 22.6727 57.9733 22.6727 58.18C22.686 58.3733 22.7527 58.53 22.8727 58.65C22.9994 58.77 23.1627 58.87 23.3627 58.95C23.5694 59.03 23.7994 59.1033 24.0527 59.17C24.266 59.2233 24.4694 59.2867 24.6627 59.36C24.8627 59.4333 25.036 59.5267 25.1827 59.64C25.336 59.7467 25.456 59.8833 25.5427 60.05C25.636 60.2167 25.6827 60.4267 25.6827 60.68C25.6827 60.9733 25.5994 61.2267 25.4327 61.44C25.2727 61.6533 25.056 61.8167 24.7827 61.93C24.5094 62.0433 24.206 62.1 23.8727 62.1C23.5127 62.1 23.1627 62.03 22.8227 61.89C22.4894 61.75 22.1927 61.5167 21.9327 61.19ZM31.4946 54.64C31.5946 54.64 31.7012 54.65 31.8146 54.67C31.9346 54.69 32.0379 54.7267 32.1246 54.78C32.2112 54.8267 32.2546 54.9 32.2546 55C32.2546 55.0733 32.2279 55.14 32.1746 55.2C32.1212 55.2533 32.0612 55.28 31.9946 55.28C31.9279 55.28 31.8446 55.2633 31.7446 55.23C31.6446 55.19 31.5379 55.17 31.4246 55.17C31.2846 55.17 31.1646 55.2033 31.0646 55.27C30.9646 55.33 30.8879 55.42 30.8346 55.54C30.7812 55.6533 30.7546 55.7933 30.7546 55.96V61.7C30.7546 61.78 30.7246 61.85 30.6646 61.91C30.6112 61.97 30.5412 62 30.4546 62C30.3679 62 30.2946 61.97 30.2346 61.91C30.1812 61.85 30.1546 61.78 30.1546 61.7V55.96C30.1546 55.5333 30.2779 55.2067 30.5246 54.98C30.7779 54.7533 31.1012 54.64 31.4946 54.64ZM31.8746 56.99C31.9546 56.99 32.0212 57.0167 32.0746 57.07C32.1279 57.1233 32.1546 57.19 32.1546 57.27C32.1546 57.35 32.1279 57.4167 32.0746 57.47C32.0212 57.5233 31.9546 57.55 31.8746 57.55H29.4246C29.3512 57.55 29.2846 57.5233 29.2246 57.47C29.1712 57.41 29.1446 57.3433 29.1446 57.27C29.1446 57.1833 29.1712 57.1167 29.2246 57.07C29.2846 57.0167 29.3512 56.99 29.4246 56.99H31.8746ZM37.4381 56.89C37.5248 56.89 37.5948 56.92 37.6481 56.98C37.7081 57.04 37.7381 57.1133 37.7381 57.2V61.7C37.7381 61.78 37.7081 61.85 37.6481 61.91C37.5881 61.97 37.5181 62 37.4381 62C37.3514 62 37.2781 61.97 37.2181 61.91C37.1648 61.85 37.1381 61.78 37.1381 61.7V60.51L37.3081 60.43C37.3081 60.6167 37.2548 60.8067 37.1481 61C37.0481 61.1933 36.9081 61.3733 36.7281 61.54C36.5481 61.7067 36.3348 61.8433 36.0881 61.95C35.8481 62.05 35.5881 62.1 35.3081 62.1C34.8548 62.1 34.4481 61.9833 34.0881 61.75C33.7348 61.5167 33.4548 61.1967 33.2481 60.79C33.0481 60.3833 32.9481 59.9267 32.9481 59.42C32.9481 58.9 33.0514 58.4433 33.2581 58.05C33.4648 57.65 33.7448 57.3367 34.0981 57.11C34.4514 56.8833 34.8514 56.77 35.2981 56.77C35.5848 56.77 35.8514 56.82 36.0981 56.92C36.3514 57.02 36.5714 57.1567 36.7581 57.33C36.9448 57.5033 37.0881 57.7033 37.1881 57.93C37.2948 58.15 37.3481 58.38 37.3481 58.62L37.1381 58.47V57.2C37.1381 57.1133 37.1648 57.04 37.2181 56.98C37.2781 56.92 37.3514 56.89 37.4381 56.89ZM35.3581 61.54C35.7114 61.54 36.0248 61.45 36.2981 61.27C36.5714 61.0833 36.7848 60.83 36.9381 60.51C37.0981 60.1833 37.1781 59.82 37.1781 59.42C37.1781 59.0267 37.0981 58.6733 36.9381 58.36C36.7848 58.0467 36.5714 57.7967 36.2981 57.61C36.0248 57.4233 35.7114 57.33 35.3581 57.33C35.0114 57.33 34.6981 57.42 34.4181 57.6C34.1448 57.78 33.9281 58.0267 33.7681 58.34C33.6148 58.6533 33.5381 59.0133 33.5381 59.42C33.5381 59.82 33.6148 60.1833 33.7681 60.51C33.9281 60.83 34.1448 61.0833 34.4181 61.27C34.6914 61.45 35.0048 61.54 35.3581 61.54ZM39.0753 56.78C39.1287 56.78 39.182 56.7967 39.2353 56.83C39.2887 56.8633 39.3287 56.9133 39.3553 56.98L41.1053 61.14L40.9753 61.22L42.7653 56.98C42.8187 56.8467 42.9154 56.7833 43.0554 56.79C43.122 56.79 43.1853 56.8133 43.2454 56.86C43.3054 56.9 43.3354 56.96 43.3354 57.04C43.3354 57.08 43.3287 57.1133 43.3153 57.14C43.3087 57.16 43.302 57.1833 43.2953 57.21L41.3353 61.81C41.282 61.93 41.192 61.9933 41.0653 62C41.0053 62.0067 40.9453 61.9933 40.8853 61.96C40.832 61.92 40.792 61.87 40.7653 61.81L38.7953 57.21C38.7887 57.1967 38.782 57.1767 38.7753 57.15C38.7687 57.1233 38.7653 57.0967 38.7653 57.07C38.7653 56.9967 38.792 56.93 38.8453 56.87C38.8987 56.81 38.9753 56.78 39.0753 56.78ZM49.1995 59.44C49.1995 59.9467 49.0895 60.4033 48.8695 60.81C48.6495 61.21 48.3495 61.5267 47.9695 61.76C47.5895 61.9867 47.1562 62.1 46.6695 62.1C46.1962 62.1 45.7662 61.9867 45.3795 61.76C44.9995 61.5267 44.6962 61.21 44.4695 60.81C44.2495 60.4033 44.1395 59.9467 44.1395 59.44C44.1395 58.9267 44.2495 58.47 44.4695 58.07C44.6962 57.67 44.9995 57.3533 45.3795 57.12C45.7662 56.8867 46.1962 56.77 46.6695 56.77C47.1562 56.77 47.5895 56.8867 47.9695 57.12C48.3495 57.3533 48.6495 57.67 48.8695 58.07C49.0895 58.47 49.1995 58.9267 49.1995 59.44ZM48.5995 59.44C48.5995 59.0333 48.5162 58.6733 48.3495 58.36C48.1828 58.04 47.9528 57.79 47.6595 57.61C47.3728 57.4233 47.0428 57.33 46.6695 57.33C46.3095 57.33 45.9828 57.4233 45.6895 57.61C45.3962 57.79 45.1628 58.04 44.9895 58.36C44.8228 58.6733 44.7395 59.0333 44.7395 59.44C44.7395 59.8467 44.8228 60.2067 44.9895 60.52C45.1628 60.8333 45.3962 61.0833 45.6895 61.27C45.9828 61.45 46.3095 61.54 46.6695 61.54C47.0428 61.54 47.3728 61.45 47.6595 61.27C47.9528 61.0833 48.1828 60.8333 48.3495 60.52C48.5162 60.2067 48.5995 59.8467 48.5995 59.44ZM50.7746 62C50.6813 62 50.608 61.97 50.5546 61.91C50.5013 61.85 50.4746 61.78 50.4746 61.7V57.22C50.4746 57.14 50.5013 57.07 50.5546 57.01C50.6146 56.95 50.688 56.92 50.7746 56.92C50.8613 56.92 50.9313 56.95 50.9846 57.01C51.0446 57.07 51.0746 57.14 51.0746 57.22V58.72L50.9246 58.75C50.9446 58.5167 51.0013 58.2867 51.0946 58.06C51.1946 57.8267 51.328 57.6133 51.4946 57.42C51.6613 57.2267 51.858 57.07 52.0846 56.95C52.318 56.83 52.578 56.77 52.8646 56.77C52.9846 56.77 53.1013 56.7967 53.2146 56.85C53.328 56.8967 53.3846 56.9767 53.3846 57.09C53.3846 57.19 53.358 57.2667 53.3046 57.32C53.2513 57.3733 53.188 57.4 53.1146 57.4C53.0546 57.4 52.988 57.3833 52.9146 57.35C52.848 57.3167 52.758 57.3 52.6446 57.3C52.458 57.3 52.2713 57.3567 52.0846 57.47C51.898 57.5767 51.728 57.7233 51.5746 57.91C51.4213 58.0967 51.298 58.3067 51.2046 58.54C51.118 58.7667 51.0746 58.9967 51.0746 59.23V61.7C51.0746 61.78 51.0446 61.85 50.9846 61.91C50.9246 61.97 50.8546 62 50.7746 62ZM54.9023 61.7C54.9023 61.78 54.8723 61.85 54.8123 61.91C54.7523 61.97 54.6823 62 54.6023 62C54.5156 62 54.4423 61.97 54.3823 61.91C54.329 61.85 54.3023 61.78 54.3023 61.7V57.1C54.3023 57.02 54.329 56.95 54.3823 56.89C54.4423 56.83 54.5156 56.8 54.6023 56.8C54.689 56.8 54.759 56.83 54.8123 56.89C54.8723 56.95 54.9023 57.02 54.9023 57.1V61.7ZM54.6023 56.13C54.4623 56.13 54.3556 56.1 54.2823 56.04C54.2156 55.9733 54.1823 55.88 54.1823 55.76V55.66C54.1823 55.54 54.219 55.45 54.2923 55.39C54.3723 55.3233 54.479 55.29 54.6123 55.29C54.739 55.29 54.8356 55.3233 54.9023 55.39C54.9756 55.45 55.0123 55.54 55.0123 55.66V55.76C55.0123 55.88 54.9756 55.9733 54.9023 56.04C54.8356 56.1 54.7356 56.13 54.6023 56.13ZM56.131 56.91H58.461C58.541 56.91 58.6076 56.94 58.661 57C58.7143 57.0533 58.741 57.12 58.741 57.2C58.741 57.2733 58.7143 57.3367 58.661 57.39C58.6076 57.4433 58.541 57.47 58.461 57.47H56.131C56.051 57.47 55.981 57.4433 55.921 57.39C55.8676 57.33 55.841 57.2633 55.841 57.19C55.841 57.11 55.8676 57.0433 55.921 56.99C55.981 56.9367 56.051 56.91 56.131 56.91ZM57.161 55.5C57.2476 55.5 57.3176 55.53 57.371 55.59C57.431 55.65 57.461 55.72 57.461 55.8V60.82C57.461 61.0067 57.4843 61.1467 57.531 61.24C57.5843 61.3333 57.651 61.3967 57.731 61.43C57.811 61.4567 57.891 61.47 57.971 61.47C58.0243 61.47 58.071 61.4633 58.111 61.45C58.1576 61.43 58.2076 61.42 58.261 61.42C58.321 61.42 58.371 61.4433 58.411 61.49C58.4576 61.5367 58.481 61.5967 58.481 61.67C58.481 61.7633 58.4276 61.8433 58.321 61.91C58.2143 61.97 58.0876 62 57.941 62C57.881 62 57.791 61.9967 57.671 61.99C57.551 61.9767 57.4276 61.94 57.301 61.88C57.1743 61.8133 57.0676 61.7 56.981 61.54C56.901 61.38 56.861 61.15 56.861 60.85V55.8C56.861 55.72 56.8876 55.65 56.941 55.59C57.001 55.53 57.0743 55.5 57.161 55.5ZM64.5608 59.44C64.5608 59.9467 64.4508 60.4033 64.2308 60.81C64.0108 61.21 63.7108 61.5267 63.3308 61.76C62.9508 61.9867 62.5175 62.1 62.0308 62.1C61.5575 62.1 61.1275 61.9867 60.7408 61.76C60.3608 61.5267 60.0575 61.21 59.8308 60.81C59.6108 60.4033 59.5008 59.9467 59.5008 59.44C59.5008 58.9267 59.6108 58.47 59.8308 58.07C60.0575 57.67 60.3608 57.3533 60.7408 57.12C61.1275 56.8867 61.5575 56.77 62.0308 56.77C62.5175 56.77 62.9508 56.8867 63.3308 57.12C63.7108 57.3533 64.0108 57.67 64.2308 58.07C64.4508 58.47 64.5608 58.9267 64.5608 59.44ZM63.9608 59.44C63.9608 59.0333 63.8775 58.6733 63.7108 58.36C63.5442 58.04 63.3142 57.79 63.0208 57.61C62.7342 57.4233 62.4042 57.33 62.0308 57.33C61.6708 57.33 61.3442 57.4233 61.0508 57.61C60.7575 57.79 60.5242 58.04 60.3508 58.36C60.1842 58.6733 60.1008 59.0333 60.1008 59.44C60.1008 59.8467 60.1842 60.2067 60.3508 60.52C60.5242 60.8333 60.7575 61.0833 61.0508 61.27C61.3442 61.45 61.6708 61.54 62.0308 61.54C62.4042 61.54 62.7342 61.45 63.0208 61.27C63.3142 61.0833 63.5442 60.8333 63.7108 60.52C63.8775 60.2067 63.9608 59.8467 63.9608 59.44ZM65.546 61.19C65.4926 61.11 65.466 61.0333 65.466 60.96C65.4726 60.88 65.516 60.8167 65.596 60.77C65.6493 60.7233 65.7093 60.7033 65.776 60.71C65.8493 60.7167 65.916 60.75 65.976 60.81C66.156 61.0433 66.3726 61.2333 66.626 61.38C66.886 61.52 67.1926 61.59 67.546 61.59C67.7326 61.59 67.916 61.56 68.096 61.5C68.2826 61.4333 68.436 61.3367 68.556 61.21C68.676 61.0767 68.736 60.91 68.736 60.71C68.736 60.5033 68.676 60.3367 68.556 60.21C68.436 60.0833 68.2793 59.9833 68.086 59.91C67.8993 59.8367 67.6993 59.7733 67.486 59.72C67.2593 59.66 67.0393 59.5933 66.826 59.52C66.6126 59.44 66.4226 59.3433 66.256 59.23C66.096 59.11 65.966 58.9667 65.866 58.8C65.766 58.6333 65.716 58.43 65.716 58.19C65.716 57.91 65.7926 57.6633 65.946 57.45C66.0993 57.2367 66.306 57.07 66.566 56.95C66.8326 56.83 67.1326 56.77 67.466 56.77C67.6326 56.77 67.8126 56.7933 68.006 56.84C68.1993 56.88 68.3893 56.95 68.576 57.05C68.7626 57.15 68.9293 57.2867 69.076 57.46C69.136 57.52 69.166 57.59 69.166 57.67C69.166 57.7433 69.1326 57.81 69.066 57.87C69.0126 57.91 68.9493 57.93 68.876 57.93C68.8093 57.93 68.7526 57.9033 68.706 57.85C68.546 57.67 68.356 57.5333 68.136 57.44C67.916 57.3467 67.6793 57.3 67.426 57.3C67.2326 57.3 67.0493 57.3333 66.876 57.4C66.7093 57.46 66.5693 57.5533 66.456 57.68C66.3426 57.8067 66.286 57.9733 66.286 58.18C66.2993 58.3733 66.366 58.53 66.486 58.65C66.6126 58.77 66.776 58.87 66.976 58.95C67.1826 59.03 67.4126 59.1033 67.666 59.17C67.8793 59.2233 68.0826 59.2867 68.276 59.36C68.476 59.4333 68.6493 59.5267 68.796 59.64C68.9493 59.7467 69.0693 59.8833 69.156 60.05C69.2493 60.2167 69.296 60.4267 69.296 60.68C69.296 60.9733 69.2126 61.2267 69.046 61.44C68.886 61.6533 68.6693 61.8167 68.396 61.93C68.1226 62.0433 67.8193 62.1 67.486 62.1C67.126 62.1 66.776 62.03 66.436 61.89C66.1026 61.75 65.806 61.5167 65.546 61.19Z" fill="white"/>
<path d="M17.8274 40.5219L17.8357 40.5221H17.844H56.1251V43.4412H17.8127C16.3608 43.4412 14.5609 43.0287 13.1472 42.0782C11.7637 41.148 10.7502 39.7101 10.7502 37.5625V13.2574V6.62869C10.7502 4.4811 11.7637 3.04326 13.1472 2.11302C14.5609 1.16253 16.3608 0.75 17.8127 0.75H51.6668C54.2452 0.75 56.1251 2.507 56.1251 4.41912V34.603H17.844H17.8357L17.8274 34.6032C17.1722 34.6176 16.3494 34.7325 15.6699 35.1688C14.9349 35.6407 14.4586 36.4309 14.4586 37.5625C14.4586 38.6942 14.9349 39.4844 15.6699 39.9563C16.3494 40.3926 17.1722 40.5075 17.8274 40.5219ZM17.8127 3.66912H17.8042L17.7958 3.66932C17.1539 3.68384 16.3389 3.79948 15.6638 4.23632C14.9344 4.70823 14.4586 5.49744 14.4586 6.62869V30.9339V31.6839H15.2086H51.6668H52.4168V30.9339V4.41912V3.66912H51.6668H17.8127Z" fill="#6ECAEF" stroke="black" stroke-width="1.5"/>
<path d="M41.6724 17.6194L41.6724 17.6193L41.6666 17.6242L33.4228 24.4915L25.1815 17.6221L25.1815 17.6221L25.1755 17.6172C24.7141 17.2407 24.3554 16.7959 24.1136 16.3139C23.872 15.8324 23.7502 15.3206 23.7502 14.8077C23.7502 14.2948 23.872 13.7829 24.1136 13.3015C24.3554 12.8195 24.7141 12.3747 25.1755 11.9982L25.1755 11.9982L25.1829 11.992C26.121 11.2062 27.4086 10.75 28.7703 10.75C30.132 10.75 31.4196 11.2062 32.3577 11.992L32.3577 11.9921L32.3605 11.9944L32.9438 12.4782L33.4216 12.8746L33.9002 12.4793L34.4835 11.9976L34.4835 11.9977L34.4875 11.9943C35.4261 11.2083 36.7141 10.752 38.0763 10.752C39.4385 10.752 40.7265 11.2083 41.6651 11.9943L41.665 11.9944L41.6724 12.0004C42.1338 12.3769 42.4925 12.8217 42.7343 13.3037C42.9759 13.7851 43.0977 14.297 43.0977 14.8099C43.0977 15.3228 42.9759 15.8347 42.7343 16.3161C42.4925 16.7981 42.1338 17.2429 41.6724 17.6194Z" fill="#6ECAEF" stroke="black" stroke-width="1.5"/>
</g>
<defs>
<filter id="filter0_d" x="0.829834" y="0" width="72.4662" height="70.101" filterUnits="userSpaceOnUse" color-interpolation-filters="sRGB">
<feFlood flood-opacity="0" result="BackgroundImageFix"/>
<feColorMatrix in="SourceAlpha" type="matrix" values="0 0 0 0 0 0 0 0 0 0 0 0 0 0 0 0 0 0 127 0" result="hardAlpha"/>
<feOffset dy="4"/>
<feGaussianBlur stdDeviation="2"/>
<feComposite in2="hardAlpha" operator="out"/>
<feColorMatrix type="matrix" values="0 0 0 0 0 0 0 0 0 0 0 0 0 0 0 0 0 0 0.25 0"/>
<feBlend mode="normal" in2="BackgroundImageFix" result="effect1_dropShadow"/>
<feBlend mode="normal" in="SourceGraphic" in2="effect1_dropShadow" result="shape"/>
</filter>
</defs>
</svg>
