<svg width="96" height="98" viewBox="0 0 96 98" fill="none" xmlns="http://www.w3.org/2000/svg">
<ellipse cx="48" cy="49" rx="48" ry="49" fill="#6ECAEF"/>
<path d="M62.291 52.7858C71.4614 52.7858 78.8955 45.0472 78.8955 35.5013C78.8955 25.9553 71.4614 18.2168 62.291 18.2168C53.1206 18.2168 45.6865 25.9553 45.6865 35.5013C45.6865 45.0472 53.1206 52.7858 62.291 52.7858Z" stroke="#F8F8F8" stroke-width="2" stroke-linecap="round" stroke-linejoin="round"/>
<path d="M67.2722 42.415L63.2639 38.2425C62.6411 37.5944 62.2911 36.7152 62.2909 35.7985V25.1305" stroke="#F8F8F8" stroke-width="2" stroke-linecap="round" stroke-linejoin="round"/>
<path d="M59.5869 43.8965H35.0596C34.4682 43.8965 33.9011 44.141 33.4829 44.5763C33.0648 45.0116 32.8298 45.602 32.8298 46.2176V71.7493C32.8298 72.3649 33.0648 72.9553 33.4829 73.3905C33.9011 73.8258 34.4682 74.0704 35.0596 74.0704H59.5869C60.1782 74.0704 60.7454 73.8258 61.1635 73.3905C61.5817 72.9553 61.8166 72.3649 61.8166 71.7493V46.2176C61.8166 45.602 61.5817 45.0116 61.1635 44.5763C60.7454 44.141 60.1782 43.8965 59.5869 43.8965V43.8965Z" stroke="#F8F8F8" stroke-width="4" stroke-linejoin="round"/>
<path d="M17.2217 74.0705H32.83V57.823H25.0258L17.2217 65.3224V74.0705Z" stroke="#F8F8F8" stroke-width="4" stroke-linejoin="round"/>
<path d="M32.8301 76.3914C32.8301 77.6225 32.3603 78.8033 31.524 79.6738C30.6877 80.5444 29.5534 81.0335 28.3706 81.0335C27.1879 81.0335 26.0536 80.5444 25.2173 79.6738C24.381 78.8033 23.9111 77.6225 23.9111 76.3914" stroke="#F8F8F8" stroke-width="4" stroke-linecap="square" stroke-linejoin="round"/>
<path d="M57.3572 76.3914C57.3572 77.6225 56.8874 78.8033 56.0511 79.6738C55.2148 80.5444 54.0805 81.0335 52.8977 81.0335C51.715 81.0335 50.5807 80.5444 49.7444 79.6738C48.9081 78.8033 48.4382 77.6225 48.4382 76.3914" stroke="#F8F8F8" stroke-width="4" stroke-linecap="square" stroke-linejoin="round"/>
</svg>
