<svg width="44" height="28" viewBox="0 0 51 31" fill="none" xmlns="http://www.w3.org/2000/svg">
<path d="M47.712 0H2.51116C1.84516 0 1.20643 0.226425 0.735501 0.629463C0.264567 1.0325 0 1.57914 0 2.14912V10.7456H2.24246C4.74358 10.7456 7.06389 12.2091 7.46567 14.3217C7.58807 14.9386 7.5517 15.5709 7.35911 16.1745C7.16651 16.7781 6.82233 17.3385 6.35057 17.8165C5.87882 18.2946 5.29086 18.6787 4.62773 18.9422C3.9646 19.2057 3.24227 19.3422 2.51116 19.3421H0V27.9386C0 28.5085 0.264567 29.0552 0.735501 29.4582C1.20643 29.8613 1.84516 30.0877 2.51116 30.0877H47.712C48.378 30.0877 49.0167 29.8613 49.4876 29.4582C49.9586 29.0552 50.2231 28.5085 50.2231 27.9386V19.3421H47.712C46.9809 19.3422 46.2585 19.2057 45.5954 18.9422C44.9323 18.6787 44.3443 18.2946 43.8726 17.8165C43.4008 17.3385 43.0566 16.7781 42.864 16.1745C42.6714 15.5709 42.6351 14.9386 42.7575 14.3217C43.1593 12.2091 45.4796 10.7456 47.9807 10.7456H50.2231V2.14912C50.2231 1.57914 49.9586 1.0325 49.4876 0.629463C49.0167 0.226425 48.378 0 47.712 0ZM17.5781 8.59648C18.2441 8.59648 18.8828 8.8229 19.3538 9.22594C19.8247 9.62898 20.0893 10.1756 20.0893 10.7456C20.0893 11.3156 19.8247 11.8622 19.3538 12.2653C18.8828 12.6683 18.2441 12.8947 17.5781 12.8947C16.9121 12.8947 16.2734 12.6683 15.8024 12.2653C15.3315 11.8622 15.0669 11.3156 15.0669 10.7456C15.0669 10.1756 15.3315 9.62898 15.8024 9.22594C16.2734 8.8229 16.9121 8.59648 17.5781 8.59648ZM15.5692 22.3508L30.6361 5.15789L34.654 7.73683L19.587 24.9298L15.5692 22.3508ZM32.645 21.4912C31.979 21.4912 31.3403 21.2648 30.8694 20.8617C30.3985 20.4587 30.1339 19.9121 30.1339 19.3421C30.1339 18.7721 30.3985 18.2255 30.8694 17.8224C31.3403 17.4194 31.979 17.193 32.645 17.193C33.311 17.193 33.9498 17.4194 34.4207 17.8224C34.8916 18.2255 35.1562 18.7721 35.1562 19.3421C35.1562 19.9121 34.8916 20.4587 34.4207 20.8617C33.9498 21.2648 33.311 21.4912 32.645 21.4912Z" fill="#1FB5CD"/>
</svg>
