<svg width="62" height="76" viewBox="0 0 62 76" fill="none" xmlns="http://www.w3.org/2000/svg">
<path d="M13.0679 55H16.7379C16.8179 55 16.8879 55.03 16.9479 55.09C17.0079 55.1433 17.0379 55.2133 17.0379 55.3C17.0379 55.3867 17.0079 55.4567 16.9479 55.51C16.8879 55.5633 16.8179 55.59 16.7379 55.59H13.2979L13.3979 55.42V58.23L13.2879 58.1H16.2879C16.3679 58.1 16.4379 58.13 16.4979 58.19C16.5579 58.25 16.5879 58.32 16.5879 58.4C16.5879 58.4867 16.5579 58.5567 16.4979 58.61C16.4379 58.6633 16.3679 58.69 16.2879 58.69H13.3079L13.3979 58.59V61.47L13.3479 61.41H16.7379C16.8179 61.41 16.8879 61.44 16.9479 61.5C17.0079 61.56 17.0379 61.63 17.0379 61.71C17.0379 61.7967 17.0079 61.8667 16.9479 61.92C16.8879 61.9733 16.8179 62 16.7379 62H13.0679C12.9879 62 12.9179 61.97 12.8579 61.91C12.7979 61.85 12.7679 61.78 12.7679 61.7V55.3C12.7679 55.22 12.7979 55.15 12.8579 55.09C12.9179 55.03 12.9879 55 13.0679 55ZM20.7115 56.77C21.1515 56.77 21.5015 56.86 21.7615 57.04C22.0281 57.2133 22.2181 57.4533 22.3315 57.76C22.4515 58.06 22.5115 58.3933 22.5115 58.76V61.7C22.5115 61.78 22.4815 61.85 22.4215 61.91C22.3615 61.97 22.2915 62 22.2115 62C22.1181 62 22.0448 61.97 21.9915 61.91C21.9381 61.85 21.9115 61.78 21.9115 61.7V58.79C21.9115 58.5233 21.8681 58.28 21.7815 58.06C21.6948 57.84 21.5515 57.6633 21.3515 57.53C21.1581 57.3967 20.9015 57.33 20.5815 57.33C20.2948 57.33 20.0215 57.3967 19.7615 57.53C19.5081 57.6633 19.3015 57.84 19.1415 58.06C18.9815 58.28 18.9015 58.5233 18.9015 58.79V61.7C18.9015 61.78 18.8715 61.85 18.8115 61.91C18.7515 61.97 18.6815 62 18.6015 62C18.5081 62 18.4348 61.97 18.3815 61.91C18.3281 61.85 18.3015 61.78 18.3015 61.7V57.22C18.3015 57.14 18.3281 57.07 18.3815 57.01C18.4415 56.95 18.5148 56.92 18.6015 56.92C18.6881 56.92 18.7581 56.95 18.8115 57.01C18.8715 57.07 18.9015 57.14 18.9015 57.22V58.06L18.6715 58.42C18.6848 58.2067 18.7515 58.0033 18.8715 57.81C18.9981 57.61 19.1581 57.4333 19.3515 57.28C19.5448 57.12 19.7581 56.9967 19.9915 56.91C20.2315 56.8167 20.4715 56.77 20.7115 56.77ZM23.7527 56.91H26.0827C26.1627 56.91 26.2294 56.94 26.2827 57C26.336 57.0533 26.3627 57.12 26.3627 57.2C26.3627 57.2733 26.336 57.3367 26.2827 57.39C26.2294 57.4433 26.1627 57.47 26.0827 57.47H23.7527C23.6727 57.47 23.6027 57.4433 23.5427 57.39C23.4894 57.33 23.4627 57.2633 23.4627 57.19C23.4627 57.11 23.4894 57.0433 23.5427 56.99C23.6027 56.9367 23.6727 56.91 23.7527 56.91ZM24.7827 55.5C24.8694 55.5 24.9394 55.53 24.9927 55.59C25.0527 55.65 25.0827 55.72 25.0827 55.8V60.82C25.0827 61.0067 25.106 61.1467 25.1527 61.24C25.206 61.3333 25.2727 61.3967 25.3527 61.43C25.4327 61.4567 25.5127 61.47 25.5927 61.47C25.646 61.47 25.6927 61.4633 25.7327 61.45C25.7794 61.43 25.8294 61.42 25.8827 61.42C25.9427 61.42 25.9927 61.4433 26.0327 61.49C26.0794 61.5367 26.1027 61.5967 26.1027 61.67C26.1027 61.7633 26.0494 61.8433 25.9427 61.91C25.836 61.97 25.7094 62 25.5627 62C25.5027 62 25.4127 61.9967 25.2927 61.99C25.1727 61.9767 25.0494 61.94 24.9227 61.88C24.796 61.8133 24.6894 61.7 24.6027 61.54C24.5227 61.38 24.4827 61.15 24.4827 60.85V55.8C24.4827 55.72 24.5094 55.65 24.5627 55.59C24.6227 55.53 24.696 55.5 24.7827 55.5ZM27.7714 62C27.678 62 27.6047 61.97 27.5514 61.91C27.498 61.85 27.4714 61.78 27.4714 61.7V57.22C27.4714 57.14 27.498 57.07 27.5514 57.01C27.6114 56.95 27.6847 56.92 27.7714 56.92C27.858 56.92 27.928 56.95 27.9814 57.01C28.0414 57.07 28.0714 57.14 28.0714 57.22V58.72L27.9214 58.75C27.9414 58.5167 27.998 58.2867 28.0914 58.06C28.1914 57.8267 28.3247 57.6133 28.4914 57.42C28.658 57.2267 28.8547 57.07 29.0814 56.95C29.3147 56.83 29.5747 56.77 29.8614 56.77C29.9814 56.77 30.098 56.7967 30.2114 56.85C30.3247 56.8967 30.3814 56.9767 30.3814 57.09C30.3814 57.19 30.3547 57.2667 30.3014 57.32C30.248 57.3733 30.1847 57.4 30.1114 57.4C30.0514 57.4 29.9847 57.3833 29.9114 57.35C29.8447 57.3167 29.7547 57.3 29.6414 57.3C29.4547 57.3 29.268 57.3567 29.0814 57.47C28.8947 57.5767 28.7247 57.7233 28.5714 57.91C28.418 58.0967 28.2947 58.3067 28.2014 58.54C28.1147 58.7667 28.0714 58.9967 28.0714 59.23V61.7C28.0714 61.78 28.0414 61.85 27.9814 61.91C27.9214 61.97 27.8514 62 27.7714 62ZM33.4044 62.1C32.8911 62.1 32.4378 61.99 32.0444 61.77C31.6511 61.55 31.3444 61.2433 31.1244 60.85C30.9044 60.4567 30.7944 59.9967 30.7944 59.47C30.7944 58.9033 30.9044 58.42 31.1244 58.02C31.3511 57.62 31.6411 57.3133 31.9944 57.1C32.3544 56.88 32.7344 56.77 33.1344 56.77C33.4278 56.77 33.7111 56.8233 33.9844 56.93C34.2644 57.03 34.5111 57.1833 34.7244 57.39C34.9444 57.59 35.1178 57.8367 35.2444 58.13C35.3778 58.4233 35.4511 58.7633 35.4644 59.15C35.4578 59.23 35.4244 59.3 35.3644 59.36C35.3044 59.4133 35.2344 59.44 35.1544 59.44H31.1444L31.0244 58.9H34.9644L34.8344 59.02V58.82C34.8078 58.5067 34.7078 58.24 34.5344 58.02C34.3611 57.8 34.1511 57.6333 33.9044 57.52C33.6578 57.4067 33.4011 57.35 33.1344 57.35C32.9344 57.35 32.7278 57.39 32.5144 57.47C32.3078 57.55 32.1178 57.6767 31.9444 57.85C31.7778 58.0167 31.6411 58.2333 31.5344 58.5C31.4278 58.76 31.3744 59.07 31.3744 59.43C31.3744 59.8233 31.4544 60.18 31.6144 60.5C31.7744 60.82 32.0044 61.0733 32.3044 61.26C32.6111 61.4467 32.9744 61.54 33.3944 61.54C33.6278 61.54 33.8378 61.5067 34.0244 61.44C34.2111 61.3733 34.3744 61.2867 34.5144 61.18C34.6544 61.0667 34.7711 60.95 34.8644 60.83C34.9378 60.77 35.0111 60.74 35.0844 60.74C35.1511 60.74 35.2078 60.7667 35.2544 60.82C35.3078 60.8733 35.3344 60.9333 35.3344 61C35.3344 61.08 35.3011 61.15 35.2344 61.21C35.0344 61.45 34.7744 61.66 34.4544 61.84C34.1344 62.0133 33.7844 62.1 33.4044 62.1ZM44.2431 59.44C44.2431 59.9467 44.1331 60.4033 43.9131 60.81C43.6931 61.21 43.3931 61.5267 43.0131 61.76C42.6331 61.9867 42.1998 62.1 41.7131 62.1C41.2398 62.1 40.8098 61.9867 40.4231 61.76C40.0431 61.5267 39.7398 61.21 39.5131 60.81C39.2931 60.4033 39.1831 59.9467 39.1831 59.44C39.1831 58.9267 39.2931 58.47 39.5131 58.07C39.7398 57.67 40.0431 57.3533 40.4231 57.12C40.8098 56.8867 41.2398 56.77 41.7131 56.77C42.1998 56.77 42.6331 56.8867 43.0131 57.12C43.3931 57.3533 43.6931 57.67 43.9131 58.07C44.1331 58.47 44.2431 58.9267 44.2431 59.44ZM43.6431 59.44C43.6431 59.0333 43.5598 58.6733 43.3931 58.36C43.2264 58.04 42.9964 57.79 42.7031 57.61C42.4164 57.4233 42.0864 57.33 41.7131 57.33C41.3531 57.33 41.0264 57.4233 40.7331 57.61C40.4398 57.79 40.2064 58.04 40.0331 58.36C39.8664 58.6733 39.7831 59.0333 39.7831 59.44C39.7831 59.8467 39.8664 60.2067 40.0331 60.52C40.2064 60.8333 40.4398 61.0833 40.7331 61.27C41.0264 61.45 41.3531 61.54 41.7131 61.54C42.0864 61.54 42.4164 61.45 42.7031 61.27C42.9964 61.0833 43.2264 60.8333 43.3931 60.52C43.5598 60.2067 43.6431 59.8467 43.6431 59.44ZM49.3383 56.92C49.4249 56.92 49.4949 56.95 49.5483 57.01C49.6083 57.07 49.6383 57.14 49.6383 57.22V60.04C49.6383 60.7 49.4516 61.2033 49.0783 61.55C48.7049 61.8967 48.2016 62.07 47.5683 62.07C46.9416 62.07 46.4416 61.8967 46.0683 61.55C45.7016 61.2033 45.5183 60.7 45.5183 60.04V57.22C45.5183 57.14 45.5449 57.07 45.5983 57.01C45.6583 56.95 45.7316 56.92 45.8183 56.92C45.9049 56.92 45.9749 56.95 46.0283 57.01C46.0883 57.07 46.1183 57.14 46.1183 57.22V60.04C46.1183 60.52 46.2449 60.8867 46.4983 61.14C46.7583 61.3867 47.1149 61.51 47.5683 61.51C48.0283 61.51 48.3883 61.3867 48.6483 61.14C48.9083 60.8867 49.0383 60.52 49.0383 60.04V57.22C49.0383 57.14 49.0649 57.07 49.1183 57.01C49.1716 56.95 49.2449 56.92 49.3383 56.92ZM9.01556 68.52C9.09556 68.5733 9.14223 68.6433 9.15556 68.73C9.16889 68.81 9.14889 68.89 9.09556 68.97C9.04889 69.03 8.98889 69.0633 8.91556 69.07C8.84223 69.0767 8.77223 69.0633 8.70556 69.03C8.45223 68.8633 8.17889 68.7333 7.88556 68.64C7.59889 68.5467 7.28889 68.5 6.95556 68.5C6.54889 68.5 6.16889 68.5733 5.81556 68.72C5.46889 68.86 5.16556 69.0667 4.90556 69.34C4.64556 69.6067 4.44223 69.9233 4.29556 70.29C4.15556 70.6567 4.08556 71.06 4.08556 71.5C4.08556 71.9533 4.15889 72.3667 4.30556 72.74C4.45223 73.1067 4.65556 73.4233 4.91556 73.69C5.18223 73.9567 5.48889 74.16 5.83556 74.3C6.18223 74.44 6.55556 74.51 6.95556 74.51C7.28223 74.51 7.58889 74.4633 7.87556 74.37C8.16889 74.2767 8.44223 74.15 8.69556 73.99C8.76223 73.95 8.83223 73.9367 8.90556 73.95C8.98556 73.9567 9.04889 73.9933 9.09556 74.06C9.15556 74.1333 9.17556 74.2133 9.15556 74.3C9.14223 74.38 9.09889 74.4433 9.02556 74.49C8.85889 74.5967 8.66223 74.6967 8.43556 74.79C8.20889 74.8833 7.96889 74.9567 7.71556 75.01C7.46223 75.07 7.20889 75.1 6.95556 75.1C6.47556 75.1 6.02556 75.0133 5.60556 74.84C5.18556 74.6667 4.81223 74.4233 4.48556 74.11C4.15889 73.79 3.90223 73.41 3.71556 72.97C3.53556 72.53 3.44556 72.04 3.44556 71.5C3.44556 70.98 3.53556 70.5033 3.71556 70.07C3.89556 69.63 4.14556 69.25 4.46556 68.93C4.78556 68.61 5.15889 68.36 5.58556 68.18C6.01223 68 6.46889 67.91 6.95556 67.91C7.33556 67.91 7.70223 67.9633 8.05556 68.07C8.40889 68.1767 8.72889 68.3267 9.01556 68.52ZM14.4788 69.89C14.5654 69.89 14.6354 69.92 14.6888 69.98C14.7488 70.04 14.7788 70.1133 14.7788 70.2V74.7C14.7788 74.78 14.7488 74.85 14.6888 74.91C14.6288 74.97 14.5588 75 14.4788 75C14.3921 75 14.3188 74.97 14.2588 74.91C14.2054 74.85 14.1788 74.78 14.1788 74.7V73.51L14.3488 73.43C14.3488 73.6167 14.2954 73.8067 14.1888 74C14.0888 74.1933 13.9488 74.3733 13.7688 74.54C13.5888 74.7067 13.3754 74.8433 13.1288 74.95C12.8888 75.05 12.6288 75.1 12.3488 75.1C11.8954 75.1 11.4888 74.9833 11.1288 74.75C10.7754 74.5167 10.4954 74.1967 10.2888 73.79C10.0888 73.3833 9.98876 72.9267 9.98876 72.42C9.98876 71.9 10.0921 71.4433 10.2988 71.05C10.5054 70.65 10.7854 70.3367 11.1388 70.11C11.4921 69.8833 11.8921 69.77 12.3388 69.77C12.6254 69.77 12.8921 69.82 13.1388 69.92C13.3921 70.02 13.6121 70.1567 13.7988 70.33C13.9854 70.5033 14.1288 70.7033 14.2288 70.93C14.3354 71.15 14.3888 71.38 14.3888 71.62L14.1788 71.47V70.2C14.1788 70.1133 14.2054 70.04 14.2588 69.98C14.3188 69.92 14.3921 69.89 14.4788 69.89ZM12.3988 74.54C12.7521 74.54 13.0654 74.45 13.3388 74.27C13.6121 74.0833 13.8254 73.83 13.9788 73.51C14.1388 73.1833 14.2188 72.82 14.2188 72.42C14.2188 72.0267 14.1388 71.6733 13.9788 71.36C13.8254 71.0467 13.6121 70.7967 13.3388 70.61C13.0654 70.4233 12.7521 70.33 12.3988 70.33C12.0521 70.33 11.7388 70.42 11.4588 70.6C11.1854 70.78 10.9688 71.0267 10.8088 71.34C10.6554 71.6533 10.5788 72.0133 10.5788 72.42C10.5788 72.82 10.6554 73.1833 10.8088 73.51C10.9688 73.83 11.1854 74.0833 11.4588 74.27C11.7321 74.45 12.0454 74.54 12.3988 74.54ZM20.5432 67.6C20.6299 67.6 20.6999 67.63 20.7532 67.69C20.8132 67.7433 20.8432 67.8133 20.8432 67.9V74.7C20.8432 74.78 20.8132 74.85 20.7532 74.91C20.6932 74.97 20.6232 75 20.5432 75C20.4566 75 20.3832 74.97 20.3232 74.91C20.2699 74.85 20.2432 74.78 20.2432 74.7V73.51L20.4132 73.37C20.4132 73.5567 20.3632 73.7533 20.2632 73.96C20.1632 74.16 20.0199 74.3467 19.8332 74.52C19.6532 74.6933 19.4399 74.8333 19.1932 74.94C18.9532 75.0467 18.6932 75.1 18.4132 75.1C17.9666 75.1 17.5632 74.9833 17.2032 74.75C16.8499 74.5167 16.5699 74.2 16.3632 73.8C16.1566 73.4 16.0532 72.9433 16.0532 72.43C16.0532 71.9233 16.1566 71.47 16.3632 71.07C16.5699 70.6633 16.8499 70.3467 17.2032 70.12C17.5566 69.8867 17.9566 69.77 18.4032 69.77C18.6766 69.77 18.9366 69.82 19.1832 69.92C19.4299 70.02 19.6466 70.1567 19.8332 70.33C20.0266 70.5033 20.1766 70.7033 20.2832 70.93C20.3966 71.15 20.4532 71.38 20.4532 71.62L20.2432 71.47V67.9C20.2432 67.82 20.2699 67.75 20.3232 67.69C20.3832 67.63 20.4566 67.6 20.5432 67.6ZM18.4632 74.54C18.8232 74.54 19.1366 74.45 19.4032 74.27C19.6766 74.0833 19.8899 73.8333 20.0432 73.52C20.2032 73.2 20.2832 72.8367 20.2832 72.43C20.2832 72.03 20.2032 71.6733 20.0432 71.36C19.8899 71.04 19.6766 70.79 19.4032 70.61C19.1299 70.4233 18.8166 70.33 18.4632 70.33C18.1166 70.33 17.8032 70.4233 17.5232 70.61C17.2499 70.79 17.0332 71.04 16.8732 71.36C16.7199 71.6733 16.6432 72.03 16.6432 72.43C16.6432 72.83 16.7199 73.19 16.8732 73.51C17.0332 73.83 17.2499 74.0833 17.5232 74.27C17.8032 74.45 18.1166 74.54 18.4632 74.54ZM26.6077 69.89C26.6943 69.89 26.7643 69.92 26.8177 69.98C26.8777 70.04 26.9077 70.1133 26.9077 70.2V74.7C26.9077 74.78 26.8777 74.85 26.8177 74.91C26.7577 74.97 26.6877 75 26.6077 75C26.521 75 26.4477 74.97 26.3877 74.91C26.3343 74.85 26.3077 74.78 26.3077 74.7V73.51L26.4777 73.43C26.4777 73.6167 26.4243 73.8067 26.3177 74C26.2177 74.1933 26.0777 74.3733 25.8977 74.54C25.7177 74.7067 25.5043 74.8433 25.2577 74.95C25.0177 75.05 24.7577 75.1 24.4777 75.1C24.0243 75.1 23.6177 74.9833 23.2577 74.75C22.9043 74.5167 22.6243 74.1967 22.4177 73.79C22.2177 73.3833 22.1177 72.9267 22.1177 72.42C22.1177 71.9 22.221 71.4433 22.4277 71.05C22.6343 70.65 22.9143 70.3367 23.2677 70.11C23.621 69.8833 24.021 69.77 24.4677 69.77C24.7543 69.77 25.021 69.82 25.2677 69.92C25.521 70.02 25.741 70.1567 25.9277 70.33C26.1143 70.5033 26.2577 70.7033 26.3577 70.93C26.4643 71.15 26.5177 71.38 26.5177 71.62L26.3077 71.47V70.2C26.3077 70.1133 26.3343 70.04 26.3877 69.98C26.4477 69.92 26.521 69.89 26.6077 69.89ZM24.5277 74.54C24.881 74.54 25.1943 74.45 25.4677 74.27C25.741 74.0833 25.9543 73.83 26.1077 73.51C26.2677 73.1833 26.3477 72.82 26.3477 72.42C26.3477 72.0267 26.2677 71.6733 26.1077 71.36C25.9543 71.0467 25.741 70.7967 25.4677 70.61C25.1943 70.4233 24.881 70.33 24.5277 70.33C24.181 70.33 23.8677 70.42 23.5877 70.6C23.3143 70.78 23.0977 71.0267 22.9377 71.34C22.7843 71.6533 22.7077 72.0133 22.7077 72.42C22.7077 72.82 22.7843 73.1833 22.9377 73.51C23.0977 73.83 23.3143 74.0833 23.5877 74.27C23.861 74.45 24.1743 74.54 24.5277 74.54ZM28.1921 74.19C28.1388 74.11 28.1121 74.0333 28.1121 73.96C28.1188 73.88 28.1621 73.8167 28.2421 73.77C28.2955 73.7233 28.3555 73.7033 28.4221 73.71C28.4955 73.7167 28.5621 73.75 28.6221 73.81C28.8021 74.0433 29.0188 74.2333 29.2721 74.38C29.5321 74.52 29.8388 74.59 30.1921 74.59C30.3788 74.59 30.5621 74.56 30.7421 74.5C30.9288 74.4333 31.0821 74.3367 31.2021 74.21C31.3221 74.0767 31.3821 73.91 31.3821 73.71C31.3821 73.5033 31.3221 73.3367 31.2021 73.21C31.0821 73.0833 30.9255 72.9833 30.7321 72.91C30.5455 72.8367 30.3455 72.7733 30.1321 72.72C29.9055 72.66 29.6855 72.5933 29.4721 72.52C29.2588 72.44 29.0688 72.3433 28.9021 72.23C28.7421 72.11 28.6121 71.9667 28.5121 71.8C28.4121 71.6333 28.3621 71.43 28.3621 71.19C28.3621 70.91 28.4388 70.6633 28.5921 70.45C28.7455 70.2367 28.9521 70.07 29.2121 69.95C29.4788 69.83 29.7788 69.77 30.1121 69.77C30.2788 69.77 30.4588 69.7933 30.6521 69.84C30.8455 69.88 31.0355 69.95 31.2221 70.05C31.4088 70.15 31.5755 70.2867 31.7221 70.46C31.7821 70.52 31.8121 70.59 31.8121 70.67C31.8121 70.7433 31.7788 70.81 31.7121 70.87C31.6588 70.91 31.5955 70.93 31.5221 70.93C31.4555 70.93 31.3988 70.9033 31.3521 70.85C31.1921 70.67 31.0021 70.5333 30.7821 70.44C30.5621 70.3467 30.3255 70.3 30.0721 70.3C29.8788 70.3 29.6955 70.3333 29.5221 70.4C29.3555 70.46 29.2155 70.5533 29.1021 70.68C28.9888 70.8067 28.9321 70.9733 28.9321 71.18C28.9455 71.3733 29.0121 71.53 29.1321 71.65C29.2588 71.77 29.4221 71.87 29.6221 71.95C29.8288 72.03 30.0588 72.1033 30.3121 72.17C30.5255 72.2233 30.7288 72.2867 30.9221 72.36C31.1221 72.4333 31.2955 72.5267 31.4421 72.64C31.5955 72.7467 31.7155 72.8833 31.8021 73.05C31.8955 73.2167 31.9421 73.4267 31.9421 73.68C31.9421 73.9733 31.8588 74.2267 31.6921 74.44C31.5321 74.6533 31.3155 74.8167 31.0421 74.93C30.7688 75.0433 30.4655 75.1 30.1321 75.1C29.7721 75.1 29.4221 75.03 29.0821 74.89C28.7488 74.75 28.4521 74.5167 28.1921 74.19ZM32.8396 69.91H35.1696C35.2496 69.91 35.3163 69.94 35.3696 70C35.423 70.0533 35.4496 70.12 35.4496 70.2C35.4496 70.2733 35.423 70.3367 35.3696 70.39C35.3163 70.4433 35.2496 70.47 35.1696 70.47H32.8396C32.7596 70.47 32.6896 70.4433 32.6296 70.39C32.5763 70.33 32.5496 70.2633 32.5496 70.19C32.5496 70.11 32.5763 70.0433 32.6296 69.99C32.6896 69.9367 32.7596 69.91 32.8396 69.91ZM33.8696 68.5C33.9563 68.5 34.0263 68.53 34.0796 68.59C34.1396 68.65 34.1696 68.72 34.1696 68.8V73.82C34.1696 74.0067 34.193 74.1467 34.2396 74.24C34.293 74.3333 34.3596 74.3967 34.4396 74.43C34.5196 74.4567 34.5996 74.47 34.6796 74.47C34.733 74.47 34.7796 74.4633 34.8196 74.45C34.8663 74.43 34.9163 74.42 34.9696 74.42C35.0296 74.42 35.0796 74.4433 35.1196 74.49C35.1663 74.5367 35.1896 74.5967 35.1896 74.67C35.1896 74.7633 35.1363 74.8433 35.0296 74.91C34.923 74.97 34.7963 75 34.6496 75C34.5896 75 34.4996 74.9967 34.3796 74.99C34.2596 74.9767 34.1363 74.94 34.0096 74.88C33.883 74.8133 33.7763 74.7 33.6896 74.54C33.6096 74.38 33.5696 74.15 33.5696 73.85V68.8C33.5696 68.72 33.5963 68.65 33.6496 68.59C33.7096 68.53 33.783 68.5 33.8696 68.5ZM36.8583 75C36.765 75 36.6916 74.97 36.6383 74.91C36.585 74.85 36.5583 74.78 36.5583 74.7V70.22C36.5583 70.14 36.585 70.07 36.6383 70.01C36.6983 69.95 36.7716 69.92 36.8583 69.92C36.945 69.92 37.015 69.95 37.0683 70.01C37.1283 70.07 37.1583 70.14 37.1583 70.22V71.72L37.0083 71.75C37.0283 71.5167 37.085 71.2867 37.1783 71.06C37.2783 70.8267 37.4116 70.6133 37.5783 70.42C37.745 70.2267 37.9416 70.07 38.1683 69.95C38.4016 69.83 38.6616 69.77 38.9483 69.77C39.0683 69.77 39.185 69.7967 39.2983 69.85C39.4116 69.8967 39.4683 69.9767 39.4683 70.09C39.4683 70.19 39.4416 70.2667 39.3883 70.32C39.335 70.3733 39.2716 70.4 39.1983 70.4C39.1383 70.4 39.0716 70.3833 38.9983 70.35C38.9316 70.3167 38.8416 70.3 38.7283 70.3C38.5416 70.3 38.355 70.3567 38.1683 70.47C37.9816 70.5767 37.8116 70.7233 37.6583 70.91C37.505 71.0967 37.3816 71.3067 37.2883 71.54C37.2016 71.7667 37.1583 71.9967 37.1583 72.23V74.7C37.1583 74.78 37.1283 74.85 37.0683 74.91C37.0083 74.97 36.9383 75 36.8583 75ZM42.4913 75.1C41.978 75.1 41.5247 74.99 41.1313 74.77C40.738 74.55 40.4313 74.2433 40.2113 73.85C39.9913 73.4567 39.8813 72.9967 39.8813 72.47C39.8813 71.9033 39.9913 71.42 40.2113 71.02C40.438 70.62 40.728 70.3133 41.0813 70.1C41.4413 69.88 41.8213 69.77 42.2213 69.77C42.5147 69.77 42.798 69.8233 43.0713 69.93C43.3513 70.03 43.598 70.1833 43.8113 70.39C44.0313 70.59 44.2047 70.8367 44.3313 71.13C44.4647 71.4233 44.538 71.7633 44.5513 72.15C44.5447 72.23 44.5113 72.3 44.4513 72.36C44.3913 72.4133 44.3213 72.44 44.2413 72.44H40.2313L40.1113 71.9H44.0513L43.9213 72.02V71.82C43.8947 71.5067 43.7947 71.24 43.6213 71.02C43.448 70.8 43.238 70.6333 42.9913 70.52C42.7447 70.4067 42.488 70.35 42.2213 70.35C42.0213 70.35 41.8147 70.39 41.6013 70.47C41.3947 70.55 41.2047 70.6767 41.0313 70.85C40.8647 71.0167 40.728 71.2333 40.6213 71.5C40.5147 71.76 40.4613 72.07 40.4613 72.43C40.4613 72.8233 40.5413 73.18 40.7013 73.5C40.8613 73.82 41.0913 74.0733 41.3913 74.26C41.698 74.4467 42.0613 74.54 42.4813 74.54C42.7147 74.54 42.9247 74.5067 43.1113 74.44C43.298 74.3733 43.4613 74.2867 43.6013 74.18C43.7413 74.0667 43.858 73.95 43.9513 73.83C44.0247 73.77 44.098 73.74 44.1713 73.74C44.238 73.74 44.2947 73.7667 44.3413 73.82C44.3947 73.8733 44.4213 73.9333 44.4213 74C44.4213 74.08 44.388 74.15 44.3213 74.21C44.1213 74.45 43.8613 74.66 43.5413 74.84C43.2213 75.0133 42.8713 75.1 42.4913 75.1ZM45.9156 72.17C45.8356 72.17 45.7656 72.14 45.7056 72.08C45.6523 72.02 45.6256 71.9467 45.6256 71.86C45.6256 71.78 45.6523 71.7133 45.7056 71.66C45.7656 71.6 45.8356 71.57 45.9156 71.57H48.0756C48.1556 71.57 48.2256 71.6 48.2856 71.66C48.3456 71.72 48.3756 71.7933 48.3756 71.88C48.3756 71.96 48.3456 72.03 48.2856 72.09C48.2256 72.1433 48.1556 72.17 48.0756 72.17H45.9156ZM49.4421 74.19C49.3888 74.11 49.3621 74.0333 49.3621 73.96C49.3688 73.88 49.4121 73.8167 49.4921 73.77C49.5455 73.7233 49.6055 73.7033 49.6721 73.71C49.7455 73.7167 49.8121 73.75 49.8721 73.81C50.0521 74.0433 50.2688 74.2333 50.5221 74.38C50.7821 74.52 51.0888 74.59 51.4421 74.59C51.6288 74.59 51.8121 74.56 51.9921 74.5C52.1788 74.4333 52.3321 74.3367 52.4521 74.21C52.5721 74.0767 52.6321 73.91 52.6321 73.71C52.6321 73.5033 52.5721 73.3367 52.4521 73.21C52.3321 73.0833 52.1755 72.9833 51.9821 72.91C51.7955 72.8367 51.5955 72.7733 51.3821 72.72C51.1555 72.66 50.9355 72.5933 50.7221 72.52C50.5088 72.44 50.3188 72.3433 50.1521 72.23C49.9921 72.11 49.8621 71.9667 49.7621 71.8C49.6621 71.6333 49.6121 71.43 49.6121 71.19C49.6121 70.91 49.6888 70.6633 49.8421 70.45C49.9955 70.2367 50.2021 70.07 50.4621 69.95C50.7288 69.83 51.0288 69.77 51.3621 69.77C51.5288 69.77 51.7088 69.7933 51.9021 69.84C52.0955 69.88 52.2855 69.95 52.4721 70.05C52.6588 70.15 52.8255 70.2867 52.9721 70.46C53.0321 70.52 53.0621 70.59 53.0621 70.67C53.0621 70.7433 53.0288 70.81 52.9621 70.87C52.9088 70.91 52.8455 70.93 52.7721 70.93C52.7055 70.93 52.6488 70.9033 52.6021 70.85C52.4421 70.67 52.2521 70.5333 52.0321 70.44C51.8121 70.3467 51.5755 70.3 51.3221 70.3C51.1288 70.3 50.9455 70.3333 50.7721 70.4C50.6055 70.46 50.4655 70.5533 50.3521 70.68C50.2388 70.8067 50.1821 70.9733 50.1821 71.18C50.1955 71.3733 50.2621 71.53 50.3821 71.65C50.5088 71.77 50.6721 71.87 50.8721 71.95C51.0788 72.03 51.3088 72.1033 51.5621 72.17C51.7755 72.2233 51.9788 72.2867 52.1721 72.36C52.3721 72.4333 52.5455 72.5267 52.6921 72.64C52.8455 72.7467 52.9655 72.8833 53.0521 73.05C53.1455 73.2167 53.1921 73.4267 53.1921 73.68C53.1921 73.9733 53.1088 74.2267 52.9421 74.44C52.7821 74.6533 52.5655 74.8167 52.2921 74.93C52.0188 75.0433 51.7155 75.1 51.3821 75.1C51.0221 75.1 50.6721 75.03 50.3321 74.89C49.9988 74.75 49.7021 74.5167 49.4421 74.19ZM56.7296 75.1C56.2163 75.1 55.763 74.99 55.3696 74.77C54.9763 74.55 54.6696 74.2433 54.4496 73.85C54.2296 73.4567 54.1196 72.9967 54.1196 72.47C54.1196 71.9033 54.2296 71.42 54.4496 71.02C54.6763 70.62 54.9663 70.3133 55.3196 70.1C55.6796 69.88 56.0596 69.77 56.4596 69.77C56.753 69.77 57.0363 69.8233 57.3096 69.93C57.5896 70.03 57.8363 70.1833 58.0496 70.39C58.2696 70.59 58.443 70.8367 58.5696 71.13C58.703 71.4233 58.7763 71.7633 58.7896 72.15C58.783 72.23 58.7496 72.3 58.6896 72.36C58.6296 72.4133 58.5596 72.44 58.4796 72.44H54.4696L54.3496 71.9H58.2896L58.1596 72.02V71.82C58.133 71.5067 58.033 71.24 57.8596 71.02C57.6863 70.8 57.4763 70.6333 57.2296 70.52C56.983 70.4067 56.7263 70.35 56.4596 70.35C56.2596 70.35 56.053 70.39 55.8396 70.47C55.633 70.55 55.443 70.6767 55.2696 70.85C55.103 71.0167 54.9663 71.2333 54.8596 71.5C54.753 71.76 54.6996 72.07 54.6996 72.43C54.6996 72.8233 54.7796 73.18 54.9396 73.5C55.0996 73.82 55.3296 74.0733 55.6296 74.26C55.9363 74.4467 56.2996 74.54 56.7196 74.54C56.953 74.54 57.163 74.5067 57.3496 74.44C57.5363 74.3733 57.6996 74.2867 57.8396 74.18C57.9796 74.0667 58.0963 73.95 58.1896 73.83C58.263 73.77 58.3363 73.74 58.4096 73.74C58.4763 73.74 58.533 73.7667 58.5796 73.82C58.633 73.8733 58.6596 73.9333 58.6596 74C58.6596 74.08 58.6263 74.15 58.5596 74.21C58.3596 74.45 58.0996 74.66 57.7796 74.84C57.4596 75.0133 57.1096 75.1 56.7296 75.1Z" fill="white"/>
<path d="M31.2279 1C16.7424 1 5.00024 10.8922 5.00024 23.0956C5.00024 35.299 16.7424 45.1912 31.2279 45.1912C45.7134 45.1912 57.4556 35.299 57.4556 23.0956C57.4556 10.8922 45.7134 1 31.2279 1Z" stroke="#6ECAEF" stroke-width="1.5" stroke-linecap="round" stroke-linejoin="round"/>
<path d="M10.9565 37.1185C10.9565 37.1185 16.8027 30.8301 31.2279 30.8301C45.6531 30.8301 51.5018 37.1185 51.5018 37.1185" stroke="#6ECAEF" stroke-width="1.5" stroke-linecap="round" stroke-linejoin="round"/>
<path d="M31.2272 23.0953C33.314 23.0953 35.3154 22.3969 36.791 21.1538C38.2666 19.9107 39.0956 18.2246 39.0956 16.4666C39.0956 14.7085 38.2666 13.0225 36.791 11.7794C35.3154 10.5363 33.314 9.83789 31.2272 9.83789C29.1404 9.83789 27.1391 10.5363 25.6635 11.7794C24.1879 13.0225 23.3589 14.7085 23.3589 16.4666C23.3589 18.2246 24.1879 19.9107 25.6635 21.1538C27.1391 22.3969 29.1404 23.0953 31.2272 23.0953V23.0953Z" stroke="#6ECAEF" stroke-width="1.5" stroke-linecap="round" stroke-linejoin="round"/>
</svg>
