<svg width="60" height="65" viewBox="0 0 60 65" fill="none" xmlns="http://www.w3.org/2000/svg">
<path d="M42.7084 13.2574V14.0074H43.4584H51.2709C51.7989 14.0074 52.2853 14.1864 52.6271 14.4764L53.1124 13.9045L52.6272 14.4764C52.9652 14.7633 53.1251 15.1233 53.1251 15.4669V39.7721C53.1251 41.6842 51.2452 43.4412 48.6668 43.4412H12.2083C9.62989 43.4412 7.75 41.6842 7.75 39.7721V15.4669C7.75 15.1233 7.90989 14.7633 8.24797 14.4764C8.58979 14.1864 9.07622 14.0074 9.60417 14.0074H17.4167H18.1667V13.2574V11.0478C18.1667 5.48108 23.5518 0.75 30.4376 0.75C37.3233 0.75 42.7084 5.48108 42.7084 11.0478V13.2574ZM38.2501 14.0074H39.0001V13.2574V11.0478C39.0001 6.86816 35.0388 3.66912 30.4376 3.66912C25.8363 3.66912 21.875 6.86816 21.875 11.0478V13.2574V14.0074H22.625H38.2501ZM12.2083 16.9265H11.4583V17.6765V39.7721V40.5221H12.2083H48.672H49.4222L49.422 39.7719L49.4168 17.6763L49.4166 16.9265H48.6668H43.4584H42.7084V17.6765V21.3456H39.0001V17.6765V16.9265H38.2501H22.625H21.875V17.6765V21.3456H18.1667V17.6765V16.9265H17.4167H12.2083Z" fill="#6ECAEF" stroke="black" stroke-width="1.5"/>
<path d="M7.58969 61.1C7.08302 61.1067 6.64302 61.0267 6.26969 60.86C5.89635 60.6933 5.53969 60.4433 5.19969 60.11C5.16635 60.0833 5.13635 60.05 5.10969 60.01C5.08969 59.97 5.07969 59.9233 5.07969 59.87C5.07969 59.79 5.10969 59.7167 5.16969 59.65C5.23635 59.5833 5.30969 59.55 5.38969 59.55C5.46969 59.55 5.54302 59.5833 5.60969 59.65C5.86969 59.93 6.16302 60.1433 6.48969 60.29C6.82302 60.4367 7.17969 60.51 7.55969 60.51C7.87969 60.51 8.16302 60.46 8.40969 60.36C8.66302 60.26 8.86302 60.1167 9.00969 59.93C9.15635 59.7433 9.22969 59.5267 9.22969 59.28C9.22969 58.9733 9.14635 58.7267 8.97969 58.54C8.81302 58.3467 8.59302 58.19 8.31969 58.07C8.04635 57.9433 7.74302 57.83 7.40969 57.73C7.13635 57.65 6.87635 57.56 6.62969 57.46C6.38302 57.3533 6.16302 57.2267 5.96969 57.08C5.77635 56.9267 5.62635 56.74 5.51969 56.52C5.41302 56.3 5.35969 56.0333 5.35969 55.72C5.35969 55.3667 5.45302 55.0533 5.63969 54.78C5.82635 54.5067 6.08969 54.2933 6.42969 54.14C6.77635 53.98 7.17635 53.9 7.62969 53.9C8.02302 53.9 8.39969 53.9667 8.75969 54.1C9.12635 54.2333 9.41635 54.43 9.62969 54.69C9.72969 54.7967 9.77969 54.8933 9.77969 54.98C9.77969 55.0467 9.74635 55.1133 9.67969 55.18C9.61302 55.2467 9.53969 55.28 9.45969 55.28C9.39302 55.28 9.33635 55.2567 9.28969 55.21C9.17635 55.07 9.03302 54.9467 8.85969 54.84C8.68635 54.7267 8.49302 54.64 8.27969 54.58C8.07302 54.52 7.85635 54.49 7.62969 54.49C7.31635 54.49 7.03302 54.54 6.77969 54.64C6.53302 54.7333 6.33635 54.87 6.18969 55.05C6.04969 55.23 5.97969 55.4467 5.97969 55.7C5.97969 55.98 6.05969 56.21 6.21969 56.39C6.37969 56.57 6.58969 56.72 6.84969 56.84C7.10969 56.9533 7.38635 57.06 7.67969 57.16C7.96635 57.24 8.23969 57.3333 8.49969 57.44C8.76635 57.54 8.99969 57.6667 9.19969 57.82C9.40635 57.9733 9.56635 58.1667 9.67969 58.4C9.79969 58.6333 9.85969 58.9267 9.85969 59.28C9.85969 59.62 9.76302 59.9267 9.56969 60.2C9.37635 60.4733 9.10969 60.69 8.76969 60.85C8.43635 61.01 8.04302 61.0933 7.58969 61.1ZM14.9449 55.92C15.0316 55.92 15.1016 55.95 15.1549 56.01C15.2149 56.07 15.2449 56.14 15.2449 56.22V59.04C15.2449 59.7 15.0583 60.2033 14.6849 60.55C14.3116 60.8967 13.8083 61.07 13.1749 61.07C12.5483 61.07 12.0483 60.8967 11.6749 60.55C11.3083 60.2033 11.1249 59.7 11.1249 59.04V56.22C11.1249 56.14 11.1516 56.07 11.2049 56.01C11.2649 55.95 11.3383 55.92 11.4249 55.92C11.5116 55.92 11.5816 55.95 11.6349 56.01C11.6949 56.07 11.7249 56.14 11.7249 56.22V59.04C11.7249 59.52 11.8516 59.8867 12.1049 60.14C12.3649 60.3867 12.7216 60.51 13.1749 60.51C13.6349 60.51 13.9949 60.3867 14.2549 60.14C14.5149 59.8867 14.6449 59.52 14.6449 59.04V56.22C14.6449 56.14 14.6716 56.07 14.7249 56.01C14.7783 55.95 14.8516 55.92 14.9449 55.92ZM21.0083 55.89C21.0949 55.89 21.1649 55.92 21.2183 55.98C21.2783 56.04 21.3083 56.1133 21.3083 56.2V60.7C21.3083 60.78 21.2783 60.85 21.2183 60.91C21.1583 60.97 21.0883 61 21.0083 61C20.9216 61 20.8483 60.97 20.7883 60.91C20.7349 60.85 20.7083 60.78 20.7083 60.7V59.51L20.8783 59.43C20.8783 59.6167 20.8249 59.8067 20.7183 60C20.6183 60.1933 20.4783 60.3733 20.2983 60.54C20.1183 60.7067 19.9049 60.8433 19.6583 60.95C19.4183 61.05 19.1583 61.1 18.8783 61.1C18.4249 61.1 18.0183 60.9833 17.6583 60.75C17.3049 60.5167 17.0249 60.1967 16.8183 59.79C16.6183 59.3833 16.5183 58.9267 16.5183 58.42C16.5183 57.9 16.6216 57.4433 16.8283 57.05C17.0349 56.65 17.3149 56.3367 17.6683 56.11C18.0216 55.8833 18.4216 55.77 18.8683 55.77C19.1549 55.77 19.4216 55.82 19.6683 55.92C19.9216 56.02 20.1416 56.1567 20.3283 56.33C20.5149 56.5033 20.6583 56.7033 20.7583 56.93C20.8649 57.15 20.9183 57.38 20.9183 57.62L20.7083 57.47V56.2C20.7083 56.1133 20.7349 56.04 20.7883 55.98C20.8483 55.92 20.9216 55.89 21.0083 55.89ZM18.9283 60.54C19.2816 60.54 19.5949 60.45 19.8683 60.27C20.1416 60.0833 20.3549 59.83 20.5083 59.51C20.6683 59.1833 20.7483 58.82 20.7483 58.42C20.7483 58.0267 20.6683 57.6733 20.5083 57.36C20.3549 57.0467 20.1416 56.7967 19.8683 56.61C19.5949 56.4233 19.2816 56.33 18.9283 56.33C18.5816 56.33 18.2683 56.42 17.9883 56.6C17.7149 56.78 17.4983 57.0267 17.3383 57.34C17.1849 57.6533 17.1083 58.0133 17.1083 58.42C17.1083 58.82 17.1849 59.1833 17.3383 59.51C17.4983 59.83 17.7149 60.0833 17.9883 60.27C18.2616 60.45 18.5749 60.54 18.9283 60.54ZM25.3271 60.19C25.2738 60.11 25.2471 60.0333 25.2471 59.96C25.2538 59.88 25.2971 59.8167 25.3771 59.77C25.4304 59.7233 25.4904 59.7033 25.5571 59.71C25.6304 59.7167 25.6971 59.75 25.7571 59.81C25.9371 60.0433 26.1538 60.2333 26.4071 60.38C26.6671 60.52 26.9738 60.59 27.3271 60.59C27.5138 60.59 27.6971 60.56 27.8771 60.5C28.0638 60.4333 28.2171 60.3367 28.3371 60.21C28.4571 60.0767 28.5171 59.91 28.5171 59.71C28.5171 59.5033 28.4571 59.3367 28.3371 59.21C28.2171 59.0833 28.0604 58.9833 27.8671 58.91C27.6804 58.8367 27.4804 58.7733 27.2671 58.72C27.0404 58.66 26.8204 58.5933 26.6071 58.52C26.3938 58.44 26.2038 58.3433 26.0371 58.23C25.8771 58.11 25.7471 57.9667 25.6471 57.8C25.5471 57.6333 25.4971 57.43 25.4971 57.19C25.4971 56.91 25.5738 56.6633 25.7271 56.45C25.8804 56.2367 26.0871 56.07 26.3471 55.95C26.6138 55.83 26.9138 55.77 27.2471 55.77C27.4138 55.77 27.5938 55.7933 27.7871 55.84C27.9804 55.88 28.1704 55.95 28.3571 56.05C28.5438 56.15 28.7104 56.2867 28.8571 56.46C28.9171 56.52 28.9471 56.59 28.9471 56.67C28.9471 56.7433 28.9138 56.81 28.8471 56.87C28.7938 56.91 28.7304 56.93 28.6571 56.93C28.5904 56.93 28.5338 56.9033 28.4871 56.85C28.3271 56.67 28.1371 56.5333 27.9171 56.44C27.6971 56.3467 27.4604 56.3 27.2071 56.3C27.0138 56.3 26.8304 56.3333 26.6571 56.4C26.4904 56.46 26.3504 56.5533 26.2371 56.68C26.1238 56.8067 26.0671 56.9733 26.0671 57.18C26.0804 57.3733 26.1471 57.53 26.2671 57.65C26.3938 57.77 26.5571 57.87 26.7571 57.95C26.9638 58.03 27.1938 58.1033 27.4471 58.17C27.6604 58.2233 27.8638 58.2867 28.0571 58.36C28.2571 58.4333 28.4304 58.5267 28.5771 58.64C28.7304 58.7467 28.8504 58.8833 28.9371 59.05C29.0304 59.2167 29.0771 59.4267 29.0771 59.68C29.0771 59.9733 28.9938 60.2267 28.8271 60.44C28.6671 60.6533 28.4504 60.8167 28.1771 60.93C27.9038 61.0433 27.6004 61.1 27.2671 61.1C26.9071 61.1 26.5571 61.03 26.2171 60.89C25.8838 60.75 25.5871 60.5167 25.3271 60.19ZM34.5727 55.89C34.6594 55.89 34.7294 55.92 34.7827 55.98C34.8427 56.04 34.8727 56.1133 34.8727 56.2V60.7C34.8727 60.78 34.8427 60.85 34.7827 60.91C34.7227 60.97 34.6527 61 34.5727 61C34.4861 61 34.4127 60.97 34.3527 60.91C34.2994 60.85 34.2727 60.78 34.2727 60.7V59.51L34.4427 59.43C34.4427 59.6167 34.3894 59.8067 34.2827 60C34.1827 60.1933 34.0427 60.3733 33.8627 60.54C33.6827 60.7067 33.4694 60.8433 33.2227 60.95C32.9827 61.05 32.7227 61.1 32.4427 61.1C31.9894 61.1 31.5827 60.9833 31.2227 60.75C30.8694 60.5167 30.5894 60.1967 30.3827 59.79C30.1827 59.3833 30.0827 58.9267 30.0827 58.42C30.0827 57.9 30.1861 57.4433 30.3927 57.05C30.5994 56.65 30.8794 56.3367 31.2327 56.11C31.5861 55.8833 31.9861 55.77 32.4327 55.77C32.7194 55.77 32.9861 55.82 33.2327 55.92C33.4861 56.02 33.7061 56.1567 33.8927 56.33C34.0794 56.5033 34.2227 56.7033 34.3227 56.93C34.4294 57.15 34.4827 57.38 34.4827 57.62L34.2727 57.47V56.2C34.2727 56.1133 34.2994 56.04 34.3527 55.98C34.4127 55.92 34.4861 55.89 34.5727 55.89ZM32.4927 60.54C32.8461 60.54 33.1594 60.45 33.4327 60.27C33.7061 60.0833 33.9194 59.83 34.0727 59.51C34.2327 59.1833 34.3127 58.82 34.3127 58.42C34.3127 58.0267 34.2327 57.6733 34.0727 57.36C33.9194 57.0467 33.7061 56.7967 33.4327 56.61C33.1594 56.4233 32.8461 56.33 32.4927 56.33C32.1461 56.33 31.8327 56.42 31.5527 56.6C31.2794 56.78 31.0627 57.0267 30.9027 57.34C30.7494 57.6533 30.6727 58.0133 30.6727 58.42C30.6727 58.82 30.7494 59.1833 30.9027 59.51C31.0627 59.83 31.2794 60.0833 31.5527 60.27C31.8261 60.45 32.1394 60.54 32.4927 60.54ZM38.6972 55.77C39.0172 55.77 39.3105 55.8067 39.5772 55.88C39.8439 55.9467 40.0572 56.04 40.2172 56.16C40.3839 56.28 40.4672 56.41 40.4672 56.55C40.4672 56.6167 40.4439 56.6833 40.3972 56.75C40.3505 56.81 40.2872 56.84 40.2072 56.84C40.1272 56.84 40.0605 56.82 40.0072 56.78C39.9605 56.74 39.9105 56.6933 39.8572 56.64C39.8105 56.5867 39.7405 56.5367 39.6472 56.49C39.5605 56.45 39.4372 56.4133 39.2772 56.38C39.1172 56.3467 38.9339 56.33 38.7272 56.33C38.3539 56.33 38.0172 56.4233 37.7172 56.61C37.4172 56.7967 37.1805 57.05 37.0072 57.37C36.8339 57.6833 36.7472 58.0367 36.7472 58.43C36.7472 58.83 36.8305 59.19 36.9972 59.51C37.1639 59.83 37.3939 60.0833 37.6872 60.27C37.9805 60.45 38.3239 60.54 38.7172 60.54C38.9839 60.54 39.1905 60.5167 39.3372 60.47C39.4839 60.4233 39.6105 60.37 39.7172 60.31C39.8439 60.2367 39.9339 60.1667 39.9872 60.1C40.0472 60.0267 40.1239 59.99 40.2172 59.99C40.3039 59.99 40.3672 60.0167 40.4072 60.07C40.4539 60.1167 40.4772 60.18 40.4772 60.26C40.4772 60.3667 40.3972 60.4867 40.2372 60.62C40.0839 60.7467 39.8705 60.86 39.5972 60.96C39.3239 61.0533 39.0105 61.1 38.6572 61.1C38.1572 61.1 37.7172 60.9833 37.3372 60.75C36.9639 60.5167 36.6705 60.2 36.4572 59.8C36.2505 59.3933 36.1472 58.9367 36.1472 58.43C36.1472 57.9433 36.2539 57.5 36.4672 57.1C36.6805 56.7 36.9772 56.38 37.3572 56.14C37.7439 55.8933 38.1905 55.77 38.6972 55.77ZM46.383 58.44C46.383 58.9467 46.273 59.4033 46.053 59.81C45.833 60.21 45.533 60.5267 45.153 60.76C44.773 60.9867 44.3396 61.1 43.853 61.1C43.3796 61.1 42.9496 60.9867 42.563 60.76C42.183 60.5267 41.8796 60.21 41.653 59.81C41.433 59.4033 41.323 58.9467 41.323 58.44C41.323 57.9267 41.433 57.47 41.653 57.07C41.8796 56.67 42.183 56.3533 42.563 56.12C42.9496 55.8867 43.3796 55.77 43.853 55.77C44.3396 55.77 44.773 55.8867 45.153 56.12C45.533 56.3533 45.833 56.67 46.053 57.07C46.273 57.47 46.383 57.9267 46.383 58.44ZM45.783 58.44C45.783 58.0333 45.6996 57.6733 45.533 57.36C45.3663 57.04 45.1363 56.79 44.843 56.61C44.5563 56.4233 44.2263 56.33 43.853 56.33C43.493 56.33 43.1663 56.4233 42.873 56.61C42.5796 56.79 42.3463 57.04 42.173 57.36C42.0063 57.6733 41.923 58.0333 41.923 58.44C41.923 58.8467 42.0063 59.2067 42.173 59.52C42.3463 59.8333 42.5796 60.0833 42.873 60.27C43.1663 60.45 43.493 60.54 43.853 60.54C44.2263 60.54 44.5563 60.45 44.843 60.27C45.1363 60.0833 45.3663 59.8333 45.533 59.52C45.6996 59.2067 45.783 58.8467 45.783 58.44ZM48.3181 60.7C48.3181 60.78 48.2881 60.85 48.2281 60.91C48.1681 60.97 48.0981 61 48.0181 61C47.9315 61 47.8581 60.97 47.7981 60.91C47.7448 60.85 47.7181 60.78 47.7181 60.7V53.9C47.7181 53.82 47.7481 53.75 47.8081 53.69C47.8681 53.63 47.9381 53.6 48.0181 53.6C48.1048 53.6 48.1748 53.63 48.2281 53.69C48.2881 53.75 48.3181 53.82 48.3181 53.9V60.7ZM54.1528 55.89C54.2395 55.89 54.3095 55.92 54.3628 55.98C54.4228 56.04 54.4528 56.1133 54.4528 56.2V60.7C54.4528 60.78 54.4228 60.85 54.3628 60.91C54.3028 60.97 54.2328 61 54.1528 61C54.0661 61 53.9928 60.97 53.9328 60.91C53.8795 60.85 53.8528 60.78 53.8528 60.7V59.51L54.0228 59.43C54.0228 59.6167 53.9695 59.8067 53.8628 60C53.7628 60.1933 53.6228 60.3733 53.4428 60.54C53.2628 60.7067 53.0495 60.8433 52.8028 60.95C52.5628 61.05 52.3028 61.1 52.0228 61.1C51.5695 61.1 51.1628 60.9833 50.8028 60.75C50.4495 60.5167 50.1695 60.1967 49.9628 59.79C49.7628 59.3833 49.6628 58.9267 49.6628 58.42C49.6628 57.9 49.7661 57.4433 49.9728 57.05C50.1795 56.65 50.4595 56.3367 50.8128 56.11C51.1661 55.8833 51.5661 55.77 52.0128 55.77C52.2995 55.77 52.5661 55.82 52.8128 55.92C53.0661 56.02 53.2861 56.1567 53.4728 56.33C53.6595 56.5033 53.8028 56.7033 53.9028 56.93C54.0095 57.15 54.0628 57.38 54.0628 57.62L53.8528 57.47V56.2C53.8528 56.1133 53.8795 56.04 53.9328 55.98C53.9928 55.92 54.0661 55.89 54.1528 55.89ZM52.0728 60.54C52.4261 60.54 52.7395 60.45 53.0128 60.27C53.2861 60.0833 53.4995 59.83 53.6528 59.51C53.8128 59.1833 53.8928 58.82 53.8928 58.42C53.8928 58.0267 53.8128 57.6733 53.6528 57.36C53.4995 57.0467 53.2861 56.7967 53.0128 56.61C52.7395 56.4233 52.4261 56.33 52.0728 56.33C51.7261 56.33 51.4128 56.42 51.1328 56.6C50.8595 56.78 50.6428 57.0267 50.4828 57.34C50.3295 57.6533 50.2528 58.0133 50.2528 58.42C50.2528 58.82 50.3295 59.1833 50.4828 59.51C50.6428 59.83 50.8595 60.0833 51.1328 60.27C51.4061 60.45 51.7195 60.54 52.0728 60.54Z" fill="white"/>
</svg>
