<svg width="44" height="31" viewBox="0 0 55 41" fill="none" xmlns="http://www.w3.org/2000/svg">
<path d="M22 0V11.9338H31.4401V19.1158C31.575 16.9243 34.5149 15.1885 38.1561 15.1885C41.8782 15.1885 44.899 17.0111 44.899 19.2677H31.4401V26.9921C33.49 27.7732 35.7826 28.2072 38.183 28.2072C47.1107 28.2072 54.3661 22.3705 54.3661 15.1885V0H22ZM32.7887 11.9338C31.3053 11.9338 30.0915 10.9574 30.0915 9.76402C30.0915 8.57064 31.3053 7.59424 32.7887 7.59424C34.2721 7.59424 35.4859 8.57064 35.4859 9.76402C35.4859 10.9574 34.2721 11.9338 32.7887 11.9338ZM43.5774 11.9338C42.0939 11.9338 40.8802 10.9574 40.8802 9.76402C40.8802 8.57064 42.0939 7.59424 43.5774 7.59424C45.0608 7.59424 46.2746 8.57064 46.2746 9.76402C46.2746 10.9574 45.0608 11.9338 43.5774 11.9338Z" fill="#1FB5CD"/>
<path d="M0 27.1885C0 34.3704 7.0052 40.2071 15.625 40.2071C24.2448 40.2071 31.25 34.3704 31.25 27.1885V12H0V27.1885ZM15.625 31.2676C12.0312 31.2676 9.11457 29.445 9.11457 27.1885H22.1354C22.1354 29.445 19.2187 31.2676 15.625 31.2676ZM20.8333 19.5942C22.2656 19.5942 23.4375 20.5706 23.4375 21.764C23.4375 22.9574 22.2656 23.9338 20.8333 23.9338C19.401 23.9338 18.2291 22.9574 18.2291 21.764C18.2291 20.5706 19.401 19.5942 20.8333 19.5942ZM10.4167 19.5942C11.8489 19.5942 13.0208 20.5706 13.0208 21.764C13.0208 22.9574 11.8489 23.9338 10.4167 23.9338C8.98437 23.9338 7.81249 22.9574 7.81249 21.764C7.81249 20.5706 8.98437 19.5942 10.4167 19.5942Z" fill="#1FB5CD"/>
</svg>
