<svg width="47" height="48" viewBox="0 0 47 48" fill="none" xmlns="http://www.w3.org/2000/svg">
<path d="M7.82608 43.2407L7.83491 43.2409H7.84374H46.1249V46.4621H7.81249C6.37059 46.4621 4.57769 46.0245 3.16607 45.0105C1.78433 44.0179 0.75 42.4661 0.75 40.1303V14.1636V7.08182C0.75 4.74606 1.78433 3.19421 3.16607 2.20166C4.57769 1.18764 6.37059 0.75 7.81249 0.75H41.6666C44.1958 0.75 46.1249 2.59927 46.1249 4.72121V37.0197H7.84374H7.83491L7.82608 37.0199C7.16484 37.0355 6.33419 37.1598 5.65061 37.6287C4.91649 38.1322 4.45832 38.9594 4.45832 40.1303C4.45832 41.3013 4.91649 42.1284 5.65061 42.632C6.33419 43.1009 7.16484 43.2251 7.82608 43.2407ZM7.81249 3.97121H7.80342L7.79436 3.97143C7.14634 3.9871 6.3236 4.11225 5.64448 4.5817C4.9161 5.0852 4.45832 5.91117 4.45832 7.08182V33.0485V33.7985H5.20832H41.6666H42.4166V33.0485V4.72121V3.97121H41.6666H7.81249Z" fill="#6ECAEF" stroke="black" stroke-width="1.5"/>
<path d="M31.6536 18.8793L31.6535 18.8793L31.6478 18.8844L23.4226 26.2045L15.1999 18.8822L15.1999 18.8821L15.1939 18.8769C14.7314 18.4738 14.3682 17.9942 14.1218 17.4696C13.8756 16.9452 13.75 16.3843 13.75 15.8199C13.75 15.2555 13.8756 14.6947 14.1218 14.1703C14.3682 13.6456 14.7314 13.1661 15.1939 12.7629L15.194 12.763L15.2012 12.7565C16.1407 11.9157 17.4219 11.4336 18.7701 11.4336C20.1183 11.4336 21.3995 11.9157 22.339 12.7565L22.3389 12.7565L22.3417 12.7589L22.925 13.2758L23.4213 13.7157L23.9186 13.277L24.5019 12.7624L24.502 12.7624L24.5059 12.7589C25.4458 11.9179 26.7275 11.4357 28.0761 11.4357C29.4247 11.4357 30.7064 11.9179 31.6463 12.7589L31.6463 12.7589L31.6536 12.7653C32.116 13.1685 32.4793 13.648 32.7257 14.1726C32.9719 14.697 33.0975 15.2579 33.0975 15.8223C33.0975 16.3867 32.9719 16.9475 32.7257 17.4719C32.4793 17.9966 32.116 18.4761 31.6536 18.8793Z" fill="#6ECAEF" stroke="black" stroke-width="1.5"/>
</svg>
