<svg width="51" height="54" viewBox="0 0 51 54" fill="none" xmlns="http://www.w3.org/2000/svg">
<path d="M48.3015 0H2.20535C1.09679 0 0.201172 0.963805 0.201172 2.15677V51.7624C0.201172 52.9554 1.09679 53.9192 2.20535 53.9192H48.3015C49.4101 53.9192 50.3057 52.9554 50.3057 51.7624V2.15677C50.3057 0.963805 49.4101 0 48.3015 0ZM42.5144 15.7377H38.5123C35.3745 15.7377 34.767 17.3418 34.767 19.7007V24.8972H42.2576L41.2806 33.0322H34.767V53.9192H26.957V33.039H20.4246V24.8972H26.957V18.8987C26.957 11.9364 30.909 8.1418 36.6835 8.1418C39.4518 8.1418 41.8255 8.36421 42.5207 8.46531V15.7377H42.5144Z" fill="#9FD4EF"/>
</svg>
