<svg width="55" height="49" viewBox="0 0 55 49" fill="none" xmlns="http://www.w3.org/2000/svg">
<path d="M27.4425 1C12.957 1 1.21484 11.5684 1.21484 24.6061C1.21484 37.6437 12.957 48.2121 27.4425 48.2121C41.9281 48.2121 53.6702 37.6437 53.6702 24.6061C53.6702 11.5684 41.9281 1 27.4425 1Z" stroke="#6ECAEF" stroke-width="1.5" stroke-linecap="round" stroke-linejoin="round"/>
<path d="M7.1709 39.5874C7.1709 39.5874 13.017 32.8691 27.4422 32.8691C41.8675 32.8691 47.7162 39.5874 47.7162 39.5874" stroke="#6ECAEF" stroke-width="1.5" stroke-linecap="round" stroke-linejoin="round"/>
<path d="M27.4416 24.607C29.5284 24.607 31.5297 23.8609 33.0053 22.5328C34.4809 21.2047 35.3099 19.4034 35.3099 17.5252C35.3099 15.647 34.4809 13.8457 33.0053 12.5176C31.5297 11.1895 29.5284 10.4434 27.4416 10.4434C25.3547 10.4434 23.3534 11.1895 21.8778 12.5176C20.4022 13.8457 19.5732 15.647 19.5732 17.5252C19.5732 19.4034 20.4022 21.2047 21.8778 22.5328C23.3534 23.8609 25.3547 24.607 27.4416 24.607V24.607Z" stroke="#6ECAEF" stroke-width="1.5" stroke-linecap="round" stroke-linejoin="round"/>
</svg>
