<svg width="48" height="48" viewBox="0 0 48 48" fill="none" xmlns="http://www.w3.org/2000/svg">
<path d="M35.9223 14.1636V14.9136H36.6723H44.4849C44.9991 14.9136 45.4792 15.0995 45.8226 15.4107C46.1635 15.7197 46.339 16.1222 46.339 16.5242V42.4909C46.339 44.6129 44.4099 46.4621 41.8807 46.4621H5.42222C2.89303 46.4621 0.963867 44.6129 0.963867 42.4909V16.5242C0.963867 16.1222 1.13941 15.7197 1.48032 15.4107C1.82367 15.0995 2.30381 14.9136 2.81804 14.9136H10.6306H11.3806V14.1636V11.803C11.3806 5.77665 16.815 0.75 23.6515 0.75C30.4879 0.75 35.9223 5.77665 35.9223 11.803V14.1636ZM31.464 14.9136H32.214V14.1636V11.803C32.214 7.41678 28.302 3.97121 23.6515 3.97121C19.0009 3.97121 15.0889 7.41678 15.0889 11.803V14.1636V14.9136H15.8389H31.464ZM5.42222 18.1348H4.67222V18.8848V42.4909V43.2409H5.42222H41.8859H42.6361L42.6359 42.4907L42.6307 18.8847L42.6305 18.1348H41.8807H36.6723H35.9223V18.8848V22.8561H32.214V18.8848V18.1348H31.464H15.8389H15.0889V18.8848V22.8561H11.3806V18.8848V18.1348H10.6306H5.42222Z" fill="#6ECAEF" stroke="black" stroke-width="1.5"/>
</svg>
