<svg width="18" height="18" viewBox="0 0 18 18" fill="none" xmlns="http://www.w3.org/2000/svg">
<path d="M1 4.55556H17M16 4.55556L15.133 15.3484C15.0971 15.797 14.8713 16.2167 14.5011 16.5232C14.1309 16.8296 13.6439 17 13.138 17H4.862C4.35614 17 3.86907 16.8296 3.49889 16.5232C3.1287 16.2167 2.90292 15.797 2.867 15.3484L2 4.55556H16ZM7 8.11111V13.4444V8.11111ZM11 8.11111V13.4444V8.11111ZM12 4.55556V1.88889C12 1.65314 11.8946 1.42705 11.7071 1.26035C11.5196 1.09365 11.2652 1 11 1H7C6.73478 1 6.48043 1.09365 6.29289 1.26035C6.10536 1.42705 6 1.65314 6 1.88889V4.55556H12Z" stroke="#F8F8F8" stroke-width="2" stroke-linecap="round" stroke-linejoin="round"/>
</svg>
