<svg width="36" height="35" viewBox="0 0 36 35" fill="none" xmlns="http://www.w3.org/2000/svg">
<path d="M34.1605 0H1.96055C1.18617 0 0.560547 0.625625 0.560547 1.4V33.6C0.560547 34.3744 1.18617 35 1.96055 35H34.1605C34.9349 35 35.5605 34.3744 35.5605 33.6V1.4C35.5605 0.625625 34.9349 0 34.1605 0ZM30.118 10.2156H27.3224C25.1305 10.2156 24.7062 11.2569 24.7062 12.7881V16.1612H29.9387L29.2562 21.4419H24.7062V35H19.2505V21.4463H14.6874V16.1612H19.2505V12.2675C19.2505 7.74812 22.0112 5.285 26.0449 5.285C27.9787 5.285 29.6368 5.42938 30.1224 5.495V10.2156H30.118Z" fill="#9FD4EF"/>
</svg>
