<svg width="110" height="40" viewBox="0 0 110 40" fill="none" xmlns="http://www.w3.org/2000/svg">
<path d="M30.1972 0H18.7969C13.7594 0.198968 9.64179 1.8939 8.45287 5.3891C7.83293 7.21192 7.49176 9.21387 7.00699 11.1034C4.54256 20.7113 2.35733 30.5839 0 40H88.7562C95.6179 40 100.329 38.7887 101.602 34.2389C102.194 32.1255 102.76 29.7319 103.326 27.41C105.532 18.3567 107.74 9.30388 110 0H30.1972Z" fill="#822124"/>
<path d="M29.3061 14.2161C29.7829 13.9417 30.397 12.6922 29.6954 12.1719C29.4732 12.0073 29.1016 11.9594 28.5832 12.0327C28.1023 12.1005 27.8257 12.2371 27.6378 12.4508C27.3359 12.7945 27.0589 13.8312 27.5266 14.2163C27.9822 14.5911 29.0027 14.3905 29.3061 14.2161V14.2161ZM22.5215 12.1719C22.1799 14.0236 21.7951 15.8392 21.4092 17.6539C18.9319 17.6758 16.4024 17.756 14.0129 17.6074C14.4642 15.832 14.7879 13.9499 15.2364 12.1719H12.5671C11.6116 16.7008 10.7422 21.3019 9.67529 25.7377H12.4004C12.8277 23.4624 13.2276 21.1638 13.7905 19.0013C16.1139 18.9535 18.8986 18.8701 21.1313 19.0478C20.671 21.296 20.1147 23.4635 19.6855 25.7377H22.4105C23.2863 21.1419 24.2086 16.5855 25.3025 12.1719H22.5215V12.1719ZM61.0604 16.0745C58.9402 15.359 57.2732 16.568 56.5003 17.7005C56.6757 17.1967 56.7478 16.6066 56.8899 16.0745H54.7766C54.2598 19.4216 53.4985 22.5639 52.7746 25.7377H55.1661C55.5012 23.8539 55.6459 21.3144 56.3893 19.5123C56.9836 18.0723 58.5387 16.8454 60.7827 17.5147C60.8138 16.9834 60.9958 16.5779 61.0604 16.0745V16.0745ZM62.3948 23.4614C62.1744 22.9855 62.1176 22.2001 62.1727 21.6028C62.2962 20.2606 62.8818 18.6262 63.7854 17.8863C65.0325 16.8651 67.4943 17.0341 69.458 17.6076C69.5187 17.0547 69.6517 16.5615 69.7361 16.0281C66.5157 15.5887 63.4598 15.8621 61.8395 17.2825C60.253 18.673 59.2135 21.8687 59.9483 23.8795C60.8086 26.2325 64.6665 26.3604 67.7897 25.4592C67.9279 24.9862 68.0011 24.4589 68.1233 23.9726C66.4164 24.7131 63.1534 25.098 62.3948 23.4614V23.4614ZM89.2555 16.1208C87.1419 15.238 85.3823 16.7194 84.6954 17.6074C84.8911 17.1517 84.9023 16.5415 85.0845 16.0743H82.9714C82.4016 19.3923 81.7149 22.6126 80.914 25.7375H83.361C83.3763 24.4567 83.6775 23.5093 83.9168 22.2535C84.4281 19.5715 85.1791 16.6304 88.9223 17.5145C89.046 17.061 89.0976 16.5465 89.2555 16.1208ZM26.8592 16.0745C26.7944 16.0822 26.7987 16.1479 26.8034 16.2137C26.2766 19.5056 25.5633 22.6422 24.8015 25.7375H27.1928C27.7674 22.4234 28.4255 19.1795 29.2504 16.0743L26.8592 16.0745V16.0745ZM47.8803 15.8887C46.1524 16 44.6919 16.4152 43.6539 17.3289C42.3808 18.4493 41.3499 20.9266 41.652 23.1827C42.083 26.4012 46.8799 26.2855 50.7166 25.5055C50.782 24.9405 50.9457 24.4576 51.0502 23.9259C49.4698 24.4199 46.7255 25.1096 45.0996 24.2513C43.8722 23.6028 43.8651 21.9614 44.2654 20.5346C46.8441 20.466 49.5242 20.479 52.1066 20.5346C52.2702 19.5233 52.739 18.4208 52.329 17.422C51.7883 16.1033 49.8514 15.7617 47.8803 15.8887ZM50.1604 19.4194H44.5433C44.7213 18.3407 45.883 17.155 47.7134 17.0965C49.4361 17.0415 50.6695 17.6249 50.1604 19.4194V19.4194ZM38.8157 16.0745C36.7918 15.4393 34.3252 16.1975 33.2557 16.9187C33.2596 16.9504 33.2302 16.9548 33.1987 16.9571C33.2168 16.9443 33.2367 16.9315 33.2557 16.9187C33.2555 16.916 33.2552 16.9134 33.2546 16.9107C33.2725 16.6007 33.4032 16.3846 33.4213 16.0745H31.3637C30.5062 20.8401 29.4894 25.4725 28.4165 30.0582H30.8077C31.1538 28.2723 31.3823 26.3882 31.8645 24.7156C32.4105 26.4748 35.9764 26.1387 37.4813 25.459C40.5857 24.0563 42.9804 17.3812 38.8157 16.0745V16.0745ZM36.925 23.9259C35.6456 25.0578 32.5004 25.0408 32.2536 23.1359C32.1462 22.3072 32.5157 21.4383 32.6988 20.5809C32.8834 19.7131 33.0167 18.8804 33.1989 18.1186C34.4591 16.8332 38.1621 16.6779 38.5378 18.8155C38.8637 20.6713 37.9844 22.9884 36.925 23.9259V23.9259ZM98.1532 11.8932C97.9482 13.3944 97.6742 14.8381 97.3192 16.2137C91.4535 14.6626 87.8562 18.268 87.921 22.718C87.9338 23.5786 88.111 24.432 88.7549 25.0408C89.8657 26.0896 93.0446 26.3409 94.6501 25.4588C94.9606 25.2882 95.2782 24.9775 95.484 24.7621C95.6389 24.6 95.8844 24.1752 95.9291 24.2975C95.8444 24.7688 95.7183 25.2057 95.7069 25.7375H97.8757C98.294 20.7285 99.5861 16.4502 100.545 11.8931H98.1534V11.8932H98.1532ZM92.8147 24.6691C91.2049 24.6979 90.4045 23.8656 90.3675 22.4856C90.3034 20.0688 91.5724 17.3837 94.1494 17.1429C95.3491 17.0309 96.2178 17.2639 97.0968 17.5147C96.2897 20.2295 96.581 24.6016 92.8147 24.6691V24.6691ZM72.1826 16.0745C72.0649 16.6265 71.8842 17.1259 71.7378 17.6539C73.1489 17.3583 77.5429 16.452 77.9663 18.0255C78.1069 18.5483 77.8644 19.1037 77.6882 19.5123C73.7151 19.1979 70.4765 19.7493 69.6245 22.1139C69.054 23.6977 69.6884 25.2562 70.9036 25.6913C73.2441 26.529 76.091 25.5694 77.0765 24.2513C76.9741 24.7075 76.8772 25.1687 76.91 25.7377H78.9674C78.9894 24.0915 79.2762 22.7589 79.5791 21.2776C79.8374 20.0161 80.3235 18.7673 80.2466 17.6539C80.0695 15.1042 75.013 16.0061 72.1826 16.0745V16.0745ZM76.0754 23.8793C74.8431 24.8872 71.3839 25.1734 71.7378 22.7643C72.0315 20.7635 74.6395 20.3383 77.4654 20.6271C77.2555 21.7217 77.0145 23.1114 76.0754 23.8793V23.8793Z" fill="white"/>
</svg>
