<svg width="81" height="80" viewBox="0 0 81 80" fill="none" xmlns="http://www.w3.org/2000/svg">
<path fill-rule="evenodd" clip-rule="evenodd" d="M40.1274 0C17.9637 0 0 17.8304 0 39.8222C0 61.814 17.9637 79.6444 40.1274 79.6444C62.2877 79.6444 80.2548 61.814 80.2548 39.8222C80.2548 17.8304 62.2877 0 40.1274 0ZM40.5955 63.1116C27.6611 63.1116 17.1879 52.6914 17.1879 39.8222C17.1879 26.953 27.6611 16.5329 40.5955 16.5329C46.9156 16.5329 52.199 18.8459 56.2519 22.6024L49.6509 29.1664V29.1532C47.1931 26.8236 44.0766 25.6289 40.5955 25.6289C32.871 25.6289 26.5944 32.1199 26.5944 39.8089C26.5944 47.4913 32.871 54.0022 40.5955 54.0022C47.6045 54.0022 52.3729 50.0134 53.356 44.5378H40.5955V35.455H62.6154C62.9097 37.0147 63.0669 38.6408 63.0669 40.3465C63.0669 53.6538 54.1151 63.1116 40.5955 63.1116Z" fill="#1EA7C3"/>
</svg>
