<svg width="30" height="32" viewBox="0 0 30 32" fill="none" xmlns="http://www.w3.org/2000/svg">
<path d="M9 9.14286C8.60218 9.14286 8.22064 9.26327 7.93934 9.47759C7.65804 9.69192 7.5 9.98261 7.5 10.2857C7.5 10.5888 7.65804 10.8795 7.93934 11.0938C8.22064 11.3082 8.60218 11.4286 9 11.4286H21C21.3978 11.4286 21.7794 11.3082 22.0607 11.0938C22.342 10.8795 22.5 10.5888 22.5 10.2857C22.5 9.98261 22.342 9.69192 22.0607 9.47759C21.7794 9.26327 21.3978 9.14286 21 9.14286H9ZM9 16C8.60218 16 8.22064 16.1204 7.93934 16.3347C7.65804 16.5491 7.5 16.8398 7.5 17.1429C7.5 17.446 7.65804 17.7367 7.93934 17.951C8.22064 18.1653 8.60218 18.2857 9 18.2857H21C21.3978 18.2857 21.7794 18.1653 22.0607 17.951C22.342 17.7367 22.5 17.446 22.5 17.1429C22.5 16.8398 22.342 16.5491 22.0607 16.3347C21.7794 16.1204 21.3978 16 21 16H9ZM9 22.8571C8.60218 22.8571 8.22064 22.9776 7.93934 23.1919C7.65804 23.4062 7.5 23.6969 7.5 24C7.5 24.3031 7.65804 24.5938 7.93934 24.8081C8.22064 25.0225 8.60218 25.1429 9 25.1429H10.5C10.8978 25.1429 11.2794 25.0225 11.5607 24.8081C11.842 24.5938 12 24.3031 12 24C12 23.6969 11.842 23.4062 11.5607 23.1919C11.2794 22.9776 10.8978 22.8571 10.5 22.8571H9ZM6 0C6.39782 0 6.77936 0.120408 7.06066 0.334735C7.34196 0.549062 7.5 0.839753 7.5 1.14286V2.28571H13.5V1.14286C13.5 0.839753 13.658 0.549062 13.9393 0.334735C14.2206 0.120408 14.6022 0 15 0C15.3978 0 15.7794 0.120408 16.0607 0.334735C16.342 0.549062 16.5 0.839753 16.5 1.14286V2.28571H22.5V1.14286C22.5 0.839753 22.658 0.549062 22.9393 0.334735C23.2206 0.120408 23.6022 0 24 0C24.3978 0 24.7794 0.120408 25.0607 0.334735C25.342 0.549062 25.5 0.839753 25.5 1.14286V2.28571C26.6935 2.28571 27.8381 2.64694 28.682 3.28992C29.5259 3.9329 30 4.80497 30 5.71429V20.768C29.9989 21.677 29.5242 22.5485 28.68 23.1909L18.438 30.9966C17.5944 31.6389 16.4506 31.9998 15.258 32H4.5C3.30653 32 2.16193 31.6388 1.31802 30.9958C0.474106 30.3528 0 29.4807 0 28.5714V5.71429C0 4.80497 0.474106 3.9329 1.31802 3.28992C2.16193 2.64694 3.30653 2.28571 4.5 2.28571V1.14286C4.5 0.839753 4.65804 0.549062 4.93934 0.334735C5.22064 0.120408 5.60218 0 6 0ZM25.5 4.57143H4.5C4.10218 4.57143 3.72064 4.69184 3.43934 4.90616C3.15804 5.12049 3 5.41118 3 5.71429V28.5714C3 28.8745 3.15804 29.1652 3.43934 29.3796C3.72064 29.5939 4.10218 29.7143 4.5 29.7143H15V24C15 23.0907 15.4741 22.2186 16.318 21.5756C17.1619 20.9327 18.3065 20.5714 19.5 20.5714H27V5.71429C27 5.41118 26.842 5.12049 26.5607 4.90616C26.2794 4.69184 25.8978 4.57143 25.5 4.57143ZM18 28.0983L24.879 22.8571H19.5C19.1022 22.8571 18.7206 22.9776 18.4393 23.1919C18.158 23.4062 18 23.6969 18 24V28.0983Z" fill="white"/>
</svg>
