<svg width="34" height="34" viewBox="0 0 34 34" fill="none" xmlns="http://www.w3.org/2000/svg">
<path d="M17 1C8.1632 1 1 8.1632 1 17C1 25.8368 8.1632 33 17 33C25.8368 33 33 25.8368 33 17C33 8.1632 25.8368 1 17 1Z" stroke="#F8F8F8" stroke-width="1.5" stroke-linecap="round" stroke-linejoin="round"/>
<path d="M4.63281 27.1537C4.63281 27.1537 8.19921 22.6001 16.9992 22.6001C25.7992 22.6001 29.3672 27.1537 29.3672 27.1537" stroke="#F8F8F8" stroke-width="1.5" stroke-linecap="round" stroke-linejoin="round"/>
<path d="M16.9992 16.9999C18.2723 16.9999 19.4932 16.4942 20.3933 15.594C21.2935 14.6938 21.7992 13.4729 21.7992 12.1999C21.7992 10.9269 21.2935 9.70596 20.3933 8.80579C19.4932 7.90562 18.2723 7.3999 16.9992 7.3999C15.7262 7.3999 14.5053 7.90562 13.6051 8.80579C12.7049 9.70596 12.1992 10.9269 12.1992 12.1999C12.1992 13.4729 12.7049 14.6938 13.6051 15.594C14.5053 16.4942 15.7262 16.9999 16.9992 16.9999V16.9999Z" stroke="#F8F8F8" stroke-width="1.5" stroke-linecap="round" stroke-linejoin="round"/>
</svg>
